<svg width="875" height="934" viewBox="0 0 875 934" fill="none" xmlns="http://www.w3.org/2000/svg">
<g filter="url(#filter0_bdi_0_1)">
<rect x="326.666" y="665.213" width="445.52" height="231.466" rx="25.7262" transform="rotate(-21.456 326.666 665.213)" fill="url(#paint0_linear_0_1)" fill-opacity="0.93" shape-rendering="crispEdges"/>
</g>
<path d="M404.569 674.296L472.025 847.532M563.612 612.468L631.068 785.704M485.314 642.906L552.77 816.142M643.541 581.395L710.997 754.631M443.717 659.077L511.173 832.313M603.577 596.931L671.033 770.167M524.462 627.687L591.918 800.923M683.506 565.859L750.962 739.095M427.057 829.693L778.582 693.038M398.205 755.598L749.73 618.943M412.833 793.168L764.358 656.512M383.575 718.029L735.1 581.374" stroke="url(#paint1_linear_0_1)" stroke-width="0.857539"/>
<path d="M543.64 724.756C426.912 633.82 416.445 798.692 413.696 799.753L421.165 819.093C427.205 834.735 444.781 842.518 460.422 836.478L754.985 722.731C770.627 716.691 778.41 699.115 772.37 683.474L750.946 627.992C739.379 699.967 713.965 695.22 702.704 683.85C678.172 661.499 624.863 631.806 607.887 691.839C590.911 751.872 557.982 738.797 543.64 724.756Z" fill="url(#paint2_linear_0_1)"/>
<g filter="url(#filter1_bdi_0_1)">
<rect x="402.562" y="95.293" width="249.581" height="121.99" rx="25.7262" transform="rotate(-21.456 402.562 95.293)" fill="url(#paint3_linear_0_1)" fill-opacity="0.93" shape-rendering="crispEdges"/>
</g>
<path d="M514.709 87.0962L517.748 85.9682L519.421 90.8216L516.607 91.866L514.709 87.0962ZM522.769 108.468L525.583 107.423L527.46 112.137L524.422 113.265L522.769 108.468ZM523.267 94.1964C522.784 93.7569 522.284 93.3875 521.767 93.0883C521.269 92.7822 520.75 92.5908 520.209 92.514C519.68 92.4115 519.125 92.4682 518.544 92.684C517.962 92.8999 517.519 93.1712 517.213 93.498C516.9 93.8061 516.706 94.145 516.63 94.5148C516.572 94.8776 516.624 95.2747 516.784 95.7062C517.007 96.3065 517.394 96.7176 517.946 96.9396C518.517 97.1547 519.201 97.2741 520 97.2978C520.791 97.3028 521.637 97.3092 522.536 97.3169C523.239 97.3123 523.943 97.3708 524.65 97.4927C525.376 97.6075 526.07 97.8089 526.731 98.0969C527.393 98.3848 527.987 98.8048 528.512 99.3569C529.03 99.8903 529.453 100.598 529.78 101.479C530.218 102.661 530.307 103.792 530.046 104.87C529.803 105.942 529.244 106.907 528.367 107.766C527.484 108.606 526.311 109.298 524.848 109.841C523.685 110.273 522.513 110.451 521.333 110.377C520.146 110.284 519.025 109.996 517.97 109.512C516.916 109.029 516.005 108.385 515.237 107.582L517.45 104.487C518.188 105.152 518.896 105.679 519.573 106.068C520.251 106.457 520.937 106.693 521.63 106.778C522.316 106.843 523.024 106.74 523.756 106.469C524.356 106.246 524.822 105.977 525.153 105.662C525.496 105.321 525.699 104.947 525.761 104.54C525.835 104.107 525.778 103.637 525.59 103.13C525.361 102.511 524.976 102.078 524.435 101.83C523.888 101.564 523.24 101.399 522.491 101.335C521.742 101.272 520.93 101.242 520.057 101.246C519.506 101.259 518.875 101.226 518.164 101.149C517.452 101.071 516.737 100.899 516.019 100.632C515.301 100.365 514.639 99.9601 514.031 99.4171C513.443 98.8671 512.975 98.1231 512.627 97.1852C512.279 96.2472 512.243 95.2893 512.521 94.3113C512.791 93.3145 513.336 92.3972 514.156 91.5592C514.976 90.7212 516.015 90.069 517.272 89.6025C518.547 89.129 519.703 88.935 520.737 89.0205C521.765 89.0872 522.688 89.3315 523.507 89.7534C524.344 90.1684 525.06 90.6603 525.655 91.2291L523.267 94.1964ZM532.157 102.678L537.477 82.423L540.207 81.41L547.518 101.107L543.381 102.642L541.543 97.6896L541.766 97.2548L538.789 89.2354L536.611 97.5992L543.646 94.9883L543.968 94.3887L547.991 92.8952L549.265 96.3281L532.157 102.678ZM553.207 97.106C552.971 96.4682 552.988 95.8535 553.259 95.2619C553.542 94.6446 554.012 94.2141 554.669 93.9704C555.344 93.7198 555.981 93.7395 556.58 94.0295C557.171 94.3008 557.585 94.7554 557.822 95.3932C558.045 95.9935 558.024 96.5988 557.76 97.2092C557.495 97.8195 557.026 98.25 556.35 98.5007C555.694 98.7443 555.057 98.7246 554.439 98.4415C553.841 98.1515 553.43 97.7063 553.207 97.106ZM563.39 87.4999C563.668 88.2503 564.072 88.8477 564.599 89.2921C565.12 89.7177 565.712 89.989 566.374 90.106C567.048 90.1973 567.732 90.1141 568.427 89.8565C569.121 89.5989 569.684 89.219 570.117 88.717C570.561 88.1892 570.842 87.5941 570.959 86.9318C571.069 86.2506 570.984 85.5349 570.706 84.7845C570.434 84.053 570.035 83.465 569.507 83.0206C568.972 82.5574 568.368 82.2802 567.694 82.1889C567.031 82.0719 566.353 82.1422 565.659 82.3999C564.965 82.6575 564.396 83.0502 563.951 83.5779C563.519 84.08 563.251 84.681 563.148 85.3809C563.038 86.062 563.118 86.7683 563.39 87.4999ZM562.613 73.1578L567.706 71.2674L564.16 81.0353L563.522 81.5601C563.822 80.8726 564.179 80.3668 564.592 80.0426C565.024 79.7115 565.587 79.4172 566.281 79.1596C567.031 78.8811 567.819 78.7596 568.643 78.7952C569.486 78.8238 570.293 79.015 571.065 79.3689C571.837 79.7228 572.537 80.231 573.167 80.8935C573.798 81.5561 574.29 82.3657 574.645 83.3224C575.216 84.8606 575.353 86.2932 575.056 87.62C574.777 88.9399 574.17 90.0936 573.235 91.0811C572.293 92.0498 571.118 92.7953 569.711 93.3175C568.304 93.8397 566.928 94.0411 565.581 93.9218C564.228 93.7838 563.006 93.309 561.915 92.4973C560.843 91.6787 560.022 90.5003 559.451 88.9621C559.089 87.9866 558.942 87.0166 559.011 86.0519C559.073 85.0685 559.253 84.116 559.551 83.1943L562.613 73.1578ZM592.519 77.1685C592.951 78.3316 593.108 79.4152 592.989 80.4195C592.871 81.4238 592.547 82.3337 592.018 83.1493C591.488 83.9648 590.822 84.671 590.019 85.2678C589.216 85.8647 588.336 86.3406 587.379 86.6957C586.179 87.1413 585.048 87.401 583.987 87.4747C582.944 87.5414 581.983 87.482 581.103 87.2963C580.216 87.0919 579.4 86.8187 578.654 86.4766L579.38 82.6535C580.023 82.9484 580.686 83.1825 581.369 83.3558C582.071 83.5221 582.764 83.6064 583.448 83.6087C584.125 83.5922 584.736 83.4831 585.28 83.2811C586.124 82.9678 586.788 82.5719 587.272 82.0935C587.775 81.608 588.095 81.0623 588.233 80.4562C588.364 79.8313 588.293 79.1531 588.022 78.4215C587.757 77.7087 587.347 77.178 586.791 76.8296C586.253 76.4741 585.63 76.2893 584.92 76.2752C584.222 76.2354 583.517 76.3478 582.804 76.6124C582.279 76.8073 581.743 77.0596 581.196 77.3693C580.643 77.6601 580.095 78.0236 579.552 78.4597C579.022 78.8701 578.488 79.3882 577.952 80.0141L576.539 67.925L587.259 63.9459L588.554 67.435L580.816 70.3071L581.138 74.7976C581.529 74.354 581.978 73.9843 582.487 73.6886C583.008 73.3672 583.56 73.0985 584.141 72.8827C585.211 72.4858 586.293 72.3829 587.388 72.574C588.484 72.765 589.484 73.2473 590.39 74.0208C591.308 74.7687 592.018 75.8179 592.519 77.1685ZM592.657 67.3528C592.267 66.3023 592.211 65.288 592.488 64.3101C592.766 63.3321 593.297 62.4627 594.081 61.7018C594.878 60.9153 595.858 60.3062 597.021 59.8745C598.165 59.4498 599.286 59.2791 600.384 59.3624C601.494 59.42 602.473 59.7289 603.322 60.2892C604.189 60.8424 604.817 61.6443 605.207 62.6948C605.527 63.5577 605.631 64.3836 605.518 65.1725C605.417 65.9356 605.147 66.6443 604.707 67.2985C604.285 67.9458 603.741 68.5213 603.074 69.0249C602.408 69.5285 601.671 69.93 600.864 70.2294C600.058 70.5288 599.237 70.7052 598.403 70.7585C597.57 70.8119 596.772 70.7343 596.012 70.5257C595.27 70.3101 594.603 69.9495 594.01 69.444C593.428 68.9128 592.978 68.2157 592.657 67.3528ZM596.574 66.3472C596.762 66.8537 597.038 67.2528 597.403 67.5444C597.767 67.836 598.178 68.0248 598.637 68.1106C599.089 68.1777 599.549 68.1242 600.018 67.9502C600.487 67.7761 600.871 67.5163 601.17 67.1707C601.461 66.8063 601.641 66.3983 601.708 65.9465C601.794 65.4878 601.742 65.0052 601.555 64.4987C601.373 64.0109 601.107 63.6084 600.754 63.2911C600.402 62.9737 599.999 62.7815 599.548 62.7144C599.096 62.6473 598.626 62.7043 598.138 62.8853C597.651 63.0663 597.258 63.3296 596.959 63.6752C596.66 64.0208 596.472 64.4324 596.393 64.9099C596.333 65.3804 596.393 65.8595 596.574 66.3472ZM595.515 77.209C595.146 76.2148 595.036 75.2847 595.184 74.4187C595.325 73.5339 595.646 72.7317 596.147 72.0121C596.667 71.2855 597.298 70.6565 598.04 70.125C598.782 69.5935 599.556 69.1781 600.363 68.8787C601.17 68.5793 602.027 68.389 602.936 68.3078C603.845 68.2265 604.724 68.2951 605.574 68.5134C606.442 68.7247 607.218 69.1196 607.902 69.698C608.58 70.2577 609.103 71.0346 609.472 72.0289C609.792 72.8918 609.897 73.7493 609.786 74.6013C609.669 75.4347 609.376 76.2264 608.907 76.9766C608.457 77.7198 607.863 78.3888 607.123 78.9835C606.395 79.5524 605.562 80.011 604.624 80.3591C603.686 80.7072 602.746 80.9067 601.805 80.9574C600.875 80.9823 599.988 80.8634 599.143 80.6006C598.299 80.3378 597.56 79.929 596.927 79.3742C596.306 78.7936 595.835 78.0719 595.515 77.209ZM599.263 75.1455C599.507 75.8021 599.844 76.3067 600.273 76.6595C600.715 76.9865 601.206 77.1884 601.747 77.2651C602.299 77.3162 602.848 77.2407 603.392 77.0388C603.917 76.8439 604.363 76.5503 604.73 76.1581C605.108 75.7401 605.358 75.2632 605.479 74.7273C605.593 74.1727 605.529 73.5671 605.285 72.9105C605.083 72.3665 604.758 71.9216 604.309 71.5759C603.861 71.2301 603.353 71.0129 602.787 70.9244C602.239 70.8288 601.703 70.8786 601.178 71.0735C600.634 71.2754 600.176 71.5947 599.804 72.0314C599.452 72.4611 599.218 72.9533 599.104 73.508C599.008 74.0557 599.061 74.6015 599.263 75.1455Z" fill="#303030"/>
<path d="M527.077 132.196L531.618 130.51L531.04 128.954L526.5 130.639L527.077 132.196ZM524.313 124.748L528.854 123.062L528.276 121.506L523.735 123.191L524.313 124.748ZM525.588 128.182L529.871 126.592L529.303 125.062L525.02 126.652L525.588 128.182ZM522.552 123.631L525.894 132.635L527.669 131.976L524.327 122.972L522.552 123.631ZM533.777 127.616C533.714 127.444 533.7 127.289 533.736 127.149C533.768 127 533.855 126.865 533.996 126.745C534.133 126.616 534.33 126.503 534.588 126.408C534.905 126.29 535.221 126.222 535.536 126.202C535.859 126.18 536.168 126.211 536.464 126.297L536.177 125.525C536.053 125.454 535.872 125.399 535.633 125.361C535.395 125.323 535.115 125.319 534.795 125.35C534.484 125.378 534.139 125.462 533.762 125.602C533.024 125.876 532.516 126.255 532.237 126.739C531.958 127.223 531.925 127.752 532.139 128.327C532.288 128.73 532.51 129.038 532.804 129.251C533.103 129.452 533.438 129.567 533.809 129.595C534.181 129.623 534.551 129.568 534.92 129.431C535.28 129.298 535.599 129.106 535.877 128.856C536.164 128.604 536.362 128.31 536.472 127.977C536.591 127.64 536.581 127.283 536.441 126.905L535.948 126.21C536.054 126.493 536.08 126.761 536.028 127.015C535.972 127.26 535.862 127.476 535.698 127.664C535.53 127.843 535.318 127.981 535.061 128.076C534.88 128.143 534.702 128.175 534.525 128.173C534.354 128.158 534.203 128.107 534.073 128.018C533.94 127.922 533.841 127.787 533.777 127.616ZM532.241 125.449C532.305 125.357 532.411 125.235 532.559 125.083C532.707 124.93 532.895 124.778 533.121 124.625C533.347 124.473 533.598 124.346 533.872 124.244C534.052 124.177 534.222 124.134 534.38 124.114C534.539 124.094 534.684 124.104 534.815 124.143C534.955 124.179 535.073 124.247 535.169 124.348C535.262 124.44 535.339 124.568 535.399 124.731L536.827 128.577L538.435 127.98L536.878 123.787C536.729 123.384 536.492 123.086 536.167 122.895C535.839 122.694 535.451 122.595 535.002 122.595C534.553 122.596 534.076 122.69 533.57 122.878C533.021 123.082 532.553 123.343 532.164 123.663C531.772 123.975 531.452 124.269 531.204 124.546L532.241 125.449ZM539.422 120.881L537.788 121.488L539.985 127.405L541.618 126.799L539.422 120.881ZM541.803 121.973L542.037 120.277C541.86 120.167 541.658 120.11 541.432 120.106C541.215 120.099 540.999 120.135 540.785 120.215C540.476 120.329 540.217 120.552 540.008 120.883C539.796 121.206 539.669 121.585 539.625 122.021C539.579 122.448 539.643 122.897 539.818 123.369L540.453 123.66C540.348 123.377 540.294 123.124 540.289 122.901C540.29 122.667 540.342 122.467 540.447 122.301C540.551 122.136 540.706 122.015 540.912 121.938C541.084 121.875 541.236 121.852 541.37 121.871C541.509 121.878 541.653 121.912 541.803 121.973ZM547.48 120.525L548.817 124.127L550.541 123.487L549.137 119.705C548.873 118.993 548.496 118.504 548.007 118.237C547.514 117.961 546.916 117.954 546.213 118.215C545.793 118.371 545.466 118.594 545.233 118.886C545.005 119.165 544.863 119.506 544.807 119.907L544.473 119.007L542.801 119.628L544.997 125.545L546.669 124.924L545.332 121.322C545.24 121.074 545.207 120.842 545.235 120.627C545.262 120.411 545.349 120.223 545.494 120.062C545.636 119.892 545.822 119.765 546.054 119.679C546.397 119.551 546.684 119.562 546.915 119.71C547.145 119.859 547.334 120.13 547.48 120.525ZM555.021 121.97C555.733 121.706 556.291 121.343 556.695 120.881C557.104 120.407 557.36 119.834 557.462 119.162L555.841 119.251C555.775 119.598 555.636 119.893 555.424 120.138C555.218 120.37 554.93 120.555 554.561 120.692C554.235 120.813 553.93 120.844 553.644 120.784C553.358 120.724 553.105 120.579 552.883 120.349C552.669 120.116 552.49 119.802 552.343 119.408C552.199 118.993 552.132 118.628 552.141 118.312C552.156 117.984 552.246 117.712 552.409 117.496C552.578 117.267 552.825 117.092 553.151 116.971C553.417 116.873 553.671 116.847 553.913 116.894C554.154 116.94 554.365 117.048 554.544 117.215C554.732 117.38 554.88 117.608 554.988 117.899C555.011 117.959 555.022 118.043 555.023 118.15C555.029 118.245 555.024 118.325 555.009 118.389L555.24 117.63L551.394 119.058L551.776 120.087L557.075 118.12C557.065 118.065 557.043 117.995 557.012 117.909C556.988 117.82 556.962 117.737 556.934 117.66C556.698 117.026 556.378 116.53 555.972 116.173C555.563 115.808 555.084 115.595 554.535 115.535C553.992 115.464 553.394 115.549 552.742 115.791C552.091 116.033 551.572 116.372 551.188 116.807C550.8 117.234 550.559 117.729 550.465 118.29C550.376 118.84 550.45 119.433 550.685 120.067C550.918 120.693 551.248 121.19 551.677 121.558C552.112 121.913 552.617 122.131 553.193 122.21C553.769 122.289 554.378 122.209 555.021 121.97ZM560.057 108.539L563.781 118.573L565.453 117.952L561.729 107.919L560.057 108.539ZM557.82 117.419C558.062 118.071 558.402 118.579 558.84 118.943C559.277 119.308 559.759 119.529 560.286 119.606C560.812 119.684 561.32 119.632 561.809 119.451C562.306 119.266 562.697 118.98 562.982 118.591C563.276 118.199 563.444 117.732 563.487 117.189C563.538 116.643 563.445 116.053 563.21 115.418C562.971 114.775 562.656 114.268 562.264 113.896C561.878 113.513 561.446 113.268 560.968 113.163C560.498 113.054 560.015 113.092 559.517 113.277C559.028 113.458 558.61 113.75 558.262 114.152C557.913 114.555 557.692 115.037 557.598 115.599C557.501 116.152 557.575 116.759 557.82 117.419ZM559.544 116.779C559.413 116.428 559.373 116.096 559.424 115.785C559.474 115.473 559.598 115.203 559.796 114.973C559.993 114.744 560.234 114.577 560.517 114.472C560.766 114.379 561.031 114.359 561.314 114.41C561.601 114.449 561.866 114.571 562.107 114.774C562.357 114.974 562.549 115.254 562.683 115.614C562.816 115.974 562.854 116.312 562.795 116.626C562.744 116.938 562.625 117.207 562.436 117.433C562.252 117.647 562.036 117.801 561.787 117.893C561.504 117.998 561.213 118.028 560.913 117.983C560.613 117.938 560.343 117.814 560.102 117.611C559.86 117.408 559.674 117.131 559.544 116.779ZM567.439 108.858L569.858 107.96L572.584 115.305L574.423 114.623L571.697 107.278L574.128 106.375L573.512 104.716L566.823 107.199L567.439 108.858ZM575.693 102.736L574.021 103.356L577.745 113.39L579.417 112.769L575.693 102.736ZM580.229 108.37L581.565 111.972L583.238 111.351L581.81 107.505C581.629 107.016 581.403 106.632 581.133 106.351C580.86 106.062 580.542 105.888 580.178 105.828C579.814 105.768 579.401 105.823 578.938 105.995C578.474 106.167 578.126 106.424 577.891 106.764C577.657 107.105 577.528 107.494 577.505 107.932C577.491 108.367 577.571 108.82 577.746 109.291L578.081 109.167C577.988 108.919 577.956 108.687 577.983 108.472C578.011 108.257 578.097 108.068 578.242 107.907C578.384 107.737 578.571 107.61 578.802 107.524C579.154 107.393 579.441 107.404 579.663 107.555C579.894 107.704 580.082 107.975 580.229 108.37ZM581.757 102.563C581.856 102.829 582.037 103.016 582.301 103.122C582.565 103.229 582.834 103.232 583.109 103.13C583.383 103.028 583.581 102.852 583.703 102.602C583.834 102.349 583.849 102.089 583.751 101.823C583.649 101.549 583.468 101.363 583.207 101.264C582.951 101.154 582.686 101.15 582.412 101.252C582.137 101.354 581.935 101.531 581.805 101.785C581.671 102.029 581.655 102.289 581.757 102.563ZM582.787 104.786L584.983 110.703L586.604 110.102L584.408 104.185L582.787 104.786ZM587.909 107.29L587.485 108.633C587.788 108.764 588.111 108.874 588.456 108.961C588.806 109.036 589.173 109.065 589.557 109.049C589.95 109.03 590.357 108.943 590.777 108.787C591.454 108.535 591.926 108.175 592.191 107.706C592.452 107.228 592.473 106.694 592.254 106.102C592.12 105.742 591.93 105.48 591.685 105.318C591.439 105.156 591.152 105.052 590.823 105.008C590.5 104.953 590.158 104.924 589.796 104.921C589.497 104.905 589.231 104.897 588.996 104.896C588.77 104.892 588.584 104.864 588.438 104.811C588.297 104.746 588.202 104.649 588.154 104.521C588.1 104.375 588.112 104.249 588.189 104.142C588.272 104.023 588.408 103.929 588.597 103.859C588.88 103.754 589.194 103.72 589.54 103.758C589.894 103.792 590.221 103.885 590.522 104.037L590.873 102.736C590.614 102.618 590.335 102.536 590.035 102.491C589.733 102.437 589.419 102.422 589.096 102.444C588.773 102.467 588.444 102.54 588.109 102.664C587.715 102.811 587.379 103.009 587.1 103.258C586.828 103.496 586.643 103.774 586.547 104.093C586.447 104.403 586.463 104.734 586.593 105.086C586.73 105.454 586.925 105.729 587.177 105.908C587.434 106.076 587.718 106.185 588.03 106.235C588.338 106.277 588.648 106.299 588.961 106.3C589.288 106.286 589.561 106.287 589.782 106.302C590.002 106.318 590.18 106.364 590.316 106.441C590.457 106.505 590.556 106.615 590.614 106.769C590.677 106.941 590.668 107.1 590.586 107.248C590.501 107.387 590.347 107.498 590.124 107.58C589.953 107.644 589.756 107.678 589.533 107.683C589.319 107.684 589.079 107.656 588.814 107.598C588.545 107.532 588.244 107.429 587.909 107.29ZM598.141 100.068L602.318 103.318L603.363 98.1296L605.818 102.97L607.735 102.259L602.888 93.3007L601.277 100.514L595.35 96.0985L597.521 106.049L599.438 105.338L598.141 100.068ZM607.527 98.9697C607.753 99.5785 608.095 100.066 608.553 100.433C609.016 100.788 609.54 101.003 610.125 101.079C610.717 101.152 611.327 101.072 611.953 100.839C612.579 100.607 613.089 100.271 613.482 99.8328C613.884 99.3909 614.14 98.8859 614.251 98.3178C614.368 97.738 614.313 97.1436 614.087 96.5347C613.858 95.9173 613.512 95.4312 613.048 95.0763C612.593 94.7183 612.069 94.5029 611.477 94.4303C610.892 94.3544 610.287 94.4327 609.661 94.665C609.035 94.8974 608.521 95.2345 608.119 95.6764C607.726 96.1151 607.47 96.62 607.35 97.1913C607.239 97.7594 607.298 98.3522 607.527 98.9697ZM609.225 98.3394C609.101 98.005 609.06 97.6837 609.101 97.3755C609.152 97.0641 609.271 96.7953 609.46 96.5689C609.65 96.3426 609.89 96.1753 610.182 96.0671C610.473 95.9589 610.764 95.9288 611.055 95.9769C611.347 96.025 611.608 96.1522 611.841 96.3586C612.082 96.5617 612.265 96.8305 612.389 97.165C612.513 97.4994 612.55 97.8223 612.5 98.1337C612.455 98.4333 612.34 98.7006 612.154 98.9355C611.964 99.1618 611.724 99.3291 611.432 99.4373C611.141 99.5455 610.85 99.5756 610.559 99.5275C610.264 99.4708 609.998 99.3452 609.76 99.1506C609.527 98.9443 609.349 98.6739 609.225 98.3394ZM618.919 94.0097L620.256 97.6114L621.979 96.9716L620.576 93.1898C620.311 92.4781 619.935 91.9886 619.445 91.7215C618.953 91.4457 618.355 91.4384 617.651 91.6994C617.231 91.8553 616.904 92.079 616.671 92.3705C616.443 92.6503 616.301 92.9908 616.245 93.392L615.911 92.4916L614.239 93.1123L616.435 99.0293L618.107 98.4087L616.771 94.807C616.678 94.5583 616.646 94.3264 616.673 94.1113C616.701 93.8962 616.787 93.7081 616.932 93.5469C617.074 93.3772 617.261 93.2493 617.492 93.1634C617.835 93.0361 618.122 93.0467 618.353 93.1952C618.584 93.3437 618.772 93.6152 618.919 94.0097ZM620.665 90.7271L621.186 92.1291L624.839 90.7732L624.318 89.3711L620.665 90.7271ZM620.918 88.2918L623.878 96.2669L625.486 95.6702L622.526 87.695L620.918 88.2918ZM625.35 84.3051L623.678 84.9258L627.402 94.959L629.074 94.3384L625.35 84.3051ZM629.885 89.9394L631.222 93.5411L632.894 92.9204L631.467 89.0743C631.285 88.5855 631.059 88.2009 630.79 87.9206C630.516 87.6317 630.198 87.4572 629.834 87.3971C629.47 87.337 629.057 87.3929 628.594 87.5647C628.131 87.7366 627.782 87.9929 627.547 88.3336C627.313 88.6744 627.184 89.0636 627.161 89.5014C627.147 89.936 627.227 90.3892 627.402 90.8608L627.737 90.7367C627.645 90.488 627.612 90.2561 627.64 90.041C627.667 89.8259 627.753 89.6378 627.899 89.4766C628.04 89.3069 628.227 89.179 628.459 89.0931C628.81 88.9626 629.097 88.9732 629.319 89.1249C629.55 89.2734 629.739 89.5449 629.885 89.9394Z" fill="#303030"/>
<circle cx="475.025" cy="133.075" r="33.8728" fill="#EBE1FF"/>
<g filter="url(#filter2_d_0_1)">
<circle cx="475.025" cy="133.076" r="17.5796" fill="#967CF7"/>
<circle cx="475.025" cy="133.076" r="17.1508" stroke="#785DE1" stroke-width="0.857539"/>
</g>
<g filter="url(#filter3_bdi_0_1)">
<rect x="410.363" y="250.784" width="313.536" height="314.392" rx="34.3016" transform="rotate(-21.456 410.363 250.784)" fill="url(#paint4_linear_0_1)" fill-opacity="0.93" shape-rendering="crispEdges"/>
</g>
<path d="M712.658 317.533C733.869 371.063 707.67 431.654 654.14 452.865C600.61 474.077 540.019 447.878 518.808 394.348C497.596 340.818 523.795 280.227 577.325 259.016C630.855 237.804 691.446 264.003 712.658 317.533ZM547.885 382.826C562.733 420.297 605.147 438.636 642.618 423.788C680.089 408.94 698.428 366.526 683.58 329.055C668.732 291.584 626.319 273.245 588.847 288.093C551.376 302.941 533.037 345.354 547.885 382.826Z" fill="white"/>
<path d="M730.105 341.392C731.81 356.095 730.603 370.989 726.552 385.226C722.501 399.462 715.686 412.761 706.495 424.363C697.305 435.966 685.919 445.644 672.988 452.846C660.057 460.048 645.834 464.633 631.131 466.338L624.638 410.358C631.99 409.506 639.101 407.213 645.567 403.612C652.032 400.011 657.725 395.172 662.32 389.371C666.915 383.57 670.323 376.92 672.348 369.802C674.374 362.684 674.978 355.237 674.125 347.885L730.105 341.392Z" fill="url(#paint5_linear_0_1)"/>
<path d="M659.668 459.162C645.908 464.615 631.208 467.304 616.409 467.076C601.609 466.847 586.999 463.706 573.414 457.832C559.828 451.957 547.532 443.465 537.229 432.838C528.919 424.268 522.035 414.444 516.822 403.744C514.748 399.487 516.933 394.486 521.336 392.741L557.783 378.298C562.186 376.554 567.115 378.753 569.507 382.841C571.787 386.737 574.532 390.353 577.688 393.608C582.84 398.922 588.988 403.168 595.78 406.105C602.573 409.042 609.878 410.613 617.278 410.727C624.678 410.841 632.027 409.497 638.908 406.77L659.668 459.162Z" fill="url(#paint6_linear_0_1)"/>
<path d="M579.782 257.567C578.037 253.164 580.185 248.147 584.708 246.742C598.905 242.332 613.863 240.765 628.719 242.165C646.428 243.834 663.49 249.67 678.511 259.197C693.531 268.723 706.084 281.669 715.143 296.976C724.201 312.284 729.509 329.518 730.63 347.269L674.387 350.824C673.826 341.948 671.173 333.331 666.644 325.677C662.114 318.024 655.838 311.551 648.327 306.788C640.817 302.024 632.286 299.106 623.432 298.272C617.434 297.707 611.403 298.108 605.565 299.445C600.949 300.502 595.969 298.417 594.225 294.014L579.782 257.567Z" fill="url(#paint7_linear_0_1)"/>
<path d="M588.846 349.883C589.328 350.28 589.818 350.597 590.314 350.834C590.823 351.065 591.325 351.199 591.82 351.236C592.327 351.267 592.815 351.189 593.283 351.004C593.778 350.808 594.139 350.526 594.364 350.158C594.585 349.776 594.61 349.371 594.441 348.943C594.297 348.582 594.09 348.332 593.818 348.192C593.54 348.039 593.154 347.944 592.66 347.907C592.166 347.871 591.527 347.861 590.744 347.877C590.362 347.889 589.908 347.876 589.382 347.837C588.869 347.792 588.352 347.68 587.831 347.499C587.306 347.305 586.82 347.017 586.375 346.637C585.925 346.242 585.562 345.697 585.286 345.002C584.957 344.172 584.888 343.372 585.077 342.6C585.28 341.823 585.689 341.135 586.303 340.536C586.925 339.918 587.69 339.428 588.6 339.068C589.537 338.697 590.407 338.53 591.211 338.567C592.029 338.599 592.758 338.759 593.398 339.047C594.039 339.335 594.575 339.672 595.006 340.059L592.99 342.529C592.657 342.274 592.309 342.079 591.946 341.945C591.591 341.791 591.226 341.711 590.852 341.705C590.486 341.679 590.123 341.738 589.762 341.881C589.28 342.072 588.954 342.325 588.785 342.64C588.61 342.941 588.584 343.246 588.706 343.554C588.833 343.875 589.065 344.108 589.401 344.253C589.751 344.393 590.193 344.474 590.727 344.494C591.275 344.509 591.922 344.501 592.667 344.468C593.236 344.459 593.786 344.497 594.314 344.582C594.838 344.653 595.329 344.799 595.788 345.019C596.26 345.235 596.68 345.533 597.048 345.913C597.415 346.294 597.716 346.779 597.949 347.367C598.23 348.076 598.335 348.77 598.263 349.449C598.199 350.109 597.994 350.724 597.648 351.295C597.314 351.86 596.871 352.361 596.316 352.797C595.78 353.242 595.184 353.594 594.529 353.854C593.619 354.214 592.706 354.39 591.789 354.382C590.881 354.355 590.028 354.175 589.23 353.841C588.432 353.507 587.74 353.069 587.154 352.527L588.846 349.883ZM603.203 346.563C603.298 346.803 603.44 346.987 603.63 347.113C603.814 347.226 604.025 347.289 604.262 347.304C604.495 347.304 604.731 347.257 604.972 347.162C605.32 347.024 605.612 346.823 605.848 346.559C606.084 346.295 606.237 345.979 606.308 345.611C606.379 345.242 606.329 344.844 606.16 344.416L606.958 345.492C607.191 346.081 607.229 346.646 607.073 347.188C606.911 347.717 606.618 348.189 606.194 348.605C605.765 349.007 605.257 349.324 604.668 349.558C604.079 349.791 603.488 349.901 602.895 349.889C602.31 349.857 601.776 349.682 601.294 349.362C600.824 349.037 600.465 348.561 600.216 347.932C599.866 347.049 599.905 346.229 600.332 345.471C600.754 344.7 601.54 344.087 602.691 343.631C603.253 343.408 603.776 343.263 604.26 343.195C604.757 343.122 605.198 343.102 605.583 343.135C605.967 343.168 606.274 343.24 606.504 343.351L607.037 344.695C606.62 344.581 606.174 344.549 605.698 344.599C605.23 344.629 604.762 344.737 604.294 344.923C603.933 345.066 603.661 345.22 603.479 345.385C603.297 345.55 603.184 345.734 603.14 345.937C603.092 346.127 603.112 346.335 603.203 346.563ZM600.466 343.584L598.64 341.962C599.061 341.501 599.594 341.011 600.24 340.492C600.886 339.973 601.643 339.542 602.513 339.197C603.329 338.874 604.106 338.705 604.843 338.691C605.576 338.664 606.217 338.797 606.766 339.09C607.316 339.384 607.718 339.851 607.972 340.493L610.549 346.995L607.639 348.148L605.333 342.329C605.243 342.101 605.126 341.923 604.982 341.794C604.846 341.647 604.68 341.542 604.486 341.48C604.291 341.418 604.069 341.405 603.82 341.442C603.585 341.473 603.327 341.544 603.046 341.656C602.631 341.82 602.242 342.029 601.878 342.281C601.527 342.529 601.231 342.778 600.989 343.028C600.743 343.265 600.568 343.45 600.466 343.584ZM607.117 330.245L610.167 329.036L616.369 344.689L613.319 345.897L607.117 330.245ZM624.005 341.895C622.935 342.319 621.928 342.494 620.985 342.418C620.05 342.325 619.225 342.001 618.511 341.448C617.797 340.896 617.246 340.131 616.859 339.154C616.467 338.164 616.335 337.226 616.463 336.339C616.592 335.452 616.967 334.661 617.589 333.966C618.225 333.265 619.078 332.703 620.148 332.279C621.218 331.854 622.195 331.684 623.08 331.767C623.959 331.837 624.73 332.142 625.394 332.684C626.057 333.226 626.585 333.992 626.977 334.982C627.036 335.129 627.094 335.277 627.152 335.424C627.205 335.558 627.237 335.677 627.247 335.781L618.819 339.121L618.151 337.435L623.85 335.177L623.494 336.386C623.523 336.266 623.532 336.131 623.519 335.981C623.514 335.813 623.493 335.682 623.456 335.588C623.297 335.187 623.086 334.868 622.822 334.632C622.558 334.396 622.261 334.251 621.929 334.196C621.598 334.142 621.252 334.186 620.891 334.329C620.436 334.51 620.094 334.761 619.866 335.084C619.638 335.406 619.526 335.807 619.53 336.285C619.542 336.745 619.663 337.285 619.893 337.906C620.116 338.467 620.387 338.917 620.707 339.255C621.026 339.593 621.389 339.805 621.795 339.892C622.195 339.965 622.63 339.909 623.098 339.724C623.633 339.512 624.048 339.231 624.343 338.882C624.652 338.528 624.84 338.105 624.909 337.613L627.88 337.202C627.759 338.302 627.374 339.244 626.725 340.028C626.089 340.806 625.182 341.429 624.005 341.895Z" fill="#303030"/>
<path d="M599.081 364.343L600.21 363.896C600.133 365.226 600.223 366.567 600.479 367.916C600.735 369.266 601.118 370.583 601.627 371.867C602.132 373.141 602.753 374.358 603.491 375.517C604.229 376.676 605.083 377.719 606.054 378.646L604.926 379.093C603.874 378.198 602.96 377.179 602.182 376.036C601.414 374.889 600.777 373.678 600.272 372.404C599.763 371.12 599.396 369.797 599.17 368.435C598.954 367.07 598.924 365.706 599.081 364.343ZM602.562 365.75L602.085 364.546L609.46 361.624L608.593 374.157L607.253 374.688L608.026 363.585L602.562 365.75ZM620.732 365.341C620.971 365.943 621.084 366.508 621.073 367.035C621.061 367.562 620.944 368.044 620.722 368.48C620.5 368.916 620.198 369.297 619.817 369.622C619.435 369.948 618.988 370.212 618.476 370.415C617.834 370.669 617.232 370.791 616.671 370.782C616.12 370.768 615.608 370.663 615.136 370.467C614.67 370.257 614.242 369.997 613.852 369.687L614.643 368.52C614.923 368.758 615.247 368.96 615.615 369.128C615.99 369.281 616.386 369.374 616.805 369.405C617.22 369.427 617.618 369.362 617.999 369.211C618.501 369.012 618.888 368.743 619.159 368.403C619.431 368.063 619.585 367.677 619.623 367.244C619.67 366.807 619.599 366.348 619.408 365.866C619.217 365.385 618.945 365.005 618.591 364.727C618.247 364.445 617.855 364.276 617.414 364.218C616.983 364.157 616.542 364.215 616.091 364.394C615.76 364.526 615.465 364.677 615.208 364.849C614.957 365.006 614.719 365.211 614.494 365.462C614.275 365.7 614.034 366.016 613.772 366.41L612.932 360.248L617.899 358.279L618.346 359.408L614.373 360.983L614.769 364.047C614.968 363.818 615.186 363.621 615.423 363.457C615.666 363.28 615.918 363.139 616.179 363.036C616.781 362.797 617.378 362.735 617.969 362.849C618.57 362.959 619.111 363.227 619.592 363.651C620.074 364.076 620.454 364.639 620.732 365.341ZM620.461 359.876C620.282 359.425 620.217 358.981 620.264 358.544C620.322 358.103 620.489 357.706 620.767 357.352C621.041 356.988 621.413 356.713 621.885 356.526C622.367 356.335 622.827 356.28 623.265 356.362C623.71 356.43 624.099 356.606 624.433 356.892C624.777 357.174 625.038 357.54 625.217 357.992C625.392 358.433 625.453 358.879 625.399 359.33C625.352 359.767 625.191 360.167 624.917 360.531C624.65 360.881 624.275 361.151 623.793 361.342C623.322 361.529 622.864 361.589 622.419 361.521C621.97 361.443 621.574 361.264 621.23 360.982C620.892 360.686 620.636 360.318 620.461 359.876ZM621.53 359.453C621.629 359.704 621.773 359.92 621.961 360.101C622.158 360.278 622.379 360.394 622.621 360.448C622.873 360.499 623.135 360.471 623.406 360.364C623.687 360.253 623.897 360.094 624.036 359.888C624.175 359.682 624.251 359.449 624.263 359.188C624.286 358.924 624.248 358.666 624.149 358.415C624.045 358.154 623.897 357.94 623.703 357.773C623.515 357.592 623.3 357.474 623.058 357.42C622.815 357.365 622.554 357.393 622.273 357.504C622.002 357.612 621.792 357.77 621.643 357.98C621.504 358.186 621.423 358.421 621.4 358.686C621.383 358.936 621.426 359.192 621.53 359.453ZM628.34 363.72C628.161 363.268 628.096 362.824 628.143 362.387C628.201 361.947 628.368 361.549 628.646 361.195C628.92 360.832 629.292 360.556 629.764 360.369C630.246 360.179 630.706 360.124 631.144 360.205C631.589 360.273 631.978 360.45 632.312 360.735C632.656 361.017 632.917 361.384 633.096 361.835C633.271 362.277 633.332 362.723 633.278 363.174C633.231 363.61 633.07 364.011 632.796 364.374C632.529 364.724 632.154 364.995 631.673 365.186C631.201 365.372 630.743 365.432 630.298 365.365C629.849 365.287 629.453 365.107 629.109 364.826C628.772 364.53 628.515 364.161 628.34 363.72ZM629.409 363.296C629.508 363.547 629.652 363.763 629.84 363.944C630.038 364.121 630.258 364.237 630.5 364.292C630.752 364.343 631.014 364.315 631.285 364.207C631.566 364.096 631.776 363.937 631.915 363.731C632.054 363.525 632.13 363.292 632.142 363.032C632.165 362.767 632.127 362.509 632.028 362.259C631.924 361.998 631.776 361.784 631.582 361.617C631.394 361.436 631.179 361.318 630.937 361.263C630.694 361.208 630.433 361.236 630.152 361.348C629.881 361.455 629.671 361.614 629.522 361.824C629.383 362.03 629.302 362.265 629.279 362.529C629.262 362.78 629.306 363.035 629.409 363.296ZM627.513 354.47L628.642 354.022L626.044 367.242L624.915 367.689L627.513 354.47ZM642.806 364.082L641.677 364.53C641.76 363.185 641.668 361.84 641.402 360.494C641.146 359.145 640.765 357.833 640.26 356.559C639.751 355.274 639.128 354.053 638.39 352.894C637.662 351.731 636.81 350.693 635.833 349.78L636.961 349.333C638.009 350.218 638.916 351.234 639.684 352.381C640.462 353.524 641.106 354.737 641.615 356.022C642.12 357.296 642.48 358.616 642.696 359.982C642.922 361.343 642.959 362.71 642.806 364.082Z" fill="#404040"/>
<path d="M467.899 275.94L467.202 274.114L472.73 272.003C473.088 272.846 473.294 273.691 473.349 274.539C473.414 275.383 473.313 276.193 473.046 276.968C472.786 277.728 472.361 278.41 471.771 279.015C471.182 279.619 470.428 280.097 469.51 280.447C468.644 280.778 467.788 280.939 466.941 280.932C466.105 280.921 465.314 280.758 464.569 280.442C463.835 280.123 463.18 279.657 462.604 279.045C462.038 278.429 461.59 277.688 461.26 276.823C460.93 275.957 460.777 275.11 460.803 274.28C460.836 273.435 461.027 272.653 461.376 271.932C461.725 271.211 462.215 270.571 462.846 270.012C463.477 269.453 464.225 269.008 465.09 268.678C465.859 268.384 466.589 268.228 467.279 268.209C467.98 268.187 468.639 268.278 469.256 268.483C469.88 268.673 470.462 268.965 471.004 269.358L469.483 271.242C469.018 270.856 468.477 270.61 467.861 270.502C467.251 270.38 466.589 270.456 465.873 270.729C465.2 270.986 464.645 271.375 464.208 271.897C463.766 272.408 463.488 273.01 463.373 273.703C463.269 274.391 463.366 275.125 463.663 275.905C463.957 276.674 464.376 277.291 464.921 277.756C465.462 278.211 466.065 278.494 466.733 278.607C467.41 278.715 468.096 278.637 468.791 278.372C469.25 278.197 469.639 277.981 469.957 277.725C470.271 277.458 470.514 277.163 470.685 276.841C470.866 276.515 470.993 276.173 471.064 275.815C471.136 275.457 471.154 275.089 471.12 274.711L467.899 275.94ZM472.325 264.704L474.408 263.909L479.179 276.407L477.097 277.202L472.325 264.704ZM479.724 271.977C479.431 271.208 479.35 270.467 479.482 269.756C479.625 269.04 479.94 268.406 480.427 267.853C480.924 267.296 481.562 266.869 482.342 266.571C483.122 266.274 483.878 266.169 484.609 266.257C485.351 266.341 486.008 266.604 486.581 267.046C487.164 267.484 487.603 268.088 487.896 268.857C488.186 269.616 488.261 270.358 488.122 271.084C487.99 271.795 487.675 272.43 487.178 272.987C486.691 273.539 486.058 273.965 485.278 274.262C484.499 274.56 483.738 274.667 482.996 274.583C482.265 274.495 481.607 274.232 481.024 273.794C480.447 273.341 480.014 272.735 479.724 271.977ZM481.839 271.169C481.998 271.586 482.225 271.922 482.518 272.177C482.818 272.417 483.152 272.571 483.52 272.639C483.885 272.695 484.248 272.655 484.612 272.516C484.975 272.377 485.273 272.165 485.507 271.88C485.737 271.584 485.878 271.249 485.931 270.874C485.99 270.484 485.94 270.081 485.781 269.665C485.622 269.248 485.391 268.914 485.087 268.663C484.793 268.408 484.465 268.252 484.1 268.195C483.736 268.138 483.372 268.179 483.009 268.318C482.646 268.457 482.347 268.668 482.113 268.953C481.88 269.239 481.733 269.576 481.674 269.966C481.625 270.351 481.68 270.753 481.839 271.169ZM488.524 258.52L493.295 271.018L491.212 271.813L486.441 259.316L488.524 258.52ZM497.945 265.021C498.255 265.833 498.355 266.59 498.244 267.293C498.133 267.997 497.862 268.602 497.431 269.109C497.011 269.612 496.492 269.982 495.872 270.218C495.263 270.451 494.659 270.504 494.06 270.377C493.472 270.247 492.929 269.946 492.431 269.476C491.933 269.005 491.533 268.374 491.232 267.584C490.926 266.783 490.804 266.046 490.865 265.374C490.923 264.691 491.127 264.105 491.479 263.616C491.842 263.122 492.327 262.76 492.936 262.527C493.556 262.291 494.19 262.22 494.838 262.315C495.497 262.406 496.102 262.677 496.653 263.127C497.201 263.567 497.631 264.198 497.945 265.021ZM495.798 265.84C495.631 265.403 495.395 265.058 495.091 264.807C494.788 264.556 494.448 264.404 494.073 264.351C493.709 264.294 493.345 264.335 492.982 264.474C492.672 264.592 492.4 264.794 492.166 265.079C491.939 265.349 491.79 265.681 491.721 266.075C491.661 266.465 491.717 266.884 491.889 267.333C492.06 267.782 492.297 268.131 492.601 268.383C492.916 268.63 493.25 268.784 493.604 268.844C493.964 268.89 494.299 268.854 494.609 268.736C494.972 268.597 495.271 268.386 495.504 268.101C495.749 267.811 495.901 267.472 495.96 267.082C496.019 266.692 495.965 266.278 495.798 265.84ZM501.899 265.108C501.981 265.322 502.106 265.489 502.274 265.608C502.438 265.717 502.627 265.779 502.841 265.795C503.062 265.797 503.284 265.755 503.509 265.669C503.829 265.547 504.093 265.373 504.3 265.147C504.504 264.91 504.639 264.638 504.705 264.331C504.767 264.014 504.731 263.679 504.597 263.326L505.22 264.19C505.4 264.66 505.417 265.106 505.272 265.528C505.138 265.947 504.893 266.315 504.538 266.635C504.193 266.95 503.797 267.193 503.348 267.364C502.889 267.54 502.427 267.612 501.962 267.581C501.498 267.551 501.077 267.411 500.701 267.163C500.331 266.9 500.051 266.518 499.859 266.016C499.586 265.3 499.621 264.638 499.964 264.03C500.307 263.422 500.938 262.942 501.856 262.591C502.326 262.412 502.756 262.303 503.145 262.265C503.545 262.222 503.894 262.223 504.193 262.269C504.492 262.314 504.719 262.38 504.875 262.467L505.242 263.429C504.872 263.325 504.485 263.289 504.081 263.321C503.688 263.349 503.293 263.438 502.898 263.589C502.578 263.711 502.332 263.854 502.162 264.017C501.987 264.169 501.881 264.338 501.842 264.525C501.799 264.7 501.818 264.895 501.899 265.108ZM499.954 262.418L498.647 261.302C498.954 260.952 499.351 260.58 499.837 260.187C500.319 259.782 500.902 259.45 501.585 259.189C502.216 258.948 502.811 258.825 503.372 258.819C503.932 258.813 504.419 258.933 504.831 259.179C505.239 259.415 505.539 259.784 505.731 260.286L507.725 265.51L505.722 266.274L503.893 261.483C503.816 261.28 503.719 261.122 503.601 261.007C503.48 260.882 503.332 260.798 503.156 260.755C502.991 260.708 502.81 260.698 502.612 260.724C502.414 260.751 502.203 260.807 501.979 260.893C501.637 261.023 501.325 261.185 501.044 261.378C500.763 261.571 500.531 261.764 500.347 261.956C500.163 262.148 500.033 262.302 499.954 262.418ZM505.285 252.122L507.368 251.327L512.139 263.825L510.056 264.62L505.285 252.122ZM519.524 256.691C519.918 257.018 520.313 257.283 520.709 257.487C521.116 257.687 521.523 257.807 521.93 257.847C522.337 257.888 522.738 257.833 523.133 257.682C523.593 257.506 523.922 257.246 524.12 256.901C524.319 256.556 524.341 256.18 524.186 255.774C524.051 255.422 523.853 255.174 523.589 255.029C523.337 254.881 523.004 254.794 522.59 254.768C522.183 254.728 521.692 254.707 521.116 254.707C520.813 254.712 520.454 254.702 520.04 254.677C519.633 254.636 519.226 254.547 518.818 254.409C518.406 254.26 518.028 254.038 517.682 253.741C517.332 253.434 517.055 253.014 516.852 252.479C516.607 251.839 516.557 251.227 516.702 250.646C516.854 250.049 517.161 249.522 517.622 249.064C518.091 248.592 518.672 248.223 519.366 247.958C520.082 247.685 520.743 247.573 521.35 247.623C521.963 247.658 522.512 247.798 522.996 248.041C523.487 248.27 523.904 248.545 524.248 248.867L522.832 250.545C522.581 250.335 522.307 250.164 522.012 250.032C521.724 249.885 521.421 249.799 521.105 249.772C520.785 249.736 520.454 249.782 520.112 249.913C519.664 250.084 519.368 250.319 519.225 250.619C519.079 250.907 519.058 251.19 519.164 251.468C519.27 251.746 519.455 251.957 519.718 252.101C519.977 252.235 520.33 252.326 520.777 252.376C521.221 252.415 521.762 252.422 522.402 252.399C522.814 252.388 523.222 252.416 523.627 252.482C524.042 252.543 524.436 252.662 524.809 252.838C525.189 252.999 525.525 253.238 525.817 253.555C526.116 253.857 526.357 254.248 526.54 254.729C526.748 255.273 526.827 255.8 526.777 256.309C526.726 256.818 526.571 257.293 526.311 257.735C526.048 258.166 525.709 258.546 525.296 258.875C524.898 259.211 524.443 259.477 523.93 259.672C523.246 259.933 522.556 260.05 521.86 260.022C521.171 259.979 520.522 259.817 519.912 259.535C519.303 259.254 518.776 258.898 518.33 258.469L519.524 256.691ZM526.057 250.067L530.607 248.33L531.274 250.076L526.723 251.813L526.057 250.067ZM526.344 247.02L528.347 246.255L532.139 256.19L530.136 256.954L526.344 247.02ZM535.526 252.272C535.607 252.485 535.732 252.652 535.9 252.771C536.064 252.88 536.253 252.942 536.467 252.959C536.688 252.96 536.91 252.918 537.135 252.832C537.455 252.71 537.719 252.536 537.927 252.31C538.13 252.073 538.265 251.801 538.331 251.494C538.394 251.177 538.358 250.842 538.223 250.489L538.846 251.353C539.026 251.823 539.043 252.269 538.898 252.691C538.764 253.11 538.52 253.478 538.164 253.798C537.819 254.113 537.423 254.356 536.974 254.527C536.515 254.703 536.053 254.775 535.588 254.744C535.124 254.714 534.703 254.574 534.327 254.326C533.958 254.063 533.677 253.681 533.485 253.179C533.212 252.463 533.247 251.801 533.59 251.193C533.933 250.585 534.564 250.105 535.483 249.755C535.953 249.575 536.382 249.466 536.771 249.428C537.171 249.385 537.521 249.387 537.819 249.432C538.118 249.477 538.345 249.543 538.501 249.63L538.868 250.592C538.498 250.488 538.111 250.452 537.707 250.484C537.314 250.512 536.92 250.601 536.524 250.752C536.204 250.874 535.958 251.017 535.788 251.18C535.614 251.332 535.507 251.502 535.468 251.688C535.425 251.863 535.444 252.058 535.526 252.272ZM533.581 249.581L532.273 248.465C532.58 248.115 532.977 247.743 533.463 247.35C533.945 246.945 534.528 246.613 535.212 246.352C535.842 246.111 536.437 245.988 536.998 245.982C537.559 245.976 538.045 246.096 538.457 246.343C538.866 246.578 539.166 246.947 539.357 247.449L541.351 252.673L539.348 253.437L537.52 248.647C537.442 248.444 537.345 248.285 537.228 248.171C537.106 248.045 536.958 247.961 536.783 247.918C536.618 247.871 536.436 247.861 536.238 247.887C536.04 247.914 535.829 247.97 535.605 248.056C535.263 248.186 534.952 248.348 534.67 248.541C534.389 248.734 534.157 248.927 533.973 249.119C533.79 249.312 533.659 249.466 533.581 249.581ZM539.923 244.773L544.474 243.036L545.141 244.783L540.59 246.52L539.923 244.773ZM540.21 241.726L542.213 240.962L546.006 250.896L544.003 251.661L540.21 241.726ZM544.794 239.646C544.664 239.304 544.681 238.98 544.845 238.672C545.005 238.354 545.256 238.13 545.597 237.999C545.939 237.869 546.271 237.871 546.591 238.005C546.918 238.125 547.147 238.356 547.278 238.698C547.404 239.029 547.387 239.354 547.227 239.672C547.078 239.986 546.832 240.208 546.491 240.339C546.149 240.469 545.812 240.469 545.481 240.339C545.149 240.208 544.921 239.977 544.794 239.646ZM546.107 242.413L548.126 241.642L550.94 249.012L548.921 249.783L546.107 242.413ZM552.939 245.33C553.359 245.5 553.737 245.625 554.074 245.705C554.406 245.774 554.706 245.806 554.974 245.802C555.252 245.794 555.498 245.749 555.712 245.667C555.989 245.561 556.18 245.421 556.285 245.246C556.386 245.061 556.395 244.861 556.314 244.648C556.24 244.455 556.115 244.32 555.938 244.24C555.767 244.146 555.544 244.091 555.269 244.074C554.993 244.057 554.651 244.059 554.243 244.08C553.852 244.082 553.464 244.059 553.078 244.01C552.688 243.951 552.332 243.818 552.008 243.611C551.691 243.39 551.444 243.049 551.269 242.59C551.102 242.152 551.079 241.739 551.2 241.35C551.316 240.95 551.544 240.6 551.882 240.3C552.227 239.985 552.645 239.733 553.136 239.546C553.553 239.387 553.963 239.291 554.367 239.259C554.771 239.228 555.162 239.243 555.541 239.307C555.917 239.359 556.266 239.458 556.591 239.604L556.167 241.234C555.79 241.048 555.38 240.935 554.937 240.896C554.504 240.853 554.112 240.899 553.759 241.034C553.524 241.123 553.356 241.243 553.253 241.392C553.158 241.526 553.145 241.684 553.214 241.866C553.275 242.026 553.394 242.146 553.571 242.225C553.755 242.289 553.988 242.323 554.271 242.325C554.564 242.324 554.897 242.331 555.27 242.347C555.723 242.346 556.151 242.378 556.556 242.444C556.967 242.495 557.327 242.621 557.636 242.821C557.945 243.022 558.185 243.346 558.356 243.795C558.638 244.532 558.617 245.2 558.296 245.8C557.97 246.39 557.385 246.846 556.541 247.168C556.018 247.368 555.511 247.482 555.02 247.51C554.54 247.534 554.08 247.501 553.642 247.412C553.211 247.307 552.805 247.174 552.425 247.013L552.939 245.33ZM557.226 238.168L561.777 236.431L562.443 238.177L557.893 239.914L557.226 238.168ZM557.513 235.121L559.516 234.356L563.309 244.291L561.306 245.055L557.513 235.121ZM562.097 233.041C561.967 232.699 561.983 232.374 562.148 232.067C562.308 231.749 562.559 231.524 562.9 231.394C563.242 231.263 563.573 231.265 563.894 231.4C564.221 231.52 564.45 231.751 564.581 232.093C564.707 232.424 564.69 232.748 564.53 233.066C564.381 233.38 564.135 233.603 563.793 233.733C563.452 233.864 563.115 233.864 562.784 233.733C562.452 233.603 562.224 233.372 562.097 233.041ZM563.41 235.807L565.429 235.036L568.243 242.407L566.224 243.178L563.41 235.807ZM571.01 237.128C571.173 237.556 571.412 237.893 571.726 238.14C572.041 238.387 572.393 238.54 572.783 238.599C573.183 238.655 573.581 238.607 573.976 238.456C574.297 238.333 574.588 238.167 574.851 237.957C575.109 237.736 575.323 237.495 575.493 237.234C575.669 236.959 575.777 236.679 575.815 236.395L576.629 238.526C576.462 238.859 576.197 239.175 575.833 239.473C575.476 239.756 575.025 240.001 574.481 240.209C573.701 240.507 572.935 240.616 572.182 240.536C571.44 240.452 570.778 240.191 570.194 239.753C569.617 239.3 569.184 238.694 568.895 237.936C568.601 237.167 568.52 236.426 568.653 235.715C568.796 235 569.116 234.363 569.613 233.806C570.121 233.245 570.765 232.816 571.545 232.518C572.089 232.31 572.591 232.198 573.05 232.182C573.516 232.151 573.919 232.199 574.261 232.326L575.075 234.457C574.857 234.271 574.587 234.141 574.266 234.068C573.951 233.98 573.625 233.945 573.289 233.963C572.954 233.981 572.636 234.047 572.337 234.162C571.942 234.313 571.615 234.547 571.358 234.866C571.107 235.17 570.946 235.519 570.876 235.913C570.806 236.307 570.851 236.712 571.01 237.128Z" fill="#353E6C"/>
<g filter="url(#filter4_bdi_0_1)">
<rect x="105.383" y="362.923" width="301.843" height="336.15" rx="34.3016" transform="rotate(-21.456 105.383 362.923)" fill="url(#paint8_linear_0_1)" fill-opacity="0.93" shape-rendering="crispEdges"/>
</g>
<path d="M146.245 386.82L145.075 388.614C145.527 389.037 146.059 389.386 146.672 389.659C147.285 389.932 147.937 390.085 148.627 390.118C149.323 390.137 150.011 390.011 150.691 389.74C151.201 389.537 151.653 389.266 152.046 388.925C152.455 388.59 152.788 388.205 153.046 387.771C153.299 387.325 153.448 386.848 153.491 386.338C153.535 385.829 153.449 385.303 153.233 384.761C153.043 384.283 152.797 383.895 152.494 383.597C152.197 383.285 151.858 383.05 151.476 382.894C151.101 382.724 150.705 382.611 150.289 382.554C149.883 382.494 149.475 382.472 149.063 382.488C148.424 382.521 147.882 382.521 147.439 382.488C146.991 382.445 146.636 382.358 146.375 382.228C146.11 382.087 145.923 381.879 145.813 381.602C145.703 381.326 145.72 381.043 145.863 380.752C146.001 380.451 146.294 380.212 146.74 380.034C147.08 379.899 147.41 379.848 147.731 379.88C148.047 379.902 148.35 379.985 148.641 380.127C148.938 380.255 149.214 380.423 149.468 380.629L150.86 378.931C150.513 378.614 150.092 378.345 149.597 378.123C149.11 377.886 148.559 377.754 147.945 377.728C147.338 377.686 146.679 377.807 145.967 378.09C145.276 378.364 144.7 378.741 144.238 379.22C143.783 379.684 143.484 380.215 143.34 380.814C143.203 381.397 143.261 382.008 143.515 382.645C143.726 383.177 144.008 383.593 144.362 383.896C144.712 384.187 145.094 384.405 145.507 384.548C145.917 384.68 146.326 384.764 146.733 384.799C147.147 384.819 147.506 384.824 147.81 384.814C148.385 384.806 148.876 384.82 149.284 384.855C149.698 384.875 150.032 384.957 150.287 385.102C150.552 385.243 150.754 385.489 150.894 385.839C151.054 386.243 151.037 386.619 150.843 386.967C150.649 387.314 150.324 387.579 149.867 387.761C149.474 387.917 149.074 387.978 148.666 387.943C148.259 387.908 147.85 387.794 147.441 387.6C147.042 387.401 146.643 387.142 146.245 386.82ZM152.686 380.107L153.376 381.844L157.902 380.044L157.212 378.307L152.686 380.107ZM152.931 377.056L156.859 386.937L158.852 386.145L154.923 376.264L152.931 377.056ZM162.184 382.181C162.099 381.968 162.078 381.774 162.118 381.598C162.155 381.411 162.259 381.24 162.431 381.086C162.599 380.921 162.843 380.775 163.162 380.648C163.555 380.491 163.948 380.397 164.341 380.364C164.744 380.326 165.132 380.357 165.503 380.455L165.123 379.499C164.966 379.414 164.738 379.351 164.438 379.31C164.139 379.269 163.79 379.272 163.391 379.32C163.002 379.364 162.574 379.479 162.106 379.665C161.193 380.028 160.568 380.516 160.234 381.129C159.899 381.742 159.873 382.404 160.156 383.116C160.355 383.616 160.641 383.994 161.014 384.252C161.393 384.495 161.816 384.628 162.281 384.652C162.746 384.677 163.207 384.598 163.663 384.416C164.11 384.239 164.503 383.99 164.843 383.67C165.194 383.346 165.434 382.974 165.562 382.554C165.701 382.13 165.678 381.684 165.492 381.216L164.857 380.361C164.996 380.712 165.037 381.047 164.979 381.365C164.916 381.673 164.785 381.946 164.585 382.186C164.381 382.415 164.119 382.593 163.801 382.719C163.578 382.808 163.356 382.853 163.135 382.855C162.92 382.842 162.73 382.782 162.565 382.675C162.395 382.558 162.268 382.393 162.184 382.181ZM160.202 379.517C160.279 379.401 160.408 379.245 160.588 379.05C160.769 378.855 160.999 378.659 161.278 378.462C161.556 378.265 161.865 378.099 162.205 377.964C162.429 377.875 162.639 377.816 162.836 377.787C163.034 377.758 163.215 377.766 163.381 377.811C163.557 377.851 163.707 377.933 163.829 378.057C163.948 378.169 164.048 378.327 164.128 378.529L166.022 383.294L168.015 382.502L165.949 377.306C165.75 376.807 165.445 376.442 165.034 376.212C164.618 375.971 164.13 375.858 163.57 375.871C163.009 375.885 162.415 376.017 161.789 376.266C161.109 376.536 160.53 376.877 160.054 377.288C159.573 377.688 159.182 378.065 158.879 378.419L160.202 379.517ZM166.478 374.623L167.169 376.36L171.695 374.56L171.004 372.823L166.478 374.623ZM166.723 371.572L170.652 381.453L172.644 380.661L168.716 370.78L166.723 371.572ZM171.278 369.429C171.409 369.758 171.641 369.986 171.974 370.112C172.307 370.238 172.644 370.233 172.984 370.098C173.324 369.963 173.566 369.737 173.711 369.421C173.867 369.101 173.879 368.776 173.748 368.447C173.613 368.107 173.381 367.879 173.052 367.764C172.73 367.634 172.399 367.636 172.059 367.771C171.719 367.907 171.471 368.134 171.315 368.455C171.155 368.764 171.143 369.089 171.278 369.429ZM172.629 372.177L175.544 379.508L177.552 378.71L174.637 371.379L172.629 372.177ZM179.501 375.001L179.01 376.691C179.392 376.846 179.799 376.974 180.232 377.072C180.671 377.156 181.131 377.182 181.611 377.151C182.101 377.116 182.607 376.995 183.128 376.788C183.967 376.455 184.545 375.991 184.863 375.397C185.176 374.793 185.187 374.124 184.896 373.391C184.718 372.944 184.474 372.623 184.162 372.427C183.85 372.231 183.489 372.111 183.077 372.065C182.671 372.005 182.243 371.979 181.79 371.986C181.417 371.975 181.083 371.972 180.79 371.978C180.508 371.979 180.274 371.949 180.09 371.887C179.912 371.81 179.791 371.692 179.728 371.533C179.656 371.352 179.667 371.194 179.76 371.058C179.86 370.908 180.027 370.786 180.261 370.693C180.612 370.554 181.004 370.502 181.437 370.539C181.88 370.572 182.292 370.679 182.672 370.86L183.073 369.224C182.747 369.083 182.395 368.989 182.02 368.942C181.64 368.884 181.248 368.873 180.844 368.911C180.441 368.948 180.032 369.049 179.618 369.214C179.129 369.408 178.714 369.665 178.374 369.985C178.04 370.29 177.817 370.643 177.706 371.044C177.591 371.435 177.62 371.848 177.793 372.284C177.974 372.74 178.225 373.077 178.546 373.295C178.872 373.497 179.231 373.625 179.621 373.679C180.008 373.722 180.396 373.74 180.787 373.732C181.194 373.706 181.536 373.699 181.812 373.712C182.088 373.726 182.312 373.778 182.484 373.87C182.662 373.947 182.789 374.081 182.865 374.272C182.95 374.484 182.943 374.684 182.845 374.871C182.743 375.047 182.553 375.189 182.277 375.299C182.065 375.384 181.819 375.432 181.541 375.444C181.274 375.452 180.973 375.424 180.64 375.36C180.303 375.285 179.923 375.165 179.501 375.001ZM183.689 367.78L184.379 369.517L188.905 367.718L188.215 365.98L183.689 367.78ZM183.934 364.729L187.862 374.611L189.855 373.818L185.926 363.937L183.934 364.729ZM188.488 362.586C188.619 362.916 188.851 363.143 189.185 363.269C189.518 363.395 189.854 363.391 190.194 363.255C190.534 363.12 190.777 362.895 190.922 362.579C191.077 362.258 191.09 361.933 190.959 361.604C190.824 361.264 190.592 361.036 190.263 360.921C189.94 360.791 189.609 360.793 189.269 360.929C188.929 361.064 188.681 361.292 188.526 361.612C188.366 361.921 188.353 362.246 188.488 362.586ZM189.839 365.334L192.754 372.666L194.762 371.867L191.848 364.536L189.839 365.334ZM197.456 366.551C197.292 366.137 197.242 365.732 197.306 365.337C197.371 364.942 197.526 364.591 197.773 364.284C198.027 363.962 198.35 363.723 198.743 363.566C199.04 363.448 199.357 363.378 199.692 363.355C200.028 363.332 200.354 363.363 200.67 363.446C200.993 363.515 201.264 363.641 201.485 363.824L200.642 361.704C200.298 361.582 199.894 361.54 199.429 361.577C198.97 361.6 198.47 361.719 197.928 361.934C197.152 362.242 196.514 362.681 196.014 363.249C195.525 363.812 195.213 364.453 195.08 365.17C194.958 365.883 195.049 366.622 195.353 367.387C195.653 368.142 196.094 368.741 196.677 369.186C197.266 369.617 197.933 369.868 198.676 369.942C199.429 370.012 200.194 369.892 200.969 369.584C201.511 369.368 201.959 369.117 202.312 368.829C202.671 368.526 202.932 368.207 203.094 367.872L202.251 365.752C202.217 366.036 202.113 366.318 201.941 366.595C201.774 366.858 201.564 367.102 201.308 367.327C201.049 367.54 200.76 367.711 200.441 367.837C200.048 367.994 199.651 368.047 199.25 367.997C198.859 367.944 198.505 367.795 198.187 367.553C197.869 367.31 197.625 366.976 197.456 366.551Z" fill="#353E6C"/>
<g filter="url(#filter5_d_0_1)">
<rect x="148.752" y="405.177" width="257.262" height="257.262" rx="25.7262" transform="rotate(-21.6824 148.752 405.177)" fill="white"/>
</g>
<rect x="390.154" y="408.863" width="2.57262" height="111.48" rx="1.28631" transform="rotate(-21.6824 390.154 408.863)" fill="#EFF3FE"/>
<rect x="417.871" y="480.897" width="4.2877" height="34.3016" rx="2.14385" transform="rotate(-21.6824 417.871 480.897)" fill="#23C0F7"/>
<path d="M437.217 530.109L438.007 529.795L435.403 523.248L434.605 523.565L433.36 525.51L433.687 526.331L434.94 524.435L434.959 524.428L437.217 530.109ZM438.24 524.311L439.03 523.997C438.737 523.262 439.125 522.467 439.933 522.146C440.682 521.848 441.366 522.169 441.623 522.814C441.839 523.358 441.776 523.793 441.257 525.066L439.908 528.387L440.132 528.95L444.451 527.233L444.163 526.507L440.964 527.778L440.957 527.76L441.878 525.544C442.59 523.832 442.706 523.161 442.42 522.439C442.024 521.445 440.861 520.952 439.65 521.433C438.388 521.935 437.784 523.163 438.24 524.311Z" fill="#BACCFD"/>
<rect x="375.013" y="414.883" width="2.57262" height="111.48" rx="1.28631" transform="rotate(-21.6824 375.013 414.883)" fill="#EFF3FE"/>
<rect x="402.73" y="486.917" width="4.2877" height="34.3016" rx="2.14385" transform="rotate(-21.6824 402.73 486.917)" fill="#23C0F7"/>
<path d="M422.873 535.812L423.663 535.498L421.059 528.95L420.261 529.268L419.016 531.213L419.343 532.034L420.596 530.138L420.615 530.131L422.873 535.812ZM427.458 533.989L428.247 533.675L425.644 527.128L424.845 527.445L423.601 529.39L423.928 530.211L425.181 528.315L425.199 528.308L427.458 533.989Z" fill="#BACCFD"/>
<rect x="360.671" y="420.586" width="2.57262" height="111.48" rx="1.28631" transform="rotate(-21.6824 360.671 420.586)" fill="#EFF3FE"/>
<rect x="385.22" y="484.652" width="4.2877" height="42.877" rx="2.14385" transform="rotate(-21.6824 385.22 484.652)" fill="#23C0F7"/>
<path d="M407.735 541.832L408.524 541.518L405.921 534.97L405.122 535.288L403.878 537.233L404.204 538.054L405.458 536.158L405.476 536.151L407.735 541.832ZM412.984 539.871C414.508 539.264 414.864 537.594 414.041 535.525C413.224 533.47 411.814 532.501 410.294 533.105C408.774 533.71 408.409 535.395 409.224 537.445C410.047 539.514 411.455 540.478 412.984 539.871ZM412.701 539.158C411.675 539.566 410.693 538.748 410.044 537.114C409.409 535.517 409.567 534.225 410.579 533.822C411.591 533.42 412.581 534.245 413.222 535.856C413.871 537.49 413.722 538.752 412.701 539.158Z" fill="#BACCFD"/>
<rect x="344.748" y="426.922" width="2.57262" height="111.48" rx="1.28631" transform="rotate(-21.6824 344.748 426.922)" fill="#EFF3FE"/>
<rect x="380.386" y="518.878" width="4.2877" height="12.8631" rx="2.14385" transform="rotate(-21.6824 380.386 518.878)" fill="#23C0F7"/>
<path fill-rule="evenodd" clip-rule="evenodd" d="M181.001 438.285C180.819 438.217 180.727 438.015 180.794 437.833L181.895 434.871C181.963 434.689 182.165 434.596 182.347 434.664C182.529 434.731 182.621 434.934 182.554 435.115L181.748 437.283L192.471 432.372C192.647 432.292 192.856 432.369 192.937 432.545C193.017 432.722 192.94 432.93 192.764 433.011L182.04 437.922L184.208 438.728C184.39 438.795 184.482 438.997 184.415 439.179C184.347 439.361 184.145 439.454 183.963 439.386L181.001 438.285Z" fill="#121212"/>
<path fill-rule="evenodd" clip-rule="evenodd" d="M386.392 358.382C386.456 358.198 386.358 357.998 386.175 357.935L383.186 356.908C383.002 356.845 382.803 356.942 382.74 357.125C382.676 357.309 382.774 357.509 382.957 357.572L385.144 358.324L374.546 363.499C374.372 363.584 374.299 363.794 374.385 363.968C374.47 364.142 374.68 364.215 374.854 364.13L385.453 358.955L384.701 361.142C384.638 361.325 384.735 361.525 384.919 361.588C385.102 361.651 385.302 361.554 385.365 361.37L386.392 358.382Z" fill="#121212"/>
<path d="M218.04 421.974C218.763 421.849 219.427 421.959 220.031 422.302C220.646 422.642 221.084 423.147 221.345 423.817C221.703 424.738 221.68 425.591 221.274 426.377C220.864 427.151 220.073 427.767 218.9 428.224L214.487 429.942L210.168 418.853L214.503 417.165C215.613 416.733 216.559 416.654 217.341 416.928C218.13 417.188 218.693 417.752 219.032 418.621C219.305 419.323 219.344 419.965 219.149 420.547C218.95 421.119 218.58 421.595 218.04 421.974ZM213.818 422.931L216.033 422.068C216.661 421.824 217.081 421.492 217.291 421.072C217.512 420.648 217.52 420.175 217.317 419.651C217.117 419.138 216.792 418.8 216.343 418.637C215.904 418.471 215.35 418.518 214.679 418.779L212.528 419.617L213.818 422.931ZM217.964 426.888C218.645 426.623 219.109 426.267 219.357 425.821C219.612 425.36 219.631 424.852 219.415 424.297C219.199 423.742 218.841 423.381 218.342 423.213C217.843 423.046 217.253 423.095 216.572 423.36L214.326 424.235L215.702 427.769L217.964 426.888ZM229.198 414.246L232.568 422.901L230.762 423.604L230.028 421.72C230.057 422.444 229.868 423.09 229.462 423.658C229.052 424.216 228.486 424.635 227.763 424.917C226.758 425.308 225.825 425.298 224.965 424.885C224.105 424.472 223.441 423.664 222.972 422.46L221.014 417.433L222.805 416.736L224.689 421.574C224.995 422.359 225.43 422.889 225.995 423.163C226.556 423.427 227.182 423.425 227.873 423.155C228.586 422.878 229.067 422.426 229.316 421.798C229.566 421.17 229.52 420.416 229.177 419.536L227.391 414.95L229.198 414.246ZM234.535 412.041C235.551 411.646 236.464 411.592 237.276 411.879C238.093 412.151 238.739 412.695 239.214 413.512L237.517 414.172C237.261 413.729 236.91 413.432 236.464 413.28C236.026 413.113 235.534 413.136 234.99 413.348C234.539 413.523 234.231 413.77 234.066 414.087C233.906 414.391 233.898 414.725 234.041 415.092C234.147 415.364 234.321 415.549 234.565 415.648C234.808 415.746 235.079 415.791 235.377 415.783C235.686 415.772 236.109 415.727 236.646 415.651C237.353 415.545 237.935 415.493 238.394 415.495C238.864 415.493 239.307 415.61 239.725 415.845C240.148 416.066 240.474 416.47 240.703 417.056C240.984 417.779 240.935 418.473 240.555 419.139C240.186 419.802 239.536 420.314 238.604 420.677C237.525 421.097 236.553 421.186 235.687 420.945C234.831 420.699 234.16 420.152 233.674 419.305L235.417 418.626C235.653 419.077 236.011 419.377 236.492 419.528C236.972 419.678 237.511 419.637 238.108 419.405C238.537 419.238 238.83 418.997 238.985 418.684C239.147 418.355 239.16 418.019 239.025 417.673C238.907 417.369 238.719 417.165 238.461 417.061C238.204 416.956 237.915 416.912 237.596 416.927C237.272 416.933 236.844 416.979 236.311 417.066C235.626 417.164 235.055 417.217 234.6 417.226C234.156 417.23 233.729 417.125 233.32 416.91C232.917 416.681 232.606 416.284 232.385 415.718C232.1 414.985 232.142 414.288 232.511 413.625C232.887 412.949 233.561 412.421 234.535 412.041ZM239.196 407.459C239.078 407.155 239.085 406.863 239.217 406.582C239.348 406.302 239.587 406.094 239.933 405.96C240.278 405.825 240.595 405.817 240.881 405.934C241.179 406.047 241.387 406.256 241.505 406.559C241.623 406.863 241.609 407.152 241.463 407.426C241.327 407.696 241.086 407.898 240.74 408.033C240.395 408.168 240.08 408.181 239.798 408.075C239.515 407.968 239.314 407.762 239.196 407.459ZM242.217 409.177L245.587 417.831L243.796 418.528L240.426 409.874L242.217 409.177ZM249.559 406.155C250.564 405.763 251.497 405.774 252.357 406.186C253.217 406.599 253.882 407.408 254.351 408.612L256.314 413.654L254.524 414.351L252.633 409.498C252.332 408.723 251.9 408.203 251.339 407.939C250.774 407.665 250.146 407.662 249.455 407.932C248.743 408.209 248.262 408.661 248.012 409.289C247.758 409.907 247.802 410.655 248.145 411.535L249.937 416.137L248.146 416.834L244.776 408.18L246.567 407.483L247.307 409.383C247.284 408.644 247.476 407.991 247.882 407.423C248.288 406.854 248.847 406.432 249.559 406.155ZM264.996 404.81C265.11 405.103 265.189 405.368 265.233 405.604L258.573 408.198C258.951 409.075 259.454 409.639 260.082 409.889C260.71 410.139 261.364 410.132 262.045 409.867C262.641 409.634 263.085 409.287 263.375 408.824C263.676 408.357 263.775 407.854 263.674 407.315L265.59 406.568C265.711 407.221 265.68 407.854 265.497 408.468C265.314 409.082 264.983 409.639 264.502 410.139C264.018 410.63 263.414 411.015 262.692 411.297C261.854 411.623 261.041 411.734 260.254 411.631C259.476 411.524 258.774 411.207 258.146 410.679C257.519 410.152 257.028 409.432 256.673 408.521C256.322 407.621 256.2 406.764 256.305 405.951C256.411 405.138 256.713 404.43 257.214 403.825C257.724 403.216 258.398 402.748 259.236 402.422C260.084 402.092 260.892 401.982 261.659 402.094C262.432 402.191 263.106 402.483 263.682 402.97C264.264 403.443 264.702 404.056 264.996 404.81ZM263.171 405.466C262.972 404.893 262.689 404.46 262.322 404.169C261.962 403.863 261.558 403.694 261.112 403.663C260.672 403.618 260.232 403.68 259.793 403.852C259.091 404.125 258.588 404.568 258.284 405.181C257.98 405.793 257.97 406.527 258.255 407.381L263.171 405.466ZM268.394 398.856C269.41 398.46 270.324 398.406 271.135 398.693C271.952 398.965 272.599 399.51 273.073 400.326L271.377 400.987C271.12 400.544 270.769 400.246 270.324 400.094C269.885 399.927 269.393 399.95 268.849 400.162C268.399 400.337 268.091 400.584 267.925 400.902C267.766 401.205 267.757 401.54 267.9 401.906C268.006 402.179 268.181 402.364 268.424 402.462C268.667 402.56 268.938 402.605 269.237 402.598C269.546 402.586 269.969 402.542 270.506 402.465C271.212 402.359 271.795 402.307 272.254 402.309C272.723 402.307 273.167 402.424 273.584 402.659C274.008 402.88 274.334 403.284 274.562 403.87C274.843 404.593 274.794 405.287 274.415 405.954C274.045 406.616 273.395 407.129 272.463 407.492C271.384 407.912 270.412 408.001 269.546 407.759C268.691 407.514 268.02 406.967 267.533 406.119L269.276 405.44C269.512 405.891 269.87 406.192 270.351 406.342C270.832 406.493 271.371 406.452 271.967 406.219C272.397 406.052 272.689 405.812 272.844 405.498C273.006 405.17 273.019 404.833 272.885 404.487C272.767 404.184 272.578 403.98 272.321 403.875C272.063 403.77 271.774 403.726 271.455 403.742C271.131 403.747 270.703 403.793 270.17 403.88C269.485 403.978 268.915 404.032 268.46 404.04C268.015 404.044 267.588 403.939 267.179 403.725C266.776 403.496 266.465 403.098 266.245 402.533C265.959 401.8 266.001 401.102 266.37 400.44C266.746 399.763 267.42 399.235 268.394 398.856ZM277.085 395.471C278.101 395.076 279.015 395.021 279.826 395.308C280.643 395.581 281.29 396.125 281.764 396.941L280.068 397.602C279.811 397.159 279.46 396.862 279.015 396.71C278.576 396.543 278.084 396.565 277.54 396.778C277.09 396.953 276.782 397.199 276.616 397.517C276.457 397.82 276.448 398.155 276.591 398.522C276.697 398.794 276.872 398.979 277.115 399.078C277.358 399.176 277.629 399.221 277.928 399.213C278.237 399.201 278.66 399.157 279.197 399.081C279.903 398.975 280.486 398.923 280.945 398.925C281.414 398.923 281.858 399.04 282.275 399.275C282.699 399.496 283.025 399.9 283.253 400.486C283.534 401.208 283.485 401.903 283.106 402.569C282.736 403.232 282.086 403.744 281.154 404.107C280.075 404.527 279.103 404.616 278.237 404.375C277.382 404.129 276.711 403.582 276.224 402.735L277.967 402.056C278.203 402.507 278.561 402.807 279.042 402.958C279.523 403.108 280.062 403.067 280.658 402.835C281.088 402.668 281.38 402.427 281.535 402.114C281.697 401.785 281.71 401.448 281.576 401.103C281.458 400.799 281.27 400.595 281.012 400.49C280.754 400.386 280.465 400.341 280.146 400.357C279.822 400.363 279.394 400.409 278.861 400.496C278.176 400.594 277.606 400.647 277.151 400.655C276.706 400.66 276.279 400.555 275.87 400.34C275.467 400.111 275.156 399.714 274.936 399.148C274.65 398.415 274.692 397.718 275.061 397.055C275.437 396.378 276.112 395.85 277.085 395.471ZM296.559 394.581C296.771 395.125 296.838 395.684 296.759 396.257C296.677 396.82 296.424 397.347 296 397.837C295.576 398.328 294.977 398.724 294.202 399.026C293.448 399.32 292.721 399.452 292.023 399.422C291.32 399.383 290.696 399.191 290.153 398.848C289.609 398.505 289.189 398.03 288.892 397.422L290.808 396.675C291.048 397.137 291.413 397.471 291.904 397.678C292.405 397.881 292.959 397.864 293.567 397.627C294.111 397.415 294.473 397.106 294.652 396.698C294.841 396.287 294.846 395.851 294.667 395.39C294.512 394.992 294.276 394.71 293.958 394.544C293.636 394.368 293.284 394.27 292.903 394.25C292.521 394.23 292.011 394.236 291.372 394.267C290.595 394.316 289.944 394.317 289.418 394.268C288.904 394.215 288.413 394.039 287.946 393.738C287.479 393.438 287.113 392.947 286.848 392.266C286.616 391.669 286.558 391.089 286.676 390.524C286.794 389.96 287.078 389.451 287.529 388.998C287.976 388.535 288.555 388.165 289.267 387.887C290.398 387.447 291.399 387.371 292.271 387.658C293.153 387.942 293.813 388.505 294.25 389.348L292.318 390.1C292.081 389.71 291.744 389.431 291.305 389.265C290.872 389.083 290.379 389.101 289.824 389.317C289.321 389.512 288.969 389.8 288.767 390.18C288.561 390.55 288.552 390.976 288.74 391.457C288.887 391.834 289.114 392.108 289.421 392.277C289.724 392.437 290.061 392.528 290.433 392.553C290.81 392.562 291.313 392.553 291.942 392.526C292.729 392.472 293.387 392.475 293.917 392.534C294.453 392.579 294.956 392.757 295.427 393.068C295.908 393.375 296.286 393.879 296.559 394.581ZM303.639 393.433L304.245 394.988L303.145 395.417C302.224 395.775 301.437 395.829 300.784 395.577C300.137 395.31 299.612 394.658 299.208 393.621L297.557 389.38L296.316 389.864L295.723 388.34L296.963 387.857L296.126 385.705L297.932 385.002L298.77 387.153L300.859 386.34L301.452 387.863L299.363 388.677L301.027 392.949C301.219 393.442 301.44 393.747 301.691 393.866C301.953 393.981 302.315 393.949 302.775 393.77L303.639 393.433ZM306.373 384.066C307.158 383.76 307.904 383.693 308.61 383.864C309.316 384.035 309.908 384.396 310.387 384.945L309.604 382.934L311.395 382.237L314.765 390.891L312.975 391.589L312.192 389.578C312.21 390.307 312.017 390.973 311.613 391.576C311.209 392.18 310.614 392.635 309.829 392.94C309.075 393.234 308.33 393.319 307.595 393.195C306.87 393.068 306.209 392.734 305.613 392.194C305.017 391.655 304.542 390.929 304.187 390.018C303.836 389.118 303.698 388.267 303.772 387.467C303.846 386.666 304.107 385.973 304.555 385.389C305.013 384.801 305.619 384.36 306.373 384.066ZM307.534 385.423C306.739 385.732 306.2 386.238 305.918 386.938C305.642 387.625 305.678 388.413 306.025 389.303C306.371 390.193 306.88 390.803 307.551 391.132C308.229 391.447 308.965 391.45 309.761 391.14C310.264 390.944 310.669 390.654 310.977 390.268C311.281 389.873 311.465 389.415 311.528 388.896C311.591 388.377 311.511 387.83 311.287 387.254C311.066 386.688 310.757 386.236 310.36 385.896C309.958 385.546 309.514 385.333 309.026 385.258C308.534 385.172 308.037 385.227 307.534 385.423ZM321.052 386.652L321.658 388.207L320.558 388.636C319.637 388.994 318.849 389.048 318.197 388.796C317.55 388.529 317.025 387.877 316.621 386.84L314.97 382.599L313.729 383.083L313.135 381.559L314.376 381.076L313.538 378.924L315.345 378.221L316.183 380.372L318.272 379.559L318.865 381.083L316.776 381.896L318.44 386.168C318.631 386.661 318.853 386.966 319.104 387.085C319.366 387.2 319.728 387.168 320.188 386.989L321.052 386.652ZM329.923 379.526C330.037 379.819 330.116 380.084 330.159 380.32L323.5 382.914C323.878 383.791 324.381 384.355 325.009 384.605C325.636 384.855 326.291 384.848 326.971 384.583C327.568 384.35 328.012 384.003 328.302 383.54C328.602 383.073 328.702 382.57 328.601 382.031L330.517 381.284C330.638 381.937 330.607 382.57 330.424 383.184C330.241 383.798 329.91 384.355 329.429 384.855C328.945 385.346 328.341 385.731 327.619 386.013C326.781 386.339 325.968 386.45 325.18 386.347C324.403 386.24 323.701 385.923 323.073 385.395C322.446 384.868 321.954 384.148 321.6 383.237C321.249 382.337 321.126 381.48 321.232 380.667C321.337 379.854 321.64 379.146 322.14 378.541C322.651 377.932 323.325 377.464 324.163 377.138C325.011 376.808 325.819 376.698 326.586 376.81C327.359 376.907 328.033 377.199 328.609 377.686C329.191 378.159 329.629 378.772 329.923 379.526ZM328.098 380.182C327.899 379.609 327.616 379.176 327.249 378.885C326.889 378.579 326.485 378.41 326.039 378.379C325.599 378.333 325.159 378.396 324.719 378.568C324.018 378.841 323.515 379.284 323.211 379.897C322.907 380.509 322.897 381.243 323.182 382.097L328.098 380.182ZM332.972 375.788C333.045 375.108 333.291 374.5 333.709 373.963C334.123 373.416 334.686 373.004 335.398 372.727L336.156 374.674L335.622 374.882C334.837 375.188 334.279 375.629 333.948 376.204C333.624 376.764 333.633 377.484 333.975 378.364L335.682 382.746L333.891 383.443L330.521 374.789L332.312 374.091L332.972 375.788ZM340.616 370.731C341.401 370.425 342.147 370.358 342.853 370.529C343.558 370.701 344.151 371.061 344.63 371.61L343.847 369.599L345.638 368.902L349.045 377.651C349.359 378.457 349.469 379.234 349.374 379.983C349.294 380.737 349.015 381.413 348.535 382.01C348.056 382.606 347.393 383.07 346.544 383.4C345.33 383.873 344.233 383.968 343.255 383.686C342.287 383.4 341.517 382.801 340.946 381.89L342.721 381.199C343.067 381.655 343.505 381.943 344.034 382.062C344.567 382.192 345.158 382.131 345.807 381.878C346.519 381.601 347.02 381.153 347.309 380.534C347.599 379.914 347.58 379.186 347.254 378.348L346.435 376.243C346.453 376.972 346.26 377.638 345.856 378.241C345.452 378.845 344.857 379.3 344.072 379.606C343.318 379.899 342.573 379.984 341.838 379.861C341.113 379.733 340.452 379.399 339.856 378.86C339.26 378.32 338.784 377.594 338.43 376.683C338.079 375.783 337.941 374.932 338.015 374.132C338.089 373.331 338.35 372.638 338.798 372.054C339.256 371.466 339.862 371.025 340.616 370.731ZM341.777 372.088C340.981 372.398 340.443 372.903 340.161 373.604C339.885 374.29 339.921 375.078 340.267 375.968C340.614 376.858 341.123 377.468 341.794 377.797C342.471 378.112 343.208 378.115 344.004 377.805C344.506 377.609 344.912 377.319 345.22 376.933C345.524 376.538 345.708 376.08 345.771 375.561C345.834 375.042 345.754 374.495 345.529 373.919C345.309 373.353 345 372.901 344.603 372.561C344.201 372.211 343.756 371.998 343.269 371.923C342.777 371.837 342.28 371.892 341.777 372.088ZM349.2 367.515L354.269 372.867L354.195 365.57L356.19 364.793L355.932 379.599L353.938 380.376L354.125 375.329L347.19 368.298L349.2 367.515Z" fill="#353E6C"/>
<path d="M391.679 548.347C393.203 547.74 393.559 546.07 392.736 544.001C391.919 541.946 390.509 540.977 388.989 541.581C387.469 542.186 387.104 543.871 387.919 545.922C388.742 547.991 390.15 548.955 391.679 548.347ZM391.396 547.634C390.37 548.042 389.388 547.224 388.739 545.59C388.104 543.993 388.262 542.701 389.274 542.298C390.286 541.896 391.276 542.721 391.917 544.332C392.566 545.966 392.417 547.228 391.396 547.634ZM397.57 546.004C399.172 545.367 399.594 543.707 398.717 541.502C397.731 539.02 396.099 538.749 394.929 539.215C393.585 539.749 392.985 541.08 393.499 542.374C393.994 543.617 395.285 544.17 396.533 543.674C397.368 543.342 397.917 542.635 397.936 541.876L397.95 541.87C398.618 543.617 398.408 544.846 397.296 545.288C396.615 545.559 395.978 545.45 395.557 544.918L394.727 545.249C395.309 546.157 396.44 546.454 397.57 546.004ZM396.389 542.901C395.531 543.242 394.653 542.871 394.314 542.018C393.988 541.197 394.39 540.28 395.23 539.946C396.074 539.611 396.989 540.009 397.323 540.848C397.654 541.683 397.255 542.556 396.389 542.901Z" fill="#BACCFD"/>
<rect x="328.015" y="433.575" width="2.57262" height="111.48" rx="1.28631" transform="rotate(-21.6824 328.015 433.575)" fill="#EFF3FE"/>
<rect x="349.396" y="489.673" width="4.2877" height="51.4524" rx="2.14385" transform="rotate(-21.6824 349.396 489.673)" fill="#23C0F7"/>
<path d="M374.945 554.999C376.469 554.393 376.824 552.723 376.002 550.654C375.185 548.599 373.775 547.63 372.255 548.234C370.735 548.839 370.369 550.523 371.185 552.574C372.008 554.643 373.415 555.607 374.945 554.999ZM374.661 554.287C373.636 554.695 372.654 553.877 372.004 552.243C371.369 550.646 371.528 549.354 372.54 548.951C373.552 548.549 374.542 549.374 375.182 550.985C375.832 552.618 375.682 553.881 374.661 554.287ZM381.004 552.59C382.392 552.038 383.071 550.865 382.634 549.767C382.312 548.954 381.482 548.507 380.554 548.644L380.547 548.626C381.181 548.106 381.403 547.382 381.132 546.702C380.735 545.703 379.553 545.333 378.314 545.825C377.084 546.314 376.467 547.405 376.861 548.395C377.135 549.084 377.804 549.459 378.614 549.395L378.621 549.413C377.855 549.943 377.559 550.839 377.884 551.655C378.319 552.749 379.62 553.141 381.004 552.59ZM380.72 551.878C379.822 552.235 378.974 551.979 378.691 551.266C378.406 550.549 378.846 549.781 379.745 549.423C380.647 549.064 381.489 549.318 381.776 550.04C382.059 550.752 381.623 551.519 380.72 551.878ZM379.459 548.706C378.679 549.017 377.956 548.784 377.703 548.149C377.449 547.509 377.813 546.839 378.594 546.529C379.374 546.218 380.097 546.451 380.353 547.095C380.606 547.73 380.235 548.398 379.459 548.706Z" fill="#BACCFD"/>
<rect x="312.06" y="439.913" width="2.57262" height="111.48" rx="1.28631" transform="rotate(-21.6824 312.06 439.913)" fill="#EFF3FE"/>
<rect x="325.521" y="476.088" width="4.2877" height="72.8908" rx="2.14385" transform="rotate(-21.6824 325.521 476.088)" fill="#23C0F7"/>
<path d="M358.991 561.337C360.516 560.731 360.871 559.06 360.048 556.991C359.231 554.936 357.821 553.967 356.301 554.572C354.781 555.176 354.416 556.861 355.232 558.912C356.054 560.981 357.462 561.945 358.991 561.337ZM358.708 560.625C357.683 561.032 356.7 560.214 356.051 558.581C355.416 556.984 355.575 555.691 356.586 555.289C357.598 554.886 358.589 555.712 359.229 557.322C359.878 558.956 359.729 560.219 358.708 560.625ZM362.952 559.636L363.809 559.295L364.42 552.347L364.119 551.59L359.786 553.312L360.074 554.038L363.6 552.637L363.607 552.655L362.952 559.636Z" fill="#BACCFD"/>
<rect x="295.326" y="446.566" width="2.57262" height="111.48" rx="1.28631" transform="rotate(-21.6824 295.326 446.566)" fill="#EFF3FE"/>
<rect x="318.291" y="506.647" width="4.2877" height="47.1647" rx="2.14385" transform="rotate(-21.6824 318.291 506.647)" fill="#23C0F7"/>
<path d="M342.259 567.99C343.784 567.384 344.139 565.714 343.316 563.645C342.499 561.589 341.089 560.621 339.569 561.225C338.049 561.829 337.684 563.514 338.499 565.565C339.322 567.634 340.73 568.598 342.259 567.99ZM341.976 567.278C340.95 567.686 339.968 566.867 339.319 565.234C338.684 563.637 338.842 562.344 339.854 561.942C340.866 561.54 341.856 562.365 342.497 563.976C343.146 565.609 342.997 566.872 341.976 567.278ZM348.438 565.539C349.781 565.005 350.381 563.673 349.867 562.38C349.373 561.137 348.081 560.584 346.833 561.08C345.944 561.433 345.46 562.172 345.427 562.869L345.413 562.874C344.748 561.121 344.983 559.903 346.077 559.468C346.748 559.201 347.374 559.346 347.799 559.86L348.629 559.53C348.026 558.609 346.911 558.301 345.799 558.743C344.197 559.38 343.772 561.046 344.649 563.251C345.618 565.688 347.231 566.019 348.438 565.539ZM348.14 564.816C347.301 565.15 346.382 564.743 346.049 563.904C345.717 563.069 346.111 562.197 346.978 561.853C347.844 561.508 348.707 561.88 349.048 562.737C349.376 563.563 348.975 564.484 348.14 564.816Z" fill="#BACCFD"/>
<rect x="278.592" y="453.219" width="2.57262" height="111.48" rx="1.28631" transform="rotate(-21.6824 278.592 453.219)" fill="#EFF3FE"/>
<rect x="296.804" y="501.348" width="4.2877" height="60.0277" rx="2.14385" transform="rotate(-21.6824 296.804 501.348)" fill="#23C0F7"/>
<path d="M325.523 574.644C327.047 574.037 327.403 572.367 326.58 570.298C325.763 568.243 324.353 567.274 322.833 567.878C321.313 568.483 320.948 570.168 321.763 572.218C322.586 574.287 323.994 575.251 325.523 574.644ZM325.24 573.931C324.214 574.339 323.232 573.521 322.583 571.887C321.948 570.29 322.106 568.998 323.118 568.595C324.13 568.193 325.12 569.018 325.761 570.629C326.41 572.263 326.261 573.525 325.24 573.931ZM331.582 572.234C332.948 571.691 333.548 570.386 333.025 569.07C332.525 567.813 331.255 567.262 329.998 567.762C329.363 568.014 328.912 568.467 328.779 569.03L328.761 569.037L328.108 566.748L331.184 565.525L330.896 564.799L327.148 566.289L328.297 570.157L329.018 569.87C329.113 569.223 329.511 568.77 330.133 568.523C331.004 568.177 331.873 568.551 332.217 569.418C332.567 570.298 332.195 571.16 331.306 571.514C330.521 571.826 329.735 571.581 329.385 570.912L328.582 571.231C329.094 572.32 330.33 572.732 331.582 572.234Z" fill="#BACCFD"/>
<rect x="261.857" y="459.873" width="2.57262" height="111.48" rx="1.28631" transform="rotate(-21.6824 261.857 459.873)" fill="#EFF3FE"/>
<rect x="283.238" y="515.97" width="4.2877" height="51.4524" rx="2.14385" transform="rotate(-21.6824 283.238 515.97)" fill="#23C0F7"/>
<path d="M308.789 581.297C310.313 580.691 310.668 579.021 309.846 576.952C309.029 574.896 307.619 573.928 306.099 574.532C304.579 575.137 304.213 576.821 305.029 578.872C305.852 580.941 307.259 581.905 308.789 581.297ZM308.505 580.585C307.48 580.993 306.498 580.175 305.848 578.541C305.213 576.944 305.372 575.651 306.384 575.249C307.396 574.847 308.386 575.672 309.026 577.283C309.676 578.916 309.526 580.179 308.505 580.585ZM315.667 578.437L316.456 578.123L315.915 576.761L316.84 576.393L316.555 575.677L315.63 576.045L313.853 571.575L312.646 572.055C311.981 574.889 311.688 576.387 311.542 577.644L311.836 578.383L315.125 577.075L315.667 578.437ZM312.351 577.327C312.508 576.214 312.785 574.837 313.32 572.575L313.334 572.57L314.84 576.358L312.358 577.345L312.351 577.327Z" fill="#BACCFD"/>
<rect x="245.123" y="466.526" width="2.57262" height="111.48" rx="1.28631" transform="rotate(-21.6824 245.123 466.526)" fill="#EFF3FE"/>
<rect x="266.504" y="522.623" width="4.2877" height="51.4524" rx="2.14385" transform="rotate(-21.6824 266.504 522.623)" fill="#23C0F7"/>
<path d="M292.054 587.951C293.579 587.344 293.934 585.674 293.111 583.605C292.294 581.55 290.884 580.581 289.364 581.185C287.844 581.79 287.479 583.475 288.295 585.526C289.117 587.595 290.525 588.559 292.054 587.951ZM291.771 587.238C290.746 587.646 289.763 586.828 289.114 585.194C288.479 583.597 288.638 582.305 289.649 581.902C290.661 581.5 291.651 582.325 292.292 583.936C292.941 585.57 292.792 586.832 291.771 587.238ZM295.947 582.762L296.768 582.435C297.689 582.069 298.446 582.293 298.762 583.103C299.03 583.79 298.649 584.509 297.787 584.852C296.915 585.198 296.128 585.002 295.802 584.327L295.017 584.639C295.507 585.7 296.711 586.099 298.068 585.56C299.352 585.049 300.029 583.871 299.582 582.746C299.212 581.815 298.327 581.479 297.341 581.776L297.334 581.758C298.087 581.259 298.432 580.475 298.109 579.663C297.738 578.729 296.68 578.277 295.369 578.798C294.144 579.285 293.565 580.34 293.916 581.488L294.701 581.176C294.47 580.448 294.879 579.813 295.651 579.506C296.49 579.172 297.073 579.45 297.331 580.099C297.591 580.752 297.238 581.45 296.457 581.76L295.672 582.072L295.947 582.762Z" fill="#BACCFD"/>
<rect x="228.408" y="473.179" width="2.57262" height="111.48" rx="1.28631" transform="rotate(-21.6824 228.408 473.179)" fill="#EFF3FE"/>
<rect x="259.294" y="553.182" width="4.2877" height="25.7262" rx="2.14385" transform="rotate(-21.6824 259.294 553.182)" fill="#23C0F7"/>
<path d="M275.337 594.603C276.862 593.997 277.217 592.327 276.394 590.258C275.577 588.203 274.167 587.234 272.647 587.838C271.127 588.443 270.762 590.127 271.577 592.178C272.4 594.247 273.808 595.211 275.337 594.603ZM275.054 593.891C274.028 594.299 273.046 593.481 272.397 591.847C271.762 590.25 271.921 588.958 272.932 588.555C273.944 588.153 274.934 588.978 275.575 590.589C276.224 592.222 276.075 593.485 275.054 593.891ZM277.12 588.377L277.909 588.063C277.617 587.328 278.005 586.533 278.813 586.212C279.561 585.914 280.246 586.236 280.502 586.88C280.719 587.425 280.655 587.86 280.137 589.133L278.788 592.454L279.012 593.016L283.331 591.299L283.043 590.573L279.844 591.845L279.837 591.827L280.758 589.611C281.47 587.899 281.586 587.227 281.299 586.505C280.904 585.512 279.741 585.018 278.53 585.5C277.268 586.001 276.664 587.229 277.12 588.377Z" fill="#BACCFD"/>
<rect x="212.451" y="479.516" width="2.57262" height="111.48" rx="1.28631" transform="rotate(-21.6824 212.451 479.516)" fill="#EFF3FE"/>
<rect x="230.664" y="527.645" width="4.2877" height="60.0277" rx="2.14385" transform="rotate(-21.6824 230.664 527.645)" fill="#23C0F7"/>
<path d="M260.179 600.624C261.704 600.018 262.059 598.347 261.236 596.278C260.419 594.223 259.009 593.254 257.489 593.859C255.969 594.463 255.604 596.148 256.42 598.199C257.242 600.268 258.65 601.232 260.179 600.624ZM259.896 599.912C258.87 600.319 257.888 599.501 257.239 597.868C256.604 596.271 256.763 594.978 257.774 594.576C258.786 594.173 259.776 594.999 260.417 596.61C261.066 598.243 260.917 599.506 259.896 599.912ZM265.523 598.373L266.313 598.059L263.71 591.512L262.911 591.829L261.667 593.774L261.993 594.596L263.247 592.699L263.265 592.692L265.523 598.373Z" fill="#BACCFD"/>
<g filter="url(#filter6_bdi_0_1)">
<rect x="7" y="158.813" width="367.09" height="198.065" rx="34.3016" transform="rotate(-21.456 7 158.813)" fill="url(#paint9_linear_0_1)" fill-opacity="0.93" shape-rendering="crispEdges"/>
</g>
<g filter="url(#filter7_i_0_1)">
<rect x="181.08" y="144.299" width="32.018" height="116.158" rx="16.009" transform="rotate(-21.456 181.08 144.299)" fill="url(#paint10_linear_0_1)"/>
</g>
<g filter="url(#filter8_i_0_1)">
<rect x="238.084" y="161.097" width="32.018" height="79.6726" rx="16.009" transform="rotate(-21.456 238.084 161.097)" fill="url(#paint11_linear_0_1)"/>
</g>
<g filter="url(#filter9_i_0_1)">
<rect x="105.617" y="217.19" width="32.018" height="79.6726" rx="16.009" transform="rotate(-21.456 105.617 217.19)" fill="url(#paint12_linear_0_1)"/>
</g>
<g filter="url(#filter10_i_0_1)">
<rect x="294.545" y="176.509" width="32.018" height="44.6762" rx="16.009" transform="rotate(-21.456 294.545 176.509)" fill="url(#paint13_linear_0_1)"/>
</g>
<g filter="url(#filter11_i_0_1)">
<rect x="162.076" y="232.602" width="32.018" height="44.6762" rx="16.009" transform="rotate(-21.456 162.076 232.602)" fill="url(#paint14_linear_0_1)"/>
</g>
<circle cx="329.239" cy="64.2876" r="8.83283" transform="rotate(-21.456 329.239 64.2876)" fill="#FF7373"/>
<circle cx="305.477" cy="73.4595" r="8.83283" transform="rotate(-21.456 305.477 73.4595)" fill="#F9BE41"/>
<circle cx="281.715" cy="82.6314" r="8.83283" transform="rotate(-21.456 281.715 82.6314)" fill="#65C67F"/>
<defs>
<filter id="filter0_bdi_0_1" x="312.848" y="488.431" width="561.249" height="445.472" filterUnits="userSpaceOnUse" color-interpolation-filters="sRGB">
<feFlood flood-opacity="0" result="BackgroundImageFix"/>
<feGaussianBlur in="BackgroundImageFix" stdDeviation="10.7192"/>
<feComposite in2="SourceAlpha" operator="in" result="effect1_backgroundBlur_0_1"/>
<feColorMatrix in="SourceAlpha" type="matrix" values="0 0 0 0 0 0 0 0 0 0 0 0 0 0 0 0 0 0 127 0" result="hardAlpha"/>
<feOffset dx="19.7234" dy="24.8686"/>
<feGaussianBlur stdDeviation="18.0083"/>
<feComposite in2="hardAlpha" operator="out"/>
<feColorMatrix type="matrix" values="0 0 0 0 0.633333 0 0 0 0 0.633333 0 0 0 0 0.633333 0 0 0 0.25 0"/>
<feBlend mode="multiply" in2="effect1_backgroundBlur_0_1" result="effect2_dropShadow_0_1"/>
<feBlend mode="normal" in="SourceGraphic" in2="effect2_dropShadow_0_1" result="shape"/>
<feColorMatrix in="SourceAlpha" type="matrix" values="0 0 0 0 0 0 0 0 0 0 0 0 0 0 0 0 0 0 127 0" result="hardAlpha"/>
<feOffset dx="-2.57262" dy="2.57262"/>
<feComposite in2="hardAlpha" operator="arithmetic" k2="-1" k3="1"/>
<feColorMatrix type="matrix" values="0 0 0 0 1 0 0 0 0 1 0 0 0 0 1 0 0 0 1 0"/>
<feBlend mode="normal" in2="shape" result="effect3_innerShadow_0_1"/>
</filter>
<filter id="filter1_bdi_0_1" x="388.745" y="-9.81836" width="338.844" height="271.912" filterUnits="userSpaceOnUse" color-interpolation-filters="sRGB">
<feFlood flood-opacity="0" result="BackgroundImageFix"/>
<feGaussianBlur in="BackgroundImageFix" stdDeviation="10.7192"/>
<feComposite in2="SourceAlpha" operator="in" result="effect1_backgroundBlur_0_1"/>
<feColorMatrix in="SourceAlpha" type="matrix" values="0 0 0 0 0 0 0 0 0 0 0 0 0 0 0 0 0 0 127 0" result="hardAlpha"/>
<feOffset dx="19.7234" dy="24.8686"/>
<feGaussianBlur stdDeviation="18.0083"/>
<feComposite in2="hardAlpha" operator="out"/>
<feColorMatrix type="matrix" values="0 0 0 0 0.633333 0 0 0 0 0.633333 0 0 0 0 0.633333 0 0 0 0.25 0"/>
<feBlend mode="multiply" in2="effect1_backgroundBlur_0_1" result="effect2_dropShadow_0_1"/>
<feBlend mode="normal" in="SourceGraphic" in2="effect2_dropShadow_0_1" result="shape"/>
<feColorMatrix in="SourceAlpha" type="matrix" values="0 0 0 0 0 0 0 0 0 0 0 0 0 0 0 0 0 0 127 0" result="hardAlpha"/>
<feOffset dx="-2.57262" dy="2.57262"/>
<feComposite in2="hardAlpha" operator="arithmetic" k2="-1" k3="1"/>
<feColorMatrix type="matrix" values="0 0 0 0 1 0 0 0 0 1 0 0 0 0 1 0 0 0 1 0"/>
<feBlend mode="normal" in2="shape" result="effect3_innerShadow_0_1"/>
</filter>
<filter id="filter2_d_0_1" x="454.873" y="115.496" width="45.4496" height="46.3072" filterUnits="userSpaceOnUse" color-interpolation-filters="sRGB">
<feFlood flood-opacity="0" result="BackgroundImageFix"/>
<feColorMatrix in="SourceAlpha" type="matrix" values="0 0 0 0 0 0 0 0 0 0 0 0 0 0 0 0 0 0 127 0" result="hardAlpha"/>
<feOffset dx="2.57262" dy="6.00277"/>
<feGaussianBlur stdDeviation="2.57262"/>
<feComposite in2="hardAlpha" operator="out"/>
<feColorMatrix type="matrix" values="0 0 0 0 0.727107 0 0 0 0 0.669826 0 0 0 0 0.841667 0 0 0 1 0"/>
<feBlend mode="normal" in2="BackgroundImageFix" result="effect1_dropShadow_0_1"/>
<feBlend mode="normal" in="SourceGraphic" in2="effect1_dropShadow_0_1" result="shape"/>
</filter>
<filter id="filter3_bdi_0_1" x="399.086" y="124.819" width="463.665" height="469.293" filterUnits="userSpaceOnUse" color-interpolation-filters="sRGB">
<feFlood flood-opacity="0" result="BackgroundImageFix"/>
<feGaussianBlur in="BackgroundImageFix" stdDeviation="10.7192"/>
<feComposite in2="SourceAlpha" operator="in" result="effect1_backgroundBlur_0_1"/>
<feColorMatrix in="SourceAlpha" type="matrix" values="0 0 0 0 0 0 0 0 0 0 0 0 0 0 0 0 0 0 127 0" result="hardAlpha"/>
<feOffset dx="19.7234" dy="24.8686"/>
<feGaussianBlur stdDeviation="18.0083"/>
<feComposite in2="hardAlpha" operator="out"/>
<feColorMatrix type="matrix" values="0 0 0 0 0.633333 0 0 0 0 0.633333 0 0 0 0 0.633333 0 0 0 0.25 0"/>
<feBlend mode="multiply" in2="effect1_backgroundBlur_0_1" result="effect2_dropShadow_0_1"/>
<feBlend mode="normal" in="SourceGraphic" in2="effect2_dropShadow_0_1" result="shape"/>
<feColorMatrix in="SourceAlpha" type="matrix" values="0 0 0 0 0 0 0 0 0 0 0 0 0 0 0 0 0 0 127 0" result="hardAlpha"/>
<feOffset dx="-2.57262" dy="2.57262"/>
<feComposite in2="hardAlpha" operator="arithmetic" k2="-1" k3="1"/>
<feColorMatrix type="matrix" values="0 0 0 0 1 0 0 0 0 1 0 0 0 0 1 0 0 0 1 0"/>
<feBlend mode="normal" in2="shape" result="effect3_innerShadow_0_1"/>
</filter>
<filter id="filter4_bdi_0_1" x="94.1049" y="241.236" width="460.741" height="485.267" filterUnits="userSpaceOnUse" color-interpolation-filters="sRGB">
<feFlood flood-opacity="0" result="BackgroundImageFix"/>
<feGaussianBlur in="BackgroundImageFix" stdDeviation="10.7192"/>
<feComposite in2="SourceAlpha" operator="in" result="effect1_backgroundBlur_0_1"/>
<feColorMatrix in="SourceAlpha" type="matrix" values="0 0 0 0 0 0 0 0 0 0 0 0 0 0 0 0 0 0 127 0" result="hardAlpha"/>
<feOffset dx="19.7234" dy="24.8686"/>
<feGaussianBlur stdDeviation="18.0083"/>
<feComposite in2="hardAlpha" operator="out"/>
<feColorMatrix type="matrix" values="0 0 0 0 0.633333 0 0 0 0 0.633333 0 0 0 0 0.633333 0 0 0 0.25 0"/>
<feBlend mode="multiply" in2="effect1_backgroundBlur_0_1" result="effect2_dropShadow_0_1"/>
<feBlend mode="normal" in="SourceGraphic" in2="effect2_dropShadow_0_1" result="shape"/>
<feColorMatrix in="SourceAlpha" type="matrix" values="0 0 0 0 0 0 0 0 0 0 0 0 0 0 0 0 0 0 127 0" result="hardAlpha"/>
<feOffset dx="-2.57262" dy="2.57262"/>
<feComposite in2="hardAlpha" operator="arithmetic" k2="-1" k3="1"/>
<feColorMatrix type="matrix" values="0 0 0 0 1 0 0 0 0 1 0 0 0 0 1 0 0 0 1 0"/>
<feBlend mode="normal" in2="shape" result="effect3_innerShadow_0_1"/>
</filter>
<filter id="filter5_d_0_1" x="153.857" y="317.806" width="323.898" height="323.898" filterUnits="userSpaceOnUse" color-interpolation-filters="sRGB">
<feFlood flood-opacity="0" result="BackgroundImageFix"/>
<feColorMatrix in="SourceAlpha" type="matrix" values="0 0 0 0 0 0 0 0 0 0 0 0 0 0 0 0 0 0 127 0" result="hardAlpha"/>
<feOffset dy="2.57262"/>
<feGaussianBlur stdDeviation="1.28631"/>
<feComposite in2="hardAlpha" operator="out"/>
<feColorMatrix type="matrix" values="0 0 0 0 0.7875 0 0 0 0 0.7875 0 0 0 0 0.7875 0 0 0 0.25 0"/>
<feBlend mode="normal" in2="BackgroundImageFix" result="effect1_dropShadow_0_1"/>
<feBlend mode="normal" in="SourceGraphic" in2="effect1_dropShadow_0_1" result="shape"/>
</filter>
<filter id="filter6_bdi_0_1" x="-4.27777" y="13.2593" width="470.956" height="380.617" filterUnits="userSpaceOnUse" color-interpolation-filters="sRGB">
<feFlood flood-opacity="0" result="BackgroundImageFix"/>
<feGaussianBlur in="BackgroundImageFix" stdDeviation="10.7192"/>
<feComposite in2="SourceAlpha" operator="in" result="effect1_backgroundBlur_0_1"/>
<feColorMatrix in="SourceAlpha" type="matrix" values="0 0 0 0 0 0 0 0 0 0 0 0 0 0 0 0 0 0 127 0" result="hardAlpha"/>
<feOffset dx="19.7234" dy="24.8686"/>
<feGaussianBlur stdDeviation="18.0083"/>
<feComposite in2="hardAlpha" operator="out"/>
<feColorMatrix type="matrix" values="0 0 0 0 0.633333 0 0 0 0 0.633333 0 0 0 0 0.633333 0 0 0 0.25 0"/>
<feBlend mode="multiply" in2="effect1_backgroundBlur_0_1" result="effect2_dropShadow_0_1"/>
<feBlend mode="normal" in="SourceGraphic" in2="effect2_dropShadow_0_1" result="shape"/>
<feColorMatrix in="SourceAlpha" type="matrix" values="0 0 0 0 0 0 0 0 0 0 0 0 0 0 0 0 0 0 127 0" result="hardAlpha"/>
<feOffset dx="-2.57262" dy="2.57262"/>
<feComposite in2="hardAlpha" operator="arithmetic" k2="-1" k3="1"/>
<feColorMatrix type="matrix" values="0 0 0 0 1 0 0 0 0 1 0 0 0 0 1 0 0 0 1 0"/>
<feBlend mode="normal" in2="shape" result="effect3_innerShadow_0_1"/>
</filter>
<filter id="filter7_i_0_1" x="182.392" y="137.329" width="66.234" height="114.624" filterUnits="userSpaceOnUse" color-interpolation-filters="sRGB">
<feFlood flood-opacity="0" result="BackgroundImageFix"/>
<feBlend mode="normal" in="SourceGraphic" in2="BackgroundImageFix" result="shape"/>
<feColorMatrix in="SourceAlpha" type="matrix" values="0 0 0 0 0 0 0 0 0 0 0 0 0 0 0 0 0 0 127 0" result="hardAlpha"/>
<feOffset dx="-3.43016" dy="4.2877"/>
<feGaussianBlur stdDeviation="2.57262"/>
<feComposite in2="hardAlpha" operator="arithmetic" k2="-1" k3="1"/>
<feColorMatrix type="matrix" values="0 0 0 0 0.9125 0 0 0 0 0.307969 0 0 0 0 0.383535 0 0 0 1 0"/>
<feBlend mode="normal" in2="shape" result="effect1_innerShadow_0_1"/>
</filter>
<filter id="filter8_i_0_1" x="239.396" y="154.127" width="52.8881" height="80.6666" filterUnits="userSpaceOnUse" color-interpolation-filters="sRGB">
<feFlood flood-opacity="0" result="BackgroundImageFix"/>
<feBlend mode="normal" in="SourceGraphic" in2="BackgroundImageFix" result="shape"/>
<feColorMatrix in="SourceAlpha" type="matrix" values="0 0 0 0 0 0 0 0 0 0 0 0 0 0 0 0 0 0 127 0" result="hardAlpha"/>
<feOffset dx="-3.43016" dy="4.2877"/>
<feGaussianBlur stdDeviation="2.57262"/>
<feComposite in2="hardAlpha" operator="arithmetic" k2="-1" k3="1"/>
<feColorMatrix type="matrix" values="0 0 0 0 0.191979 0 0 0 0 0.713826 0 0 0 0 0.808333 0 0 0 1 0"/>
<feBlend mode="normal" in2="shape" result="effect1_innerShadow_0_1"/>
</filter>
<filter id="filter9_i_0_1" x="106.929" y="210.22" width="52.8881" height="80.6666" filterUnits="userSpaceOnUse" color-interpolation-filters="sRGB">
<feFlood flood-opacity="0" result="BackgroundImageFix"/>
<feBlend mode="normal" in="SourceGraphic" in2="BackgroundImageFix" result="shape"/>
<feColorMatrix in="SourceAlpha" type="matrix" values="0 0 0 0 0 0 0 0 0 0 0 0 0 0 0 0 0 0 127 0" result="hardAlpha"/>
<feOffset dx="-3.43016" dy="4.2877"/>
<feGaussianBlur stdDeviation="2.57262"/>
<feComposite in2="hardAlpha" operator="arithmetic" k2="-1" k3="1"/>
<feColorMatrix type="matrix" values="0 0 0 0 0.191979 0 0 0 0 0.713826 0 0 0 0 0.808333 0 0 0 1 0"/>
<feBlend mode="normal" in2="shape" result="effect1_innerShadow_0_1"/>
</filter>
<filter id="filter10_i_0_1" x="295.857" y="169.54" width="40.0869" height="48.0953" filterUnits="userSpaceOnUse" color-interpolation-filters="sRGB">
<feFlood flood-opacity="0" result="BackgroundImageFix"/>
<feBlend mode="normal" in="SourceGraphic" in2="BackgroundImageFix" result="shape"/>
<feColorMatrix in="SourceAlpha" type="matrix" values="0 0 0 0 0 0 0 0 0 0 0 0 0 0 0 0 0 0 127 0" result="hardAlpha"/>
<feOffset dx="-3.43016" dy="4.2877"/>
<feGaussianBlur stdDeviation="2.57262"/>
<feComposite in2="hardAlpha" operator="arithmetic" k2="-1" k3="1"/>
<feColorMatrix type="matrix" values="0 0 0 0 0.0958333 0 0 0 0 0.0958333 0 0 0 0 0.0958333 0 0 0 1 0"/>
<feBlend mode="normal" in2="shape" result="effect1_innerShadow_0_1"/>
</filter>
<filter id="filter11_i_0_1" x="163.388" y="225.632" width="40.0869" height="48.0953" filterUnits="userSpaceOnUse" color-interpolation-filters="sRGB">
<feFlood flood-opacity="0" result="BackgroundImageFix"/>
<feBlend mode="normal" in="SourceGraphic" in2="BackgroundImageFix" result="shape"/>
<feColorMatrix in="SourceAlpha" type="matrix" values="0 0 0 0 0 0 0 0 0 0 0 0 0 0 0 0 0 0 127 0" result="hardAlpha"/>
<feOffset dx="-3.43016" dy="4.2877"/>
<feGaussianBlur stdDeviation="2.57262"/>
<feComposite in2="hardAlpha" operator="arithmetic" k2="-1" k3="1"/>
<feColorMatrix type="matrix" values="0 0 0 0 0.0958333 0 0 0 0 0.0958333 0 0 0 0 0.0958333 0 0 0 1 0"/>
<feBlend mode="normal" in2="shape" result="effect1_innerShadow_0_1"/>
</filter>
<linearGradient id="paint0_linear_0_1" x1="732.875" y1="749.62" x2="359.481" y2="667.936" gradientUnits="userSpaceOnUse">
<stop stop-color="#F4F4F4"/>
<stop offset="0.421875" stop-color="#F4F4F4"/>
<stop offset="1" stop-color="white"/>
</linearGradient>
<linearGradient id="paint1_linear_0_1" x1="546.035" y1="617.794" x2="616.011" y2="792.995" gradientUnits="userSpaceOnUse">
<stop stop-color="#DADADA"/>
<stop offset="1" stop-color="white" stop-opacity="0"/>
</linearGradient>
<linearGradient id="paint2_linear_0_1" x1="562.603" y1="662.81" x2="607.704" y2="779.605" gradientUnits="userSpaceOnUse">
<stop stop-color="#6865E5"/>
<stop offset="1" stop-color="white" stop-opacity="0"/>
</linearGradient>
<linearGradient id="paint3_linear_0_1" x1="630.122" y1="139.778" x2="422.178" y2="91.4254" gradientUnits="userSpaceOnUse">
<stop stop-color="#F4F4F4"/>
<stop offset="0.421875" stop-color="#F4F4F4"/>
<stop offset="1" stop-color="white"/>
</linearGradient>
<linearGradient id="paint4_linear_0_1" x1="696.234" y1="365.43" x2="424.374" y2="334.616" gradientUnits="userSpaceOnUse">
<stop stop-color="#F4F4F4"/>
<stop offset="0.421875" stop-color="#F4F4F4"/>
<stop offset="1" stop-color="white"/>
</linearGradient>
<linearGradient id="paint5_linear_0_1" x1="471.84" y1="291.116" x2="764.45" y2="417.641" gradientUnits="userSpaceOnUse">
<stop stop-color="#FFF6B7"/>
<stop offset="1" stop-color="#F6416C"/>
</linearGradient>
<linearGradient id="paint6_linear_0_1" x1="471.842" y1="291.116" x2="764.452" y2="417.641" gradientUnits="userSpaceOnUse">
<stop stop-color="#FFE985"/>
<stop offset="1" stop-color="#FA742B"/>
</linearGradient>
<linearGradient id="paint7_linear_0_1" x1="471.839" y1="291.116" x2="764.45" y2="417.641" gradientUnits="userSpaceOnUse">
<stop stop-color="#CE9FFC"/>
<stop offset="1" stop-color="#7367F0"/>
</linearGradient>
<linearGradient id="paint8_linear_0_1" x1="380.592" y1="485.504" x2="118.241" y2="458.73" gradientUnits="userSpaceOnUse">
<stop stop-color="#F4F4F4"/>
<stop offset="0.421875" stop-color="#F4F4F4"/>
<stop offset="1" stop-color="white"/>
</linearGradient>
<linearGradient id="paint9_linear_0_1" x1="341.699" y1="231.04" x2="33.0116" y2="166.016" gradientUnits="userSpaceOnUse">
<stop stop-color="#F4F4F4"/>
<stop offset="0.421875" stop-color="#F4F4F4"/>
<stop offset="1" stop-color="white"/>
</linearGradient>
<linearGradient id="paint10_linear_0_1" x1="164.699" y1="144.299" x2="215.332" y2="265.297" gradientUnits="userSpaceOnUse">
<stop stop-color="#FE8EA2"/>
<stop offset="1" stop-color="#E33540"/>
</linearGradient>
<linearGradient id="paint11_linear_0_1" x1="221.703" y1="161.097" x2="247.564" y2="251.199" gradientUnits="userSpaceOnUse">
<stop stop-color="#77EDFF"/>
<stop offset="1" stop-color="#3ACFF3"/>
</linearGradient>
<linearGradient id="paint12_linear_0_1" x1="89.2359" y1="217.19" x2="115.097" y2="307.292" gradientUnits="userSpaceOnUse">
<stop stop-color="#77EDFF"/>
<stop offset="1" stop-color="#3ACFF3"/>
</linearGradient>
<linearGradient id="paint13_linear_0_1" x1="278.164" y1="176.509" x2="286.743" y2="229.815" gradientUnits="userSpaceOnUse">
<stop stop-color="#4F4F4F"/>
<stop offset="1" stop-color="#363636"/>
</linearGradient>
<linearGradient id="paint14_linear_0_1" x1="145.695" y1="232.602" x2="154.274" y2="285.908" gradientUnits="userSpaceOnUse">
<stop stop-color="#4F4F4F"/>
<stop offset="1" stop-color="#363636"/>
</linearGradient>
</defs>
</svg>
