<svg width="909" height="912" viewBox="0 0 909 912" fill="none" xmlns="http://www.w3.org/2000/svg">
<g filter="url(#filter0_d_1_868)">
<rect x="65" y="57" width="699" height="702" rx="30" fill="#F2F2F2" fill-opacity="0.93" shape-rendering="crispEdges"/>
</g>
<path d="M356.736 163.162C354.063 153.185 343.78 147.201 334.015 150.566C278.304 169.762 230.321 206.929 197.793 256.482C161.834 311.263 147.276 377.354 156.89 442.173C166.504 506.992 199.619 566.012 249.93 607.997C300.242 649.982 364.236 671.999 429.729 669.857C495.222 667.715 557.641 641.563 605.101 596.38C652.561 551.197 681.749 490.139 687.107 424.831C692.464 359.522 673.618 294.523 634.157 242.209C598.461 194.888 548.151 160.935 491.304 145.421C481.34 142.702 471.471 149.345 469.455 159.475C467.44 169.605 474.048 179.376 483.98 182.209C531.827 195.856 574.13 224.743 604.297 264.734C638.23 309.719 654.436 365.612 649.829 421.772C645.222 477.932 620.123 530.437 579.311 569.29C538.5 608.144 484.825 630.632 428.506 632.474C372.188 634.316 317.158 615.383 273.895 579.28C230.631 543.177 202.155 492.424 193.888 436.685C185.621 380.946 198.14 324.114 229.061 277.007C256.55 235.131 296.875 203.541 343.728 186.796C353.454 183.32 359.409 173.138 356.736 163.162Z" fill="#DFDFDF"/>
<g filter="url(#filter1_bdi_1_868)">
<rect x="296" y="292.293" width="234.007" height="234.007" rx="117.003" transform="rotate(-0.561514 296 292.293)" fill="url(#paint0_linear_1_868)" fill-opacity="0.93" shape-rendering="crispEdges"/>
</g>
<g filter="url(#filter2_bdi_1_868)">
<rect x="314.977" y="310.902" width="196.42" height="196.42" rx="98.2101" transform="rotate(-0.561514 314.977 310.902)" fill="url(#paint1_linear_1_868)" fill-opacity="0.93" shape-rendering="crispEdges"/>
</g>
<path d="M351.988 402.2C351.988 405.328 352.691 408.071 354.096 410.428C355.547 412.74 357.428 414.531 359.74 415.8C362.052 417.024 364.568 417.636 367.288 417.636C369.555 417.636 371.572 417.341 373.34 416.752C375.108 416.163 376.695 415.369 378.1 414.372C379.551 413.375 380.797 412.287 381.84 411.108V422.056C379.891 423.597 377.76 424.799 375.448 425.66C373.181 426.521 370.303 426.952 366.812 426.952C363.185 426.952 359.808 426.363 356.68 425.184C353.597 424.005 350.9 422.305 348.588 420.084C346.321 417.863 344.553 415.256 343.284 412.264C342.06 409.227 341.448 405.872 341.448 402.2C341.448 398.528 342.06 395.196 343.284 392.204C344.553 389.167 346.321 386.537 348.588 384.316C350.9 382.095 353.597 380.395 356.68 379.216C359.808 378.037 363.185 377.448 366.812 377.448C370.303 377.448 373.181 377.879 375.448 378.74C377.76 379.601 379.891 380.803 381.84 382.344V393.292C380.797 392.113 379.551 391.025 378.1 390.028C376.695 389.031 375.108 388.237 373.34 387.648C371.572 387.059 369.555 386.764 367.288 386.764C364.568 386.764 362.052 387.399 359.74 388.668C357.428 389.892 355.547 391.66 354.096 393.972C352.691 396.284 351.988 399.027 351.988 402.2ZM402.328 403.832H412.596L428.1 426H416.608L402.328 403.832ZM391.516 378.4H401.24V426H391.516V378.4ZM397.432 386.696V378.4H407.496C411.258 378.4 414.454 379.035 417.084 380.304C419.713 381.573 421.73 383.341 423.136 385.608C424.541 387.875 425.244 390.527 425.244 393.564C425.244 396.556 424.541 399.208 423.136 401.52C421.73 403.787 419.713 405.555 417.084 406.824C414.454 408.093 411.258 408.728 407.496 408.728H397.432V400.976H406.884C408.606 400.976 410.08 400.704 411.304 400.16C412.573 399.571 413.548 398.755 414.228 397.712C414.908 396.624 415.248 395.332 415.248 393.836C415.248 392.34 414.908 391.071 414.228 390.028C413.548 388.94 412.573 388.124 411.304 387.58C410.08 386.991 408.606 386.696 406.884 386.696H397.432ZM444.156 399.276L441.096 426H430.964L438.036 376.02L457.96 406.756L477.884 376.02L484.956 426H474.824L471.764 399.276L457.96 421.58L444.156 399.276Z" fill="#303030"/>
<g filter="url(#filter3_bdi_1_868)">
<path d="M528.653 224.93C528.292 188.135 557.829 158.014 594.624 157.653C631.42 157.292 661.541 186.829 661.901 223.624C662.262 260.42 632.726 290.541 595.93 290.901C559.135 291.262 529.014 261.726 528.653 224.93Z" fill="url(#paint2_linear_1_868)" fill-opacity="0.93" shape-rendering="crispEdges"/>
</g>
<circle cx="581.609" cy="239.609" r="16.5" fill="#E0D9FF"/>
<path d="M579.109 227.109V240.538C579.109 240.955 579.278 241.355 579.578 241.649C579.878 241.944 580.285 242.109 580.709 242.109H609.509C609.934 242.109 610.341 241.944 610.641 241.649C610.941 241.355 611.109 240.955 611.109 240.538V227.109" stroke="#6B49F1" stroke-width="3" stroke-linecap="round" stroke-linejoin="round"/>
<path d="M579.693 206.109H610.526C610.888 206.112 611.239 206.235 611.527 206.458C611.816 206.682 612.028 206.995 612.13 207.352L615.109 218.109H575.109L578.089 207.352C578.191 206.995 578.402 206.682 578.691 206.458C578.98 206.235 579.331 206.112 579.693 206.109V206.109Z" stroke="#6B49F1" stroke-width="3" stroke-linecap="round" stroke-linejoin="round"/>
<path d="M589.109 218.109V221.442C589.109 223.211 588.372 224.906 587.059 226.157C585.746 227.407 583.966 228.109 582.109 228.109C580.253 228.109 578.472 227.407 577.16 226.157C575.847 224.906 575.109 223.211 575.109 221.442V218.109" stroke="#6B49F1" stroke-width="3" stroke-linecap="round" stroke-linejoin="round"/>
<path d="M601.109 218.109V221.442C601.109 223.211 600.477 224.906 599.352 226.157C598.227 227.407 596.701 228.109 595.109 228.109C593.518 228.109 591.992 227.407 590.867 226.157C589.742 224.906 589.109 223.211 589.109 221.442V218.109" stroke="#6B49F1" stroke-width="3" stroke-linecap="round" stroke-linejoin="round"/>
<path d="M615.109 218.109V221.442C615.109 223.211 614.372 224.906 613.059 226.157C611.746 227.407 609.966 228.109 608.109 228.109C606.253 228.109 604.472 227.407 603.16 226.157C601.847 224.906 601.109 223.211 601.109 221.442V218.109" stroke="#6B49F1" stroke-width="3" stroke-linecap="round" stroke-linejoin="round"/>
<g filter="url(#filter4_bdi_1_868)">
<rect x="597" y="329.306" width="133.255" height="133.255" rx="66.6274" transform="rotate(-0.561514 597 329.306)" fill="url(#paint3_linear_1_868)" fill-opacity="0.93" shape-rendering="crispEdges"/>
</g>
<circle cx="676.5" cy="373.5" r="16.5" fill="#F9DCEF"/>
<path d="M651 377.231L651 412.769C651 414.554 652.455 416 654.25 416L673.75 416C675.545 416 677 414.554 677 412.769L677 377.231C677 375.446 675.545 374 673.75 374L654.25 374C652.455 374 651 375.446 651 377.231Z" stroke="#FF65CB" stroke-width="3" stroke-linecap="round" stroke-linejoin="round"/>
<path d="M664 406C662.895 406 662 406.895 662 408C662 409.105 662.895 410 664 410C665.105 410 666 409.105 666 408C666 406.895 665.105 406 664 406Z" fill="#FF65CB"/>
<g filter="url(#filter5_bdi_1_868)">
<rect x="528" y="495.306" width="133.255" height="133.255" rx="66.6274" transform="rotate(-0.561514 528 495.306)" fill="url(#paint4_linear_1_868)" fill-opacity="0.93" shape-rendering="crispEdges"/>
</g>
<circle cx="612.5" cy="574.5" r="16.5" fill="#C8E7CB"/>
<path d="M576 547H614V573.444C614 573.857 613.833 574.253 613.536 574.544C613.239 574.836 612.837 575 612.417 575H577.583C577.163 575 576.761 574.836 576.464 574.544C576.167 574.253 576 573.857 576 573.444V547Z" stroke="#54CC60" stroke-width="3" stroke-linecap="round" stroke-linejoin="round"/>
<path d="M614 547L595 564L576 547" stroke="#54CC60" stroke-width="3" stroke-linecap="round" stroke-linejoin="round"/>
<g filter="url(#filter6_bdi_1_868)">
<rect x="355" y="576.306" width="133.255" height="133.255" rx="66.6274" transform="rotate(-0.561514 355 576.306)" fill="url(#paint5_linear_1_868)" fill-opacity="0.93" shape-rendering="crispEdges"/>
</g>
<circle cx="404.5" cy="634.5" r="16.5" fill="#F0E4D1"/>
<path d="M400.241 648.167C398.251 644.814 397.554 640.851 398.28 637.021C399.006 633.191 401.105 629.757 404.183 627.365C407.262 624.974 411.108 623.788 414.998 624.031C418.889 624.274 422.557 625.93 425.314 628.686C428.07 631.443 429.726 635.111 429.969 639.002C430.212 642.892 429.026 646.738 426.635 649.817C424.243 652.895 420.809 654.994 416.979 655.72C413.149 656.446 409.186 655.749 405.833 653.759L400.308 655.334C400.08 655.398 399.839 655.401 399.611 655.341C399.382 655.281 399.173 655.161 399.006 654.994C398.839 654.827 398.719 654.618 398.659 654.389C398.599 654.161 398.602 653.92 398.666 653.692L400.241 648.167Z" stroke="#FFB545" stroke-width="3" stroke-linecap="round" stroke-linejoin="round"/>
<path d="M413 656.303C413.781 658.538 415.046 660.57 416.705 662.254C418.364 663.938 420.375 665.231 422.592 666.039C424.809 666.848 427.178 667.152 429.526 666.929C431.875 666.707 434.145 665.964 436.173 664.753V664.753L441.689 666.332C441.916 666.396 442.157 666.399 442.385 666.339C442.614 666.279 442.822 666.159 442.989 665.991C443.156 665.824 443.275 665.614 443.335 665.385C443.395 665.156 443.392 664.915 443.329 664.687L441.756 659.15C443.16 656.784 443.932 654.094 443.996 651.34C444.06 648.587 443.414 645.864 442.122 643.434C440.829 641.005 438.933 638.952 436.618 637.474C434.303 635.997 431.646 635.144 428.906 635" stroke="#FFB545" stroke-width="3" stroke-linecap="round" stroke-linejoin="round"/>
<g filter="url(#filter7_bdi_1_868)">
<rect x="185" y="495.306" width="133.255" height="133.255" rx="66.6274" transform="rotate(-0.561514 185 495.306)" fill="url(#paint6_linear_1_868)" fill-opacity="0.93" shape-rendering="crispEdges"/>
</g>
<circle cx="236.5" cy="544.5" r="16.5" fill="#FFDEDE"/>
<path d="M235 583C234.997 582.348 235.127 581.703 235.383 581.1C235.638 580.497 236.013 579.95 236.488 579.489C236.962 579.028 237.525 578.663 238.145 578.415C238.765 578.167 239.43 578.041 240.1 578.043H269V545H240.1C239.43 544.997 238.765 545.124 238.145 545.372C237.525 545.62 236.962 545.985 236.488 546.446C236.013 546.906 235.638 547.454 235.383 548.057C235.127 548.659 234.997 549.305 235 549.957V583Z" stroke="#FF5F5F" stroke-width="3" stroke-linecap="round" stroke-linejoin="round"/>
<path d="M235 583V585H265" stroke="#FF5F5F" stroke-width="3" stroke-linecap="round" stroke-linejoin="round"/>
<g filter="url(#filter8_bdi_1_868)">
<rect x="106" y="328.306" width="133.255" height="133.255" rx="66.6274" transform="rotate(-0.561514 106 328.306)" fill="url(#paint7_linear_1_868)" fill-opacity="0.93" shape-rendering="crispEdges"/>
</g>
<path d="M170 395.875C174.142 395.875 177.5 392.517 177.5 388.375C177.5 384.233 174.142 380.875 170 380.875C165.858 380.875 162.5 384.233 162.5 388.375C162.5 392.517 165.858 395.875 170 395.875Z" stroke="#1ACCB7" stroke-width="3" stroke-linecap="round" stroke-linejoin="round"/>
<circle cx="181.5" cy="412.5" r="16.5" fill="#C6ECE6"/>
<path d="M188.75 388.375C188.75 405.25 170 418.375 170 418.375C170 418.375 151.25 405.25 151.25 388.375C151.25 383.402 153.225 378.633 156.742 375.117C160.258 371.6 165.027 369.625 170 369.625C174.973 369.625 179.742 371.6 183.258 375.117C186.775 378.633 188.75 383.402 188.75 388.375V388.375Z" stroke="#1ACCB7" stroke-width="3" stroke-linecap="round" stroke-linejoin="round"/>
<g filter="url(#filter9_bdi_1_868)">
<rect x="185" y="158.306" width="133.255" height="133.255" rx="66.6274" transform="rotate(-0.561514 185 158.306)" fill="url(#paint8_linear_1_868)" fill-opacity="0.93" shape-rendering="crispEdges"/>
</g>
<circle cx="268.5" cy="237.5" r="16.5" fill="#D1EAF2"/>
<path d="M260.812 235.812H236.723L230.838 203.455C230.769 203.067 230.567 202.716 230.267 202.462C229.966 202.207 229.587 202.066 229.193 202.062H225.375" stroke="#37C4F0" stroke-width="3" stroke-linecap="round" stroke-linejoin="round"/>
<path d="M238.875 244.25C241.205 244.25 243.094 242.361 243.094 240.031C243.094 237.701 241.205 235.812 238.875 235.812C236.545 235.812 234.656 237.701 234.656 240.031C234.656 242.361 236.545 244.25 238.875 244.25Z" stroke="#37C4F0" stroke-width="3" stroke-linecap="round" stroke-linejoin="round"/>
<path d="M260.812 244.25C263.142 244.25 265.031 242.361 265.031 240.031C265.031 237.701 263.142 235.812 260.812 235.812C258.483 235.812 256.594 237.701 256.594 240.031C256.594 242.361 258.483 244.25 260.812 244.25Z" stroke="#37C4F0" stroke-width="3" stroke-linecap="round" stroke-linejoin="round"/>
<path d="M235.184 227.375H261.677C262.466 227.377 263.231 227.102 263.836 226.596C264.442 226.091 264.85 225.388 264.989 224.612L267.562 210.5H232.125" stroke="#37C4F0" stroke-width="3" stroke-linecap="round" stroke-linejoin="round"/>
<g filter="url(#filter10_bdi_1_868)">
<rect x="296" y="292.293" width="234.007" height="234.007" rx="117.003" transform="rotate(-0.561514 296 292.293)" fill="url(#paint9_linear_1_868)" fill-opacity="0.93" shape-rendering="crispEdges"/>
</g>
<g filter="url(#filter11_bdi_1_868)">
<rect x="314.977" y="310.902" width="196.42" height="196.42" rx="98.2101" transform="rotate(-0.561514 314.977 310.902)" fill="url(#paint10_linear_1_868)" fill-opacity="0.93" shape-rendering="crispEdges"/>
</g>
<path d="M351.988 402.2C351.988 405.328 352.691 408.071 354.096 410.428C355.547 412.74 357.428 414.531 359.74 415.8C362.052 417.024 364.568 417.636 367.288 417.636C369.555 417.636 371.572 417.341 373.34 416.752C375.108 416.163 376.695 415.369 378.1 414.372C379.551 413.375 380.797 412.287 381.84 411.108V422.056C379.891 423.597 377.76 424.799 375.448 425.66C373.181 426.521 370.303 426.952 366.812 426.952C363.185 426.952 359.808 426.363 356.68 425.184C353.597 424.005 350.9 422.305 348.588 420.084C346.321 417.863 344.553 415.256 343.284 412.264C342.06 409.227 341.448 405.872 341.448 402.2C341.448 398.528 342.06 395.196 343.284 392.204C344.553 389.167 346.321 386.537 348.588 384.316C350.9 382.095 353.597 380.395 356.68 379.216C359.808 378.037 363.185 377.448 366.812 377.448C370.303 377.448 373.181 377.879 375.448 378.74C377.76 379.601 379.891 380.803 381.84 382.344V393.292C380.797 392.113 379.551 391.025 378.1 390.028C376.695 389.031 375.108 388.237 373.34 387.648C371.572 387.059 369.555 386.764 367.288 386.764C364.568 386.764 362.052 387.399 359.74 388.668C357.428 389.892 355.547 391.66 354.096 393.972C352.691 396.284 351.988 399.027 351.988 402.2ZM402.328 403.832H412.596L428.1 426H416.608L402.328 403.832ZM391.516 378.4H401.24V426H391.516V378.4ZM397.432 386.696V378.4H407.496C411.258 378.4 414.454 379.035 417.084 380.304C419.713 381.573 421.73 383.341 423.136 385.608C424.541 387.875 425.244 390.527 425.244 393.564C425.244 396.556 424.541 399.208 423.136 401.52C421.73 403.787 419.713 405.555 417.084 406.824C414.454 408.093 411.258 408.728 407.496 408.728H397.432V400.976H406.884C408.606 400.976 410.08 400.704 411.304 400.16C412.573 399.571 413.548 398.755 414.228 397.712C414.908 396.624 415.248 395.332 415.248 393.836C415.248 392.34 414.908 391.071 414.228 390.028C413.548 388.94 412.573 388.124 411.304 387.58C410.08 386.991 408.606 386.696 406.884 386.696H397.432ZM444.156 399.276L441.096 426H430.964L438.036 376.02L457.96 406.756L477.884 376.02L484.956 426H474.824L471.764 399.276L457.96 421.58L444.156 399.276Z" fill="#303030"/>
<defs>
<filter id="filter0_d_1_868" x="0" y="0" width="909" height="912" filterUnits="userSpaceOnUse" color-interpolation-filters="sRGB">
<feFlood flood-opacity="0" result="BackgroundImageFix"/>
<feColorMatrix in="SourceAlpha" type="matrix" values="0 0 0 0 0 0 0 0 0 0 0 0 0 0 0 0 0 0 127 0" result="hardAlpha"/>
<feOffset dx="40" dy="48"/>
<feGaussianBlur stdDeviation="52.5"/>
<feComposite in2="hardAlpha" operator="out"/>
<feColorMatrix type="matrix" values="0 0 0 0 0.416667 0 0 0 0 0.416667 0 0 0 0 0.416667 0 0 0 0.2 0"/>
<feBlend mode="multiply" in2="BackgroundImageFix" result="effect1_dropShadow_1_868"/>
<feBlend mode="normal" in="SourceGraphic" in2="effect1_dropShadow_1_868" result="shape"/>
</filter>
<filter id="filter1_bdi_1_868" x="269.141" y="269.702" width="290.007" height="297.446" filterUnits="userSpaceOnUse" color-interpolation-filters="sRGB">
<feFlood flood-opacity="0" result="BackgroundImageFix"/>
<feGaussianBlur in="BackgroundImageFix" stdDeviation="10.7192"/>
<feComposite in2="SourceAlpha" operator="in" result="effect1_backgroundBlur_1_868"/>
<feColorMatrix in="SourceAlpha" type="matrix" values="0 0 0 0 0 0 0 0 0 0 0 0 0 0 0 0 0 0 127 0" result="hardAlpha"/>
<feOffset dy="14"/>
<feGaussianBlur stdDeviation="14"/>
<feComposite in2="hardAlpha" operator="out"/>
<feColorMatrix type="matrix" values="0 0 0 0 0.804167 0 0 0 0 0.804167 0 0 0 0 0.804167 0 0 0 0.25 0"/>
<feBlend mode="normal" in2="effect1_backgroundBlur_1_868" result="effect2_dropShadow_1_868"/>
<feBlend mode="normal" in="SourceGraphic" in2="effect2_dropShadow_1_868" result="shape"/>
<feColorMatrix in="SourceAlpha" type="matrix" values="0 0 0 0 0 0 0 0 0 0 0 0 0 0 0 0 0 0 127 0" result="hardAlpha"/>
<feOffset dx="-2.57262" dy="2.57262"/>
<feComposite in2="hardAlpha" operator="arithmetic" k2="-1" k3="1"/>
<feColorMatrix type="matrix" values="0 0 0 0 1 0 0 0 0 1 0 0 0 0 1 0 0 0 1 0"/>
<feBlend mode="normal" in2="shape" result="effect3_innerShadow_1_868"/>
</filter>
<filter id="filter2_bdi_1_868" x="287.934" y="288.496" width="252.42" height="259.859" filterUnits="userSpaceOnUse" color-interpolation-filters="sRGB">
<feFlood flood-opacity="0" result="BackgroundImageFix"/>
<feGaussianBlur in="BackgroundImageFix" stdDeviation="10.7192"/>
<feComposite in2="SourceAlpha" operator="in" result="effect1_backgroundBlur_1_868"/>
<feColorMatrix in="SourceAlpha" type="matrix" values="0 0 0 0 0 0 0 0 0 0 0 0 0 0 0 0 0 0 127 0" result="hardAlpha"/>
<feOffset dy="14"/>
<feGaussianBlur stdDeviation="14"/>
<feComposite in2="hardAlpha" operator="out"/>
<feColorMatrix type="matrix" values="0 0 0 0 0.804167 0 0 0 0 0.804167 0 0 0 0 0.804167 0 0 0 0.25 0"/>
<feBlend mode="normal" in2="effect1_backgroundBlur_1_868" result="effect2_dropShadow_1_868"/>
<feBlend mode="normal" in="SourceGraphic" in2="effect2_dropShadow_1_868" result="shape"/>
<feColorMatrix in="SourceAlpha" type="matrix" values="0 0 0 0 0 0 0 0 0 0 0 0 0 0 0 0 0 0 127 0" result="hardAlpha"/>
<feOffset dx="-2.57262" dy="2.57262"/>
<feComposite in2="hardAlpha" operator="arithmetic" k2="-1" k3="1"/>
<feColorMatrix type="matrix" values="0 0 0 0 1 0 0 0 0 1 0 0 0 0 1 0 0 0 1 0"/>
<feBlend mode="normal" in2="shape" result="effect3_innerShadow_1_868"/>
</filter>
<filter id="filter3_bdi_1_868" x="500.65" y="136.211" width="189.255" height="196.693" filterUnits="userSpaceOnUse" color-interpolation-filters="sRGB">
<feFlood flood-opacity="0" result="BackgroundImageFix"/>
<feGaussianBlur in="BackgroundImageFix" stdDeviation="10.7192"/>
<feComposite in2="SourceAlpha" operator="in" result="effect1_backgroundBlur_1_868"/>
<feColorMatrix in="SourceAlpha" type="matrix" values="0 0 0 0 0 0 0 0 0 0 0 0 0 0 0 0 0 0 127 0" result="hardAlpha"/>
<feOffset dy="14"/>
<feGaussianBlur stdDeviation="14"/>
<feComposite in2="hardAlpha" operator="out"/>
<feColorMatrix type="matrix" values="0 0 0 0 0.804167 0 0 0 0 0.804167 0 0 0 0 0.804167 0 0 0 0.25 0"/>
<feBlend mode="normal" in2="effect1_backgroundBlur_1_868" result="effect2_dropShadow_1_868"/>
<feBlend mode="normal" in="SourceGraphic" in2="effect2_dropShadow_1_868" result="shape"/>
<feColorMatrix in="SourceAlpha" type="matrix" values="0 0 0 0 0 0 0 0 0 0 0 0 0 0 0 0 0 0 127 0" result="hardAlpha"/>
<feOffset dx="-2.57262" dy="2.57262"/>
<feComposite in2="hardAlpha" operator="arithmetic" k2="-1" k3="1"/>
<feColorMatrix type="matrix" values="0 0 0 0 1 0 0 0 0 1 0 0 0 0 1 0 0 0 1 0"/>
<feBlend mode="normal" in2="shape" result="effect3_innerShadow_1_868"/>
</filter>
<filter id="filter4_bdi_1_868" x="569.65" y="307.211" width="189.255" height="196.693" filterUnits="userSpaceOnUse" color-interpolation-filters="sRGB">
<feFlood flood-opacity="0" result="BackgroundImageFix"/>
<feGaussianBlur in="BackgroundImageFix" stdDeviation="10.7192"/>
<feComposite in2="SourceAlpha" operator="in" result="effect1_backgroundBlur_1_868"/>
<feColorMatrix in="SourceAlpha" type="matrix" values="0 0 0 0 0 0 0 0 0 0 0 0 0 0 0 0 0 0 127 0" result="hardAlpha"/>
<feOffset dy="14"/>
<feGaussianBlur stdDeviation="14"/>
<feComposite in2="hardAlpha" operator="out"/>
<feColorMatrix type="matrix" values="0 0 0 0 0.804167 0 0 0 0 0.804167 0 0 0 0 0.804167 0 0 0 0.25 0"/>
<feBlend mode="normal" in2="effect1_backgroundBlur_1_868" result="effect2_dropShadow_1_868"/>
<feBlend mode="normal" in="SourceGraphic" in2="effect2_dropShadow_1_868" result="shape"/>
<feColorMatrix in="SourceAlpha" type="matrix" values="0 0 0 0 0 0 0 0 0 0 0 0 0 0 0 0 0 0 127 0" result="hardAlpha"/>
<feOffset dx="-2.57262" dy="2.57262"/>
<feComposite in2="hardAlpha" operator="arithmetic" k2="-1" k3="1"/>
<feColorMatrix type="matrix" values="0 0 0 0 1 0 0 0 0 1 0 0 0 0 1 0 0 0 1 0"/>
<feBlend mode="normal" in2="shape" result="effect3_innerShadow_1_868"/>
</filter>
<filter id="filter5_bdi_1_868" x="500.65" y="473.211" width="189.255" height="196.693" filterUnits="userSpaceOnUse" color-interpolation-filters="sRGB">
<feFlood flood-opacity="0" result="BackgroundImageFix"/>
<feGaussianBlur in="BackgroundImageFix" stdDeviation="10.7192"/>
<feComposite in2="SourceAlpha" operator="in" result="effect1_backgroundBlur_1_868"/>
<feColorMatrix in="SourceAlpha" type="matrix" values="0 0 0 0 0 0 0 0 0 0 0 0 0 0 0 0 0 0 127 0" result="hardAlpha"/>
<feOffset dy="14"/>
<feGaussianBlur stdDeviation="14"/>
<feComposite in2="hardAlpha" operator="out"/>
<feColorMatrix type="matrix" values="0 0 0 0 0.804167 0 0 0 0 0.804167 0 0 0 0 0.804167 0 0 0 0.25 0"/>
<feBlend mode="normal" in2="effect1_backgroundBlur_1_868" result="effect2_dropShadow_1_868"/>
<feBlend mode="normal" in="SourceGraphic" in2="effect2_dropShadow_1_868" result="shape"/>
<feColorMatrix in="SourceAlpha" type="matrix" values="0 0 0 0 0 0 0 0 0 0 0 0 0 0 0 0 0 0 127 0" result="hardAlpha"/>
<feOffset dx="-2.57262" dy="2.57262"/>
<feComposite in2="hardAlpha" operator="arithmetic" k2="-1" k3="1"/>
<feColorMatrix type="matrix" values="0 0 0 0 1 0 0 0 0 1 0 0 0 0 1 0 0 0 1 0"/>
<feBlend mode="normal" in2="shape" result="effect3_innerShadow_1_868"/>
</filter>
<filter id="filter6_bdi_1_868" x="327.65" y="554.211" width="189.255" height="196.693" filterUnits="userSpaceOnUse" color-interpolation-filters="sRGB">
<feFlood flood-opacity="0" result="BackgroundImageFix"/>
<feGaussianBlur in="BackgroundImageFix" stdDeviation="10.7192"/>
<feComposite in2="SourceAlpha" operator="in" result="effect1_backgroundBlur_1_868"/>
<feColorMatrix in="SourceAlpha" type="matrix" values="0 0 0 0 0 0 0 0 0 0 0 0 0 0 0 0 0 0 127 0" result="hardAlpha"/>
<feOffset dy="14"/>
<feGaussianBlur stdDeviation="14"/>
<feComposite in2="hardAlpha" operator="out"/>
<feColorMatrix type="matrix" values="0 0 0 0 0.804167 0 0 0 0 0.804167 0 0 0 0 0.804167 0 0 0 0.25 0"/>
<feBlend mode="normal" in2="effect1_backgroundBlur_1_868" result="effect2_dropShadow_1_868"/>
<feBlend mode="normal" in="SourceGraphic" in2="effect2_dropShadow_1_868" result="shape"/>
<feColorMatrix in="SourceAlpha" type="matrix" values="0 0 0 0 0 0 0 0 0 0 0 0 0 0 0 0 0 0 127 0" result="hardAlpha"/>
<feOffset dx="-2.57262" dy="2.57262"/>
<feComposite in2="hardAlpha" operator="arithmetic" k2="-1" k3="1"/>
<feColorMatrix type="matrix" values="0 0 0 0 1 0 0 0 0 1 0 0 0 0 1 0 0 0 1 0"/>
<feBlend mode="normal" in2="shape" result="effect3_innerShadow_1_868"/>
</filter>
<filter id="filter7_bdi_1_868" x="157.65" y="473.211" width="189.255" height="196.693" filterUnits="userSpaceOnUse" color-interpolation-filters="sRGB">
<feFlood flood-opacity="0" result="BackgroundImageFix"/>
<feGaussianBlur in="BackgroundImageFix" stdDeviation="10.7192"/>
<feComposite in2="SourceAlpha" operator="in" result="effect1_backgroundBlur_1_868"/>
<feColorMatrix in="SourceAlpha" type="matrix" values="0 0 0 0 0 0 0 0 0 0 0 0 0 0 0 0 0 0 127 0" result="hardAlpha"/>
<feOffset dy="14"/>
<feGaussianBlur stdDeviation="14"/>
<feComposite in2="hardAlpha" operator="out"/>
<feColorMatrix type="matrix" values="0 0 0 0 0.804167 0 0 0 0 0.804167 0 0 0 0 0.804167 0 0 0 0.25 0"/>
<feBlend mode="normal" in2="effect1_backgroundBlur_1_868" result="effect2_dropShadow_1_868"/>
<feBlend mode="normal" in="SourceGraphic" in2="effect2_dropShadow_1_868" result="shape"/>
<feColorMatrix in="SourceAlpha" type="matrix" values="0 0 0 0 0 0 0 0 0 0 0 0 0 0 0 0 0 0 127 0" result="hardAlpha"/>
<feOffset dx="-2.57262" dy="2.57262"/>
<feComposite in2="hardAlpha" operator="arithmetic" k2="-1" k3="1"/>
<feColorMatrix type="matrix" values="0 0 0 0 1 0 0 0 0 1 0 0 0 0 1 0 0 0 1 0"/>
<feBlend mode="normal" in2="shape" result="effect3_innerShadow_1_868"/>
</filter>
<filter id="filter8_bdi_1_868" x="78.6497" y="306.211" width="189.255" height="196.693" filterUnits="userSpaceOnUse" color-interpolation-filters="sRGB">
<feFlood flood-opacity="0" result="BackgroundImageFix"/>
<feGaussianBlur in="BackgroundImageFix" stdDeviation="10.7192"/>
<feComposite in2="SourceAlpha" operator="in" result="effect1_backgroundBlur_1_868"/>
<feColorMatrix in="SourceAlpha" type="matrix" values="0 0 0 0 0 0 0 0 0 0 0 0 0 0 0 0 0 0 127 0" result="hardAlpha"/>
<feOffset dy="14"/>
<feGaussianBlur stdDeviation="14"/>
<feComposite in2="hardAlpha" operator="out"/>
<feColorMatrix type="matrix" values="0 0 0 0 0.804167 0 0 0 0 0.804167 0 0 0 0 0.804167 0 0 0 0.25 0"/>
<feBlend mode="normal" in2="effect1_backgroundBlur_1_868" result="effect2_dropShadow_1_868"/>
<feBlend mode="normal" in="SourceGraphic" in2="effect2_dropShadow_1_868" result="shape"/>
<feColorMatrix in="SourceAlpha" type="matrix" values="0 0 0 0 0 0 0 0 0 0 0 0 0 0 0 0 0 0 127 0" result="hardAlpha"/>
<feOffset dx="-2.57262" dy="2.57262"/>
<feComposite in2="hardAlpha" operator="arithmetic" k2="-1" k3="1"/>
<feColorMatrix type="matrix" values="0 0 0 0 1 0 0 0 0 1 0 0 0 0 1 0 0 0 1 0"/>
<feBlend mode="normal" in2="shape" result="effect3_innerShadow_1_868"/>
</filter>
<filter id="filter9_bdi_1_868" x="157.65" y="136.211" width="189.255" height="196.693" filterUnits="userSpaceOnUse" color-interpolation-filters="sRGB">
<feFlood flood-opacity="0" result="BackgroundImageFix"/>
<feGaussianBlur in="BackgroundImageFix" stdDeviation="10.7192"/>
<feComposite in2="SourceAlpha" operator="in" result="effect1_backgroundBlur_1_868"/>
<feColorMatrix in="SourceAlpha" type="matrix" values="0 0 0 0 0 0 0 0 0 0 0 0 0 0 0 0 0 0 127 0" result="hardAlpha"/>
<feOffset dy="14"/>
<feGaussianBlur stdDeviation="14"/>
<feComposite in2="hardAlpha" operator="out"/>
<feColorMatrix type="matrix" values="0 0 0 0 0.804167 0 0 0 0 0.804167 0 0 0 0 0.804167 0 0 0 0.25 0"/>
<feBlend mode="normal" in2="effect1_backgroundBlur_1_868" result="effect2_dropShadow_1_868"/>
<feBlend mode="normal" in="SourceGraphic" in2="effect2_dropShadow_1_868" result="shape"/>
<feColorMatrix in="SourceAlpha" type="matrix" values="0 0 0 0 0 0 0 0 0 0 0 0 0 0 0 0 0 0 127 0" result="hardAlpha"/>
<feOffset dx="-2.57262" dy="2.57262"/>
<feComposite in2="hardAlpha" operator="arithmetic" k2="-1" k3="1"/>
<feColorMatrix type="matrix" values="0 0 0 0 1 0 0 0 0 1 0 0 0 0 1 0 0 0 1 0"/>
<feBlend mode="normal" in2="shape" result="effect3_innerShadow_1_868"/>
</filter>
<filter id="filter10_bdi_1_868" x="269.141" y="269.702" width="290.007" height="297.446" filterUnits="userSpaceOnUse" color-interpolation-filters="sRGB">
<feFlood flood-opacity="0" result="BackgroundImageFix"/>
<feGaussianBlur in="BackgroundImageFix" stdDeviation="10.7192"/>
<feComposite in2="SourceAlpha" operator="in" result="effect1_backgroundBlur_1_868"/>
<feColorMatrix in="SourceAlpha" type="matrix" values="0 0 0 0 0 0 0 0 0 0 0 0 0 0 0 0 0 0 127 0" result="hardAlpha"/>
<feOffset dy="14"/>
<feGaussianBlur stdDeviation="14"/>
<feComposite in2="hardAlpha" operator="out"/>
<feColorMatrix type="matrix" values="0 0 0 0 0.804167 0 0 0 0 0.804167 0 0 0 0 0.804167 0 0 0 0.25 0"/>
<feBlend mode="normal" in2="effect1_backgroundBlur_1_868" result="effect2_dropShadow_1_868"/>
<feBlend mode="normal" in="SourceGraphic" in2="effect2_dropShadow_1_868" result="shape"/>
<feColorMatrix in="SourceAlpha" type="matrix" values="0 0 0 0 0 0 0 0 0 0 0 0 0 0 0 0 0 0 127 0" result="hardAlpha"/>
<feOffset dx="-2.57262" dy="2.57262"/>
<feComposite in2="hardAlpha" operator="arithmetic" k2="-1" k3="1"/>
<feColorMatrix type="matrix" values="0 0 0 0 1 0 0 0 0 1 0 0 0 0 1 0 0 0 1 0"/>
<feBlend mode="normal" in2="shape" result="effect3_innerShadow_1_868"/>
</filter>
<filter id="filter11_bdi_1_868" x="287.934" y="288.496" width="252.42" height="259.859" filterUnits="userSpaceOnUse" color-interpolation-filters="sRGB">
<feFlood flood-opacity="0" result="BackgroundImageFix"/>
<feGaussianBlur in="BackgroundImageFix" stdDeviation="10.7192"/>
<feComposite in2="SourceAlpha" operator="in" result="effect1_backgroundBlur_1_868"/>
<feColorMatrix in="SourceAlpha" type="matrix" values="0 0 0 0 0 0 0 0 0 0 0 0 0 0 0 0 0 0 127 0" result="hardAlpha"/>
<feOffset dy="14"/>
<feGaussianBlur stdDeviation="14"/>
<feComposite in2="hardAlpha" operator="out"/>
<feColorMatrix type="matrix" values="0 0 0 0 0.804167 0 0 0 0 0.804167 0 0 0 0 0.804167 0 0 0 0.25 0"/>
<feBlend mode="normal" in2="effect1_backgroundBlur_1_868" result="effect2_dropShadow_1_868"/>
<feBlend mode="normal" in="SourceGraphic" in2="effect2_dropShadow_1_868" result="shape"/>
<feColorMatrix in="SourceAlpha" type="matrix" values="0 0 0 0 0 0 0 0 0 0 0 0 0 0 0 0 0 0 127 0" result="hardAlpha"/>
<feOffset dx="-2.57262" dy="2.57262"/>
<feComposite in2="hardAlpha" operator="arithmetic" k2="-1" k3="1"/>
<feColorMatrix type="matrix" values="0 0 0 0 1 0 0 0 0 1 0 0 0 0 1 0 0 0 1 0"/>
<feBlend mode="normal" in2="shape" result="effect3_innerShadow_1_868"/>
</filter>
<linearGradient id="paint0_linear_1_868" x1="509.359" y1="377.627" x2="306.471" y2="354.567" gradientUnits="userSpaceOnUse">
<stop stop-color="#F4F4F4"/>
<stop offset="0.421875" stop-color="#F4F4F4"/>
<stop offset="1" stop-color="white"/>
</linearGradient>
<linearGradient id="paint1_linear_1_868" x1="494.066" y1="382.529" x2="323.766" y2="363.173" gradientUnits="userSpaceOnUse">
<stop stop-color="#F4F4F4"/>
<stop offset="0.421875" stop-color="#F4F4F4"/>
<stop offset="1" stop-color="white"/>
</linearGradient>
<linearGradient id="paint2_linear_1_868" x1="649.967" y1="205.706" x2="534.31" y2="193.708" gradientUnits="userSpaceOnUse">
<stop stop-color="#F4F4F4"/>
<stop offset="0.421875" stop-color="#F4F4F4"/>
<stop offset="1" stop-color="white"/>
</linearGradient>
<linearGradient id="paint3_linear_1_868" x1="718.497" y1="377.899" x2="602.963" y2="364.768" gradientUnits="userSpaceOnUse">
<stop stop-color="#F4F4F4"/>
<stop offset="0.421875" stop-color="#F4F4F4"/>
<stop offset="1" stop-color="white"/>
</linearGradient>
<linearGradient id="paint4_linear_1_868" x1="649.497" y1="543.899" x2="533.963" y2="530.768" gradientUnits="userSpaceOnUse">
<stop stop-color="#F4F4F4"/>
<stop offset="0.421875" stop-color="#F4F4F4"/>
<stop offset="1" stop-color="white"/>
</linearGradient>
<linearGradient id="paint5_linear_1_868" x1="476.497" y1="624.899" x2="360.963" y2="611.768" gradientUnits="userSpaceOnUse">
<stop stop-color="#F4F4F4"/>
<stop offset="0.421875" stop-color="#F4F4F4"/>
<stop offset="1" stop-color="white"/>
</linearGradient>
<linearGradient id="paint6_linear_1_868" x1="306.497" y1="543.899" x2="190.963" y2="530.768" gradientUnits="userSpaceOnUse">
<stop stop-color="#F4F4F4"/>
<stop offset="0.421875" stop-color="#F4F4F4"/>
<stop offset="1" stop-color="white"/>
</linearGradient>
<linearGradient id="paint7_linear_1_868" x1="227.497" y1="376.899" x2="111.963" y2="363.768" gradientUnits="userSpaceOnUse">
<stop stop-color="#F4F4F4"/>
<stop offset="0.421875" stop-color="#F4F4F4"/>
<stop offset="1" stop-color="white"/>
</linearGradient>
<linearGradient id="paint8_linear_1_868" x1="306.497" y1="206.899" x2="190.963" y2="193.768" gradientUnits="userSpaceOnUse">
<stop stop-color="#F4F4F4"/>
<stop offset="0.421875" stop-color="#F4F4F4"/>
<stop offset="1" stop-color="white"/>
</linearGradient>
<linearGradient id="paint9_linear_1_868" x1="509.359" y1="377.627" x2="306.471" y2="354.567" gradientUnits="userSpaceOnUse">
<stop stop-color="#F4F4F4"/>
<stop offset="0.421875" stop-color="#F4F4F4"/>
<stop offset="1" stop-color="white"/>
</linearGradient>
<linearGradient id="paint10_linear_1_868" x1="494.066" y1="382.529" x2="323.766" y2="363.173" gradientUnits="userSpaceOnUse">
<stop stop-color="#F4F4F4"/>
<stop offset="0.421875" stop-color="#F4F4F4"/>
<stop offset="1" stop-color="white"/>
</linearGradient>
</defs>
</svg>
