<svg width="335" height="263" viewBox="0 0 335 263" fill="none" xmlns="http://www.w3.org/2000/svg">
<g filter="url(#filter0_bdi_0_1)">
<rect x="9.5625" y="95.293" width="249.581" height="121.99" rx="25.7262" transform="rotate(-21.456 9.5625 95.293)" fill="url(#paint0_linear_0_1)" fill-opacity="0.93" shape-rendering="crispEdges"/>
</g>
<path d="M121.709 87.0962L124.748 85.9682L126.421 90.8216L123.607 91.866L121.709 87.0962ZM129.769 108.468L132.583 107.423L134.46 112.137L131.422 113.265L129.769 108.468ZM130.267 94.1964C129.784 93.7569 129.284 93.3875 128.767 93.0883C128.269 92.7822 127.75 92.5908 127.209 92.514C126.68 92.4115 126.125 92.4682 125.544 92.684C124.962 92.8999 124.519 93.1712 124.213 93.498C123.9 93.8061 123.706 94.145 123.63 94.5148C123.572 94.8776 123.624 95.2747 123.784 95.7062C124.007 96.3065 124.394 96.7176 124.946 96.9396C125.517 97.1547 126.201 97.2741 127 97.2978C127.791 97.3028 128.637 97.3092 129.536 97.3169C130.239 97.3123 130.943 97.3708 131.65 97.4927C132.376 97.6075 133.07 97.8089 133.731 98.0969C134.393 98.3848 134.987 98.8048 135.512 99.3569C136.03 99.8903 136.453 100.598 136.78 101.479C137.218 102.661 137.307 103.792 137.046 104.87C136.803 105.942 136.244 106.907 135.367 107.766C134.484 108.606 133.311 109.298 131.848 109.841C130.685 110.273 129.513 110.451 128.333 110.377C127.146 110.284 126.025 109.996 124.97 109.512C123.916 109.029 123.005 108.385 122.237 107.582L124.45 104.487C125.188 105.152 125.896 105.679 126.573 106.068C127.251 106.457 127.937 106.693 128.63 106.778C129.316 106.843 130.024 106.74 130.756 106.469C131.356 106.246 131.822 105.977 132.153 105.662C132.496 105.321 132.699 104.947 132.761 104.54C132.835 104.107 132.778 103.637 132.59 103.13C132.361 102.511 131.976 102.078 131.435 101.83C130.888 101.564 130.24 101.399 129.491 101.335C128.742 101.272 127.93 101.242 127.057 101.246C126.506 101.259 125.875 101.226 125.164 101.149C124.452 101.071 123.737 100.899 123.019 100.632C122.301 100.365 121.639 99.9601 121.031 99.4171C120.443 98.8671 119.975 98.1231 119.627 97.1852C119.279 96.2472 119.243 95.2893 119.521 94.3113C119.791 93.3145 120.336 92.3972 121.156 91.5592C121.976 90.7212 123.015 90.069 124.272 89.6025C125.547 89.129 126.703 88.935 127.737 89.0205C128.765 89.0872 129.688 89.3315 130.507 89.7534C131.344 90.1684 132.06 90.6603 132.655 91.2291L130.267 94.1964ZM139.157 102.678L144.477 82.423L147.207 81.41L154.518 101.107L150.381 102.642L148.543 97.6896L148.766 97.2548L145.789 89.2354L143.611 97.5992L150.646 94.9883L150.968 94.3887L154.991 92.8952L156.265 96.3281L139.157 102.678ZM160.207 97.106C159.971 96.4682 159.988 95.8535 160.259 95.2619C160.542 94.6446 161.012 94.2141 161.669 93.9704C162.344 93.7198 162.981 93.7395 163.58 94.0295C164.171 94.3008 164.585 94.7554 164.822 95.3932C165.045 95.9935 165.024 96.5988 164.76 97.2092C164.495 97.8195 164.026 98.25 163.35 98.5007C162.694 98.7443 162.057 98.7246 161.439 98.4415C160.841 98.1515 160.43 97.7063 160.207 97.106ZM170.39 87.4999C170.668 88.2503 171.072 88.8477 171.599 89.2921C172.12 89.7177 172.712 89.989 173.374 90.106C174.048 90.1973 174.732 90.1141 175.427 89.8565C176.121 89.5989 176.684 89.219 177.117 88.717C177.561 88.1892 177.842 87.5941 177.959 86.9318C178.069 86.2506 177.984 85.5349 177.706 84.7845C177.434 84.053 177.035 83.465 176.507 83.0206C175.972 82.5574 175.368 82.2802 174.694 82.1889C174.031 82.0719 173.353 82.1422 172.659 82.3999C171.965 82.6575 171.396 83.0502 170.951 83.5779C170.519 84.08 170.251 84.681 170.148 85.3809C170.038 86.062 170.118 86.7683 170.39 87.4999ZM169.613 73.1578L174.706 71.2674L171.16 81.0353L170.522 81.5601C170.822 80.8726 171.179 80.3668 171.592 80.0426C172.024 79.7115 172.587 79.4172 173.281 79.1596C174.031 78.8811 174.819 78.7596 175.643 78.7952C176.486 78.8238 177.293 79.015 178.065 79.3689C178.837 79.7228 179.537 80.231 180.167 80.8935C180.798 81.5561 181.29 82.3657 181.645 83.3224C182.216 84.8606 182.353 86.2932 182.056 87.62C181.777 88.9399 181.17 90.0936 180.235 91.0811C179.293 92.0498 178.118 92.7953 176.711 93.3175C175.304 93.8397 173.928 94.0411 172.581 93.9218C171.228 93.7838 170.006 93.309 168.915 92.4973C167.843 91.6787 167.022 90.5003 166.451 88.9621C166.089 87.9866 165.942 87.0166 166.011 86.0519C166.073 85.0685 166.253 84.116 166.551 83.1943L169.613 73.1578ZM199.519 77.1685C199.951 78.3316 200.108 79.4152 199.989 80.4195C199.871 81.4238 199.547 82.3337 199.018 83.1493C198.488 83.9648 197.822 84.671 197.019 85.2678C196.216 85.8647 195.336 86.3406 194.379 86.6957C193.179 87.1413 192.048 87.401 190.987 87.4747C189.944 87.5414 188.983 87.482 188.103 87.2963C187.216 87.0919 186.4 86.8187 185.654 86.4766L186.38 82.6535C187.023 82.9484 187.686 83.1825 188.369 83.3558C189.071 83.5221 189.764 83.6064 190.448 83.6087C191.125 83.5922 191.736 83.4831 192.28 83.2811C193.124 82.9678 193.788 82.5719 194.272 82.0935C194.775 81.608 195.095 81.0623 195.233 80.4562C195.364 79.8313 195.293 79.1531 195.022 78.4215C194.757 77.7087 194.347 77.178 193.791 76.8296C193.253 76.4741 192.63 76.2893 191.92 76.2752C191.222 76.2354 190.517 76.3478 189.804 76.6124C189.279 76.8073 188.743 77.0596 188.196 77.3693C187.643 77.6601 187.095 78.0236 186.552 78.4597C186.022 78.8701 185.488 79.3882 184.952 80.0141L183.539 67.925L194.259 63.9459L195.554 67.435L187.816 70.3071L188.138 74.7976C188.529 74.354 188.978 73.9843 189.487 73.6886C190.008 73.3672 190.56 73.0985 191.141 72.8827C192.211 72.4858 193.293 72.3829 194.388 72.574C195.484 72.765 196.484 73.2473 197.39 74.0208C198.308 74.7687 199.018 75.8179 199.519 77.1685ZM199.657 67.3528C199.267 66.3023 199.211 65.288 199.488 64.3101C199.766 63.3321 200.297 62.4627 201.081 61.7018C201.878 60.9153 202.858 60.3062 204.021 59.8745C205.165 59.4498 206.286 59.2791 207.384 59.3624C208.494 59.42 209.473 59.7289 210.322 60.2892C211.189 60.8424 211.817 61.6443 212.207 62.6948C212.527 63.5577 212.631 64.3836 212.518 65.1725C212.417 65.9356 212.147 66.6443 211.707 67.2985C211.285 67.9458 210.741 68.5213 210.074 69.0249C209.408 69.5285 208.671 69.93 207.864 70.2294C207.058 70.5288 206.237 70.7052 205.403 70.7585C204.57 70.8119 203.772 70.7343 203.012 70.5257C202.27 70.3101 201.603 69.9495 201.01 69.444C200.428 68.9128 199.978 68.2157 199.657 67.3528ZM203.574 66.3472C203.762 66.8537 204.038 67.2528 204.403 67.5444C204.767 67.836 205.178 68.0248 205.637 68.1106C206.089 68.1777 206.549 68.1242 207.018 67.9502C207.487 67.7761 207.871 67.5163 208.17 67.1707C208.461 66.8063 208.641 66.3983 208.708 65.9465C208.794 65.4878 208.742 65.0052 208.555 64.4987C208.373 64.0109 208.107 63.6084 207.754 63.2911C207.402 62.9737 206.999 62.7815 206.548 62.7144C206.096 62.6473 205.626 62.7043 205.138 62.8853C204.651 63.0663 204.258 63.3296 203.959 63.6752C203.66 64.0208 203.472 64.4324 203.393 64.9099C203.333 65.3804 203.393 65.8595 203.574 66.3472ZM202.515 77.209C202.146 76.2148 202.036 75.2847 202.184 74.4187C202.325 73.5339 202.646 72.7317 203.147 72.0121C203.667 71.2855 204.298 70.6565 205.04 70.125C205.782 69.5935 206.556 69.1781 207.363 68.8787C208.17 68.5793 209.027 68.389 209.936 68.3078C210.845 68.2265 211.724 68.2951 212.574 68.5134C213.442 68.7247 214.218 69.1196 214.902 69.698C215.58 70.2577 216.103 71.0346 216.472 72.0289C216.792 72.8918 216.897 73.7493 216.786 74.6013C216.669 75.4347 216.376 76.2264 215.907 76.9766C215.457 77.7198 214.863 78.3888 214.123 78.9835C213.395 79.5524 212.562 80.011 211.624 80.3591C210.686 80.7072 209.746 80.9067 208.805 80.9574C207.875 80.9823 206.988 80.8634 206.143 80.6006C205.299 80.3378 204.56 79.929 203.927 79.3742C203.306 78.7936 202.835 78.0719 202.515 77.209ZM206.263 75.1455C206.507 75.8021 206.844 76.3067 207.273 76.6595C207.715 76.9865 208.206 77.1884 208.747 77.2651C209.299 77.3162 209.848 77.2407 210.392 77.0388C210.917 76.8439 211.363 76.5503 211.73 76.1581C212.108 75.7401 212.358 75.2632 212.479 74.7273C212.593 74.1727 212.529 73.5671 212.285 72.9105C212.083 72.3665 211.758 71.9216 211.309 71.5759C210.861 71.2301 210.353 71.0129 209.787 70.9244C209.239 70.8288 208.703 70.8786 208.178 71.0735C207.634 71.2754 207.176 71.5947 206.804 72.0314C206.452 72.4611 206.218 72.9533 206.104 73.508C206.008 74.0557 206.061 74.6015 206.263 75.1455Z" fill="#303030"/>
<path d="M134.077 132.196L138.618 130.51L138.04 128.954L133.5 130.639L134.077 132.196ZM131.313 124.748L135.854 123.062L135.276 121.506L130.735 123.191L131.313 124.748ZM132.588 128.182L136.871 126.592L136.303 125.062L132.02 126.652L132.588 128.182ZM129.552 123.631L132.894 132.635L134.669 131.976L131.327 122.972L129.552 123.631ZM140.777 127.616C140.714 127.444 140.7 127.289 140.736 127.149C140.768 127 140.855 126.865 140.996 126.745C141.133 126.616 141.33 126.503 141.588 126.408C141.905 126.29 142.221 126.222 142.536 126.202C142.859 126.18 143.168 126.211 143.464 126.297L143.177 125.525C143.053 125.454 142.872 125.399 142.633 125.361C142.395 125.323 142.115 125.319 141.795 125.35C141.484 125.378 141.139 125.462 140.762 125.602C140.024 125.876 139.516 126.255 139.237 126.739C138.958 127.223 138.925 127.752 139.139 128.327C139.288 128.73 139.51 129.038 139.804 129.251C140.103 129.452 140.438 129.567 140.809 129.595C141.181 129.623 141.551 129.568 141.92 129.431C142.28 129.298 142.599 129.106 142.877 128.856C143.164 128.604 143.362 128.31 143.472 127.977C143.591 127.64 143.581 127.283 143.441 126.905L142.948 126.21C143.054 126.493 143.08 126.761 143.028 127.015C142.972 127.26 142.862 127.476 142.698 127.664C142.53 127.843 142.318 127.981 142.061 128.076C141.88 128.143 141.702 128.175 141.525 128.173C141.354 128.158 141.203 128.107 141.073 128.018C140.94 127.922 140.841 127.787 140.777 127.616ZM139.241 125.449C139.305 125.357 139.411 125.235 139.559 125.083C139.707 124.93 139.895 124.778 140.121 124.625C140.347 124.473 140.598 124.346 140.872 124.244C141.052 124.177 141.222 124.134 141.38 124.114C141.539 124.094 141.684 124.104 141.815 124.143C141.955 124.179 142.073 124.247 142.169 124.348C142.262 124.44 142.339 124.568 142.399 124.731L143.827 128.577L145.435 127.98L143.878 123.787C143.729 123.384 143.492 123.086 143.167 122.895C142.839 122.694 142.451 122.595 142.002 122.595C141.553 122.596 141.076 122.69 140.57 122.878C140.021 123.082 139.553 123.343 139.164 123.663C138.772 123.975 138.452 124.269 138.204 124.546L139.241 125.449ZM146.422 120.881L144.788 121.488L146.985 127.405L148.618 126.799L146.422 120.881ZM148.803 121.973L149.037 120.277C148.86 120.167 148.658 120.11 148.432 120.106C148.215 120.099 147.999 120.135 147.785 120.215C147.476 120.329 147.217 120.552 147.008 120.883C146.796 121.206 146.669 121.585 146.625 122.021C146.579 122.448 146.643 122.897 146.818 123.369L147.453 123.66C147.348 123.377 147.294 123.124 147.289 122.901C147.29 122.667 147.342 122.467 147.447 122.301C147.551 122.136 147.706 122.015 147.912 121.938C148.084 121.875 148.236 121.852 148.37 121.871C148.509 121.878 148.653 121.912 148.803 121.973ZM154.48 120.525L155.817 124.127L157.541 123.487L156.137 119.705C155.873 118.993 155.496 118.504 155.007 118.237C154.514 117.961 153.916 117.954 153.213 118.215C152.793 118.371 152.466 118.594 152.233 118.886C152.005 119.165 151.863 119.506 151.807 119.907L151.473 119.007L149.801 119.628L151.997 125.545L153.669 124.924L152.332 121.322C152.24 121.074 152.207 120.842 152.235 120.627C152.262 120.411 152.349 120.223 152.494 120.062C152.636 119.892 152.822 119.765 153.054 119.679C153.397 119.551 153.684 119.562 153.915 119.71C154.145 119.859 154.334 120.13 154.48 120.525ZM162.021 121.97C162.733 121.706 163.291 121.343 163.695 120.881C164.104 120.407 164.36 119.834 164.462 119.162L162.841 119.251C162.775 119.598 162.636 119.893 162.424 120.138C162.218 120.37 161.93 120.555 161.561 120.692C161.235 120.813 160.93 120.844 160.644 120.784C160.358 120.724 160.105 120.579 159.883 120.349C159.669 120.116 159.49 119.802 159.343 119.408C159.199 118.993 159.132 118.628 159.141 118.312C159.156 117.984 159.246 117.712 159.409 117.496C159.578 117.267 159.825 117.092 160.151 116.971C160.417 116.873 160.671 116.847 160.913 116.894C161.154 116.94 161.365 117.048 161.544 117.215C161.732 117.38 161.88 117.608 161.988 117.899C162.011 117.959 162.022 118.043 162.023 118.15C162.029 118.245 162.024 118.325 162.009 118.389L162.24 117.63L158.394 119.058L158.776 120.087L164.075 118.12C164.065 118.065 164.043 117.995 164.012 117.909C163.988 117.82 163.962 117.737 163.934 117.66C163.698 117.026 163.378 116.53 162.972 116.173C162.563 115.808 162.084 115.595 161.535 115.535C160.992 115.464 160.394 115.549 159.742 115.791C159.091 116.033 158.572 116.372 158.188 116.807C157.8 117.234 157.559 117.729 157.465 118.29C157.376 118.84 157.45 119.433 157.685 120.067C157.918 120.693 158.248 121.19 158.677 121.558C159.112 121.913 159.617 122.131 160.193 122.21C160.769 122.289 161.378 122.209 162.021 121.97ZM167.057 108.539L170.781 118.573L172.453 117.952L168.729 107.919L167.057 108.539ZM164.82 117.419C165.062 118.071 165.402 118.579 165.84 118.943C166.277 119.308 166.759 119.529 167.286 119.606C167.812 119.684 168.32 119.632 168.809 119.451C169.306 119.266 169.697 118.98 169.982 118.591C170.276 118.199 170.444 117.732 170.487 117.189C170.538 116.643 170.445 116.053 170.21 115.418C169.971 114.775 169.656 114.268 169.264 113.896C168.878 113.513 168.446 113.268 167.968 113.163C167.498 113.054 167.015 113.092 166.517 113.277C166.028 113.458 165.61 113.75 165.262 114.152C164.913 114.555 164.692 115.037 164.598 115.599C164.501 116.152 164.575 116.759 164.82 117.419ZM166.544 116.779C166.413 116.428 166.373 116.096 166.424 115.785C166.474 115.473 166.598 115.203 166.796 114.973C166.993 114.744 167.234 114.577 167.517 114.472C167.766 114.379 168.031 114.359 168.314 114.41C168.601 114.449 168.866 114.571 169.107 114.774C169.357 114.974 169.549 115.254 169.683 115.614C169.816 115.974 169.854 116.312 169.795 116.626C169.744 116.938 169.625 117.207 169.436 117.433C169.252 117.647 169.036 117.801 168.787 117.893C168.504 117.998 168.213 118.028 167.913 117.983C167.613 117.938 167.343 117.814 167.102 117.611C166.86 117.408 166.674 117.131 166.544 116.779ZM174.439 108.858L176.858 107.96L179.584 115.305L181.423 114.623L178.697 107.278L181.128 106.375L180.512 104.716L173.823 107.199L174.439 108.858ZM182.693 102.736L181.021 103.356L184.745 113.39L186.417 112.769L182.693 102.736ZM187.229 108.37L188.565 111.972L190.238 111.351L188.81 107.505C188.629 107.016 188.403 106.632 188.133 106.351C187.86 106.062 187.542 105.888 187.178 105.828C186.814 105.768 186.401 105.823 185.938 105.995C185.474 106.167 185.126 106.424 184.891 106.764C184.657 107.105 184.528 107.494 184.505 107.932C184.491 108.367 184.571 108.82 184.746 109.291L185.081 109.167C184.988 108.919 184.956 108.687 184.983 108.472C185.011 108.257 185.097 108.068 185.242 107.907C185.384 107.737 185.571 107.61 185.802 107.524C186.154 107.393 186.441 107.404 186.663 107.555C186.894 107.704 187.082 107.975 187.229 108.37ZM188.757 102.563C188.856 102.829 189.037 103.016 189.301 103.122C189.565 103.229 189.834 103.232 190.109 103.13C190.383 103.028 190.581 102.852 190.703 102.602C190.834 102.349 190.849 102.089 190.751 101.823C190.649 101.549 190.468 101.363 190.207 101.264C189.951 101.154 189.686 101.15 189.412 101.252C189.137 101.354 188.935 101.531 188.805 101.785C188.671 102.029 188.655 102.289 188.757 102.563ZM189.787 104.786L191.983 110.703L193.604 110.102L191.408 104.185L189.787 104.786ZM194.909 107.29L194.485 108.633C194.788 108.764 195.111 108.874 195.456 108.961C195.806 109.036 196.173 109.065 196.557 109.049C196.95 109.03 197.357 108.943 197.777 108.787C198.454 108.535 198.926 108.175 199.191 107.706C199.452 107.228 199.473 106.694 199.254 106.102C199.12 105.742 198.93 105.48 198.685 105.318C198.439 105.156 198.152 105.052 197.823 105.008C197.5 104.953 197.158 104.924 196.796 104.921C196.497 104.905 196.231 104.897 195.996 104.896C195.77 104.892 195.584 104.864 195.438 104.811C195.297 104.746 195.202 104.649 195.154 104.521C195.1 104.375 195.112 104.249 195.189 104.142C195.272 104.023 195.408 103.929 195.597 103.859C195.88 103.754 196.194 103.72 196.54 103.758C196.894 103.792 197.221 103.885 197.522 104.037L197.873 102.736C197.614 102.618 197.335 102.536 197.035 102.491C196.733 102.437 196.419 102.422 196.096 102.444C195.773 102.467 195.444 102.54 195.109 102.664C194.715 102.811 194.379 103.009 194.1 103.258C193.828 103.496 193.643 103.774 193.547 104.093C193.447 104.403 193.463 104.734 193.593 105.086C193.73 105.454 193.925 105.729 194.177 105.908C194.434 106.076 194.718 106.185 195.03 106.235C195.338 106.277 195.648 106.299 195.961 106.3C196.288 106.286 196.561 106.287 196.782 106.302C197.002 106.318 197.18 106.364 197.316 106.441C197.457 106.505 197.556 106.615 197.614 106.769C197.677 106.941 197.668 107.1 197.586 107.248C197.501 107.387 197.347 107.498 197.124 107.58C196.953 107.644 196.756 107.678 196.533 107.683C196.319 107.684 196.079 107.656 195.814 107.598C195.545 107.532 195.244 107.429 194.909 107.29ZM205.141 100.068L209.318 103.318L210.363 98.1296L212.818 102.97L214.735 102.259L209.888 93.3007L208.277 100.514L202.35 96.0985L204.521 106.049L206.438 105.338L205.141 100.068ZM214.527 98.9697C214.753 99.5785 215.095 100.066 215.553 100.433C216.016 100.788 216.54 101.003 217.125 101.079C217.717 101.152 218.327 101.072 218.953 100.839C219.579 100.607 220.089 100.271 220.482 99.8328C220.884 99.3909 221.14 98.8859 221.251 98.3178C221.368 97.738 221.313 97.1436 221.087 96.5347C220.858 95.9173 220.512 95.4312 220.048 95.0763C219.593 94.7183 219.069 94.5029 218.477 94.4303C217.892 94.3544 217.287 94.4327 216.661 94.665C216.035 94.8974 215.521 95.2345 215.119 95.6764C214.726 96.1151 214.47 96.62 214.35 97.1913C214.239 97.7594 214.298 98.3522 214.527 98.9697ZM216.225 98.3394C216.101 98.005 216.06 97.6837 216.101 97.3755C216.152 97.0641 216.271 96.7953 216.46 96.5689C216.65 96.3426 216.89 96.1753 217.182 96.0671C217.473 95.9589 217.764 95.9288 218.055 95.9769C218.347 96.025 218.608 96.1522 218.841 96.3586C219.082 96.5617 219.265 96.8305 219.389 97.165C219.513 97.4994 219.55 97.8223 219.5 98.1337C219.455 98.4333 219.34 98.7006 219.154 98.9355C218.964 99.1618 218.724 99.3291 218.432 99.4373C218.141 99.5455 217.85 99.5756 217.559 99.5275C217.264 99.4708 216.998 99.3452 216.76 99.1506C216.527 98.9443 216.349 98.6739 216.225 98.3394ZM225.919 94.0097L227.256 97.6114L228.979 96.9716L227.576 93.1898C227.311 92.4781 226.935 91.9886 226.445 91.7215C225.953 91.4457 225.355 91.4384 224.651 91.6994C224.231 91.8553 223.904 92.079 223.671 92.3705C223.443 92.6503 223.301 92.9908 223.245 93.392L222.911 92.4916L221.239 93.1123L223.435 99.0293L225.107 98.4087L223.771 94.807C223.678 94.5583 223.646 94.3264 223.673 94.1113C223.701 93.8962 223.787 93.7081 223.932 93.5469C224.074 93.3772 224.261 93.2493 224.492 93.1634C224.835 93.0361 225.122 93.0467 225.353 93.1952C225.584 93.3437 225.772 93.6152 225.919 94.0097ZM227.665 90.7271L228.186 92.1291L231.839 90.7732L231.318 89.3711L227.665 90.7271ZM227.918 88.2918L230.878 96.2669L232.486 95.6702L229.526 87.695L227.918 88.2918ZM232.35 84.3051L230.678 84.9258L234.402 94.959L236.074 94.3384L232.35 84.3051ZM236.885 89.9394L238.222 93.5411L239.894 92.9204L238.467 89.0743C238.285 88.5855 238.059 88.2009 237.79 87.9206C237.516 87.6317 237.198 87.4572 236.834 87.3971C236.47 87.337 236.057 87.3929 235.594 87.5647C235.131 87.7366 234.782 87.9929 234.547 88.3336C234.313 88.6744 234.184 89.0636 234.161 89.5014C234.147 89.936 234.227 90.3892 234.402 90.8608L234.737 90.7367C234.645 90.488 234.612 90.2561 234.64 90.041C234.667 89.8259 234.753 89.6378 234.899 89.4766C235.04 89.3069 235.227 89.179 235.459 89.0931C235.81 88.9626 236.097 88.9732 236.319 89.1249C236.55 89.2734 236.739 89.5449 236.885 89.9394Z" fill="#303030"/>
<circle cx="82.0251" cy="133.075" r="33.8728" fill="#EBE1FF"/>
<g filter="url(#filter1_d_0_1)">
<circle cx="82.0249" cy="133.076" r="17.5796" fill="#967CF7"/>
<circle cx="82.0249" cy="133.076" r="17.1508" stroke="#785DE1" stroke-width="0.857539"/>
</g>
<defs>
<filter id="filter0_bdi_0_1" x="-4.25543" y="-9.81836" width="338.844" height="271.912" filterUnits="userSpaceOnUse" color-interpolation-filters="sRGB">
<feFlood flood-opacity="0" result="BackgroundImageFix"/>
<feGaussianBlur in="BackgroundImageFix" stdDeviation="10.7192"/>
<feComposite in2="SourceAlpha" operator="in" result="effect1_backgroundBlur_0_1"/>
<feColorMatrix in="SourceAlpha" type="matrix" values="0 0 0 0 0 0 0 0 0 0 0 0 0 0 0 0 0 0 127 0" result="hardAlpha"/>
<feOffset dx="19.7234" dy="24.8686"/>
<feGaussianBlur stdDeviation="18.0083"/>
<feComposite in2="hardAlpha" operator="out"/>
<feColorMatrix type="matrix" values="0 0 0 0 0.633333 0 0 0 0 0.633333 0 0 0 0 0.633333 0 0 0 0.25 0"/>
<feBlend mode="multiply" in2="effect1_backgroundBlur_0_1" result="effect2_dropShadow_0_1"/>
<feBlend mode="normal" in="SourceGraphic" in2="effect2_dropShadow_0_1" result="shape"/>
<feColorMatrix in="SourceAlpha" type="matrix" values="0 0 0 0 0 0 0 0 0 0 0 0 0 0 0 0 0 0 127 0" result="hardAlpha"/>
<feOffset dx="-2.57262" dy="2.57262"/>
<feComposite in2="hardAlpha" operator="arithmetic" k2="-1" k3="1"/>
<feColorMatrix type="matrix" values="0 0 0 0 1 0 0 0 0 1 0 0 0 0 1 0 0 0 1 0"/>
<feBlend mode="normal" in2="shape" result="effect3_innerShadow_0_1"/>
</filter>
<filter id="filter1_d_0_1" x="61.8727" y="115.496" width="45.4496" height="46.3072" filterUnits="userSpaceOnUse" color-interpolation-filters="sRGB">
<feFlood flood-opacity="0" result="BackgroundImageFix"/>
<feColorMatrix in="SourceAlpha" type="matrix" values="0 0 0 0 0 0 0 0 0 0 0 0 0 0 0 0 0 0 127 0" result="hardAlpha"/>
<feOffset dx="2.57262" dy="6.00277"/>
<feGaussianBlur stdDeviation="2.57262"/>
<feComposite in2="hardAlpha" operator="out"/>
<feColorMatrix type="matrix" values="0 0 0 0 0.727107 0 0 0 0 0.669826 0 0 0 0 0.841667 0 0 0 1 0"/>
<feBlend mode="normal" in2="BackgroundImageFix" result="effect1_dropShadow_0_1"/>
<feBlend mode="normal" in="SourceGraphic" in2="effect1_dropShadow_0_1" result="shape"/>
</filter>
<linearGradient id="paint0_linear_0_1" x1="237.122" y1="139.778" x2="29.1784" y2="91.4254" gradientUnits="userSpaceOnUse">
<stop stop-color="#F4F4F4"/>
<stop offset="0.421875" stop-color="#F4F4F4"/>
<stop offset="1" stop-color="white"/>
</linearGradient>
</defs>
</svg>
