<svg width="456" height="476" viewBox="0 0 456 476" fill="none" xmlns="http://www.w3.org/2000/svg">
<g filter="url(#filter0_bdi_0_1)">
<rect x="6.38263" y="111.923" width="301.843" height="336.15" rx="34.3016" transform="rotate(-21.456 6.38263 111.923)" fill="url(#paint0_linear_0_1)" fill-opacity="0.93" shape-rendering="crispEdges"/>
</g>
<path d="M47.2448 135.82L46.0755 137.614C46.5268 138.037 47.059 138.386 47.6721 138.659C48.2851 138.932 48.9366 139.085 49.6266 139.118C50.323 139.137 51.0112 139.011 51.6912 138.74C52.2012 138.537 52.6529 138.266 53.0464 137.925C53.4548 137.59 53.7878 137.205 54.0457 136.771C54.2992 136.325 54.4478 135.848 54.4913 135.338C54.5348 134.829 54.4489 134.303 54.2334 133.761C54.0433 133.283 53.7968 132.895 53.4938 132.597C53.1972 132.285 52.858 132.05 52.4761 131.894C52.1007 131.724 51.7049 131.611 51.2889 131.554C50.8835 131.494 50.4748 131.472 50.0629 131.488C49.4237 131.521 48.8823 131.521 48.4386 131.488C47.9907 131.445 47.6363 131.358 47.3754 131.228C47.1103 131.087 46.9228 130.879 46.813 130.602C46.7032 130.326 46.7197 130.043 46.8625 129.752C47.0012 129.451 47.2936 129.212 47.7398 129.034C48.0798 128.899 48.4101 128.848 48.7306 128.88C49.047 128.902 49.3504 128.985 49.641 129.127C49.938 129.255 50.2136 129.423 50.468 129.629L51.8601 127.931C51.5126 127.614 51.0917 127.345 50.5974 127.123C50.1096 126.886 49.5589 126.754 48.9453 126.728C48.3382 126.686 47.6786 126.807 46.9668 127.09C46.2762 127.364 45.7 127.741 45.2383 128.22C44.7829 128.684 44.4835 129.215 44.34 129.814C44.2029 130.397 44.2611 131.008 44.5146 131.645C44.7258 132.177 45.0084 132.593 45.3623 132.896C45.712 133.187 46.0938 133.405 46.5075 133.548C46.917 133.68 47.3255 133.764 47.7331 133.799C48.1471 133.819 48.5059 133.824 48.8096 133.814C49.385 133.806 49.8765 133.82 50.2841 133.855C50.6981 133.875 51.0323 133.957 51.2868 134.102C51.5519 134.243 51.7541 134.489 51.8935 134.839C52.0541 135.243 52.0374 135.619 51.8434 135.967C51.6495 136.314 51.3241 136.579 50.8672 136.761C50.4741 136.917 50.0738 136.978 49.6662 136.943C49.2586 136.908 48.8501 136.794 48.4407 136.6C48.042 136.401 47.6433 136.142 47.2448 135.82ZM53.6855 129.107L54.3762 130.844L58.9024 129.044L58.2117 127.307L53.6855 129.107ZM53.9307 126.056L57.8594 135.937L59.8516 135.145L55.9229 125.264L53.9307 126.056ZM63.1839 131.181C63.0994 130.968 63.0775 130.774 63.1182 130.598C63.1547 130.411 63.2591 130.24 63.4314 130.086C63.5995 129.921 63.8429 129.775 64.1616 129.648C64.5547 129.491 64.9477 129.397 65.3406 129.364C65.7441 129.326 66.1315 129.357 66.5029 129.455L66.1227 128.499C65.9657 128.414 65.7376 128.351 65.4383 128.31C65.139 128.269 64.7898 128.272 64.3905 128.32C64.0019 128.364 63.5738 128.479 63.1063 128.665C62.1926 129.028 61.5684 129.516 61.2338 130.129C60.8992 130.742 60.8734 131.404 61.1564 132.116C61.3549 132.616 61.6408 132.994 62.0139 133.252C62.3935 133.495 62.8157 133.628 63.2807 133.652C63.7456 133.677 64.2065 133.598 64.6634 133.416C65.1096 133.239 65.5029 132.99 65.8433 132.67C66.1943 132.346 66.4339 131.974 66.5622 131.554C66.7011 131.13 66.6776 130.684 66.4917 130.216L65.8565 129.361C65.996 129.712 66.0367 130.047 65.9787 130.365C65.9165 130.673 65.7853 130.946 65.5852 131.186C65.3809 131.415 65.1194 131.593 64.8007 131.719C64.5775 131.808 64.3556 131.853 64.1348 131.855C63.9203 131.842 63.7304 131.782 63.565 131.675C63.3954 131.558 63.2684 131.393 63.1839 131.181ZM61.2021 128.517C61.2788 128.401 61.4075 128.245 61.5884 128.05C61.7693 127.855 61.999 127.659 62.2776 127.462C62.5561 127.265 62.8654 127.099 63.2054 126.964C63.4285 126.875 63.6388 126.816 63.8363 126.787C64.0339 126.758 64.2154 126.766 64.3809 126.811C64.557 126.851 64.7066 126.933 64.8295 127.057C64.9481 127.169 65.0476 127.327 65.1278 127.529L67.0225 132.294L69.0146 131.502L66.9489 126.306C66.7504 125.807 66.4454 125.442 66.034 125.212C65.6183 124.971 65.1302 124.858 64.5696 124.871C64.0091 124.885 63.4154 125.017 62.7885 125.266C62.1085 125.536 61.5303 125.877 61.0538 126.288C60.5732 126.688 60.1817 127.065 59.8795 127.419L61.2021 128.517ZM67.4781 123.623L68.1688 125.36L72.695 123.56L72.0043 121.823L67.4781 123.623ZM67.7233 120.572L71.652 130.453L73.6442 129.661L69.7155 119.78L67.7233 120.572ZM72.278 118.429C72.409 118.758 72.641 118.986 72.9741 119.112C73.3072 119.238 73.6437 119.233 73.9837 119.098C74.3237 118.963 74.5662 118.737 74.7113 118.421C74.8669 118.101 74.8793 117.776 74.7483 117.447C74.6131 117.107 74.3811 116.879 74.0523 116.764C73.7298 116.634 73.3986 116.636 73.0586 116.771C72.7186 116.907 72.4708 117.134 72.3151 117.455C72.1552 117.764 72.1429 118.089 72.278 118.429ZM73.6291 121.177L76.5439 128.508L78.552 127.71L75.6372 120.379L73.6291 121.177ZM80.5006 124.001L80.0098 125.691C80.3917 125.846 80.7991 125.974 81.232 126.072C81.6713 126.156 82.1309 126.182 82.6109 126.151C83.1014 126.116 83.607 125.995 84.1276 125.788C84.9669 125.455 85.5454 124.991 85.863 124.397C86.1764 123.793 86.1873 123.124 85.8959 122.391C85.7184 121.944 85.4739 121.623 85.1622 121.427C84.8504 121.231 84.4887 121.111 84.0769 121.065C83.6715 121.005 83.2426 120.979 82.7904 120.986C82.4167 120.975 82.0834 120.972 81.7904 120.978C81.508 120.979 81.2745 120.949 81.0899 120.887C80.9117 120.81 80.7909 120.692 80.7275 120.533C80.6557 120.352 80.6667 120.194 80.7604 120.058C80.8605 119.908 81.0274 119.786 81.2612 119.693C81.6118 119.554 82.0036 119.502 82.4367 119.539C82.8804 119.572 83.292 119.679 83.6717 119.86L84.0732 118.224C83.7465 118.083 83.3953 117.989 83.0196 117.942C82.6397 117.884 82.248 117.873 81.8445 117.911C81.441 117.948 81.0321 118.049 80.6177 118.214C80.129 118.408 79.7144 118.665 79.374 118.985C79.04 119.29 78.8174 119.643 78.7062 120.044C78.5907 120.435 78.6196 120.848 78.7928 121.284C78.9744 121.74 79.2253 122.077 79.5455 122.295C79.8721 122.497 80.2306 122.625 80.6212 122.679C81.0075 122.722 81.396 122.74 81.7867 122.732C82.1944 122.706 82.5363 122.699 82.8123 122.712C83.0883 122.726 83.3122 122.778 83.4839 122.87C83.6621 122.947 83.7892 123.081 83.8653 123.272C83.9498 123.484 83.943 123.684 83.8449 123.871C83.7427 124.047 83.5534 124.189 83.2771 124.299C83.0646 124.384 82.8193 124.432 82.5411 124.444C82.2736 124.452 81.9732 124.424 81.64 124.36C81.3026 124.285 80.9228 124.165 80.5006 124.001ZM84.6886 116.78L85.3792 118.517L89.9054 116.718L89.2148 114.98L84.6886 116.78ZM84.9338 113.729L88.8624 123.611L90.8546 122.818L86.9259 112.937L84.9338 113.729ZM89.4885 111.586C89.6194 111.916 89.8514 112.143 90.1845 112.269C90.5176 112.395 90.8541 112.391 91.1941 112.255C91.5341 112.12 91.7766 111.895 91.9217 111.579C92.0773 111.258 92.0897 110.933 91.9587 110.604C91.8236 110.264 91.5915 110.036 91.2627 109.921C90.9402 109.791 90.609 109.793 90.269 109.929C89.929 110.064 89.6812 110.292 89.5255 110.612C89.3656 110.921 89.3533 111.246 89.4885 111.586ZM90.8395 114.334L93.7543 121.666L95.7624 120.867L92.8476 113.536L90.8395 114.334ZM98.4564 115.551C98.2917 115.137 98.2415 114.732 98.3061 114.337C98.3706 113.942 98.5263 113.591 98.7732 113.284C99.0266 112.962 99.3498 112.723 99.7429 112.566C100.04 112.448 100.357 112.378 100.692 112.355C101.028 112.332 101.354 112.363 101.67 112.446C101.993 112.515 102.264 112.641 102.485 112.824L101.642 110.704C101.298 110.582 100.894 110.54 100.429 110.577C99.9699 110.6 99.4697 110.719 98.9278 110.934C98.1522 111.242 97.5143 111.681 97.0142 112.249C96.5247 112.812 96.2133 113.453 96.0802 114.17C95.9577 114.883 96.0485 115.622 96.3527 116.387C96.6526 117.142 97.0941 117.741 97.677 118.186C98.2664 118.617 98.9325 118.868 99.6755 118.942C100.429 119.012 101.194 118.892 101.969 118.584C102.511 118.368 102.959 118.117 103.312 117.829C103.671 117.526 103.932 117.207 104.094 116.872L103.251 114.752C103.217 115.036 103.113 115.318 102.941 115.595C102.774 115.858 102.564 116.102 102.308 116.327C102.049 116.54 101.76 116.711 101.441 116.837C101.048 116.994 100.651 117.047 100.25 116.997C99.8591 116.944 99.5048 116.795 99.1868 116.553C98.8689 116.31 98.6254 115.976 98.4564 115.551Z" fill="#353E6C"/>
<g filter="url(#filter1_d_0_1)">
<rect x="49.7518" y="154.177" width="257.262" height="257.262" rx="25.7262" transform="rotate(-21.6824 49.7518 154.177)" fill="white"/>
</g>
<rect x="291.154" y="157.863" width="2.57262" height="111.48" rx="1.28631" transform="rotate(-21.6824 291.154 157.863)" fill="#EFF3FE"/>
<rect x="318.871" y="229.897" width="4.2877" height="34.3016" rx="2.14385" transform="rotate(-21.6824 318.871 229.897)" fill="#23C0F7"/>
<path d="M338.217 279.109L339.007 278.795L336.403 272.248L335.605 272.565L334.36 274.51L334.687 275.331L335.94 273.435L335.959 273.428L338.217 279.109ZM339.24 273.311L340.03 272.997C339.737 272.262 340.125 271.467 340.933 271.146C341.682 270.848 342.366 271.169 342.623 271.814C342.839 272.358 342.776 272.793 342.257 274.066L340.908 277.387L341.132 277.95L345.451 276.233L345.163 275.507L341.964 276.778L341.957 276.76L342.878 274.544C343.59 272.832 343.706 272.161 343.42 271.439C343.024 270.445 341.861 269.952 340.65 270.433C339.388 270.935 338.784 272.163 339.24 273.311Z" fill="#BACCFD"/>
<rect x="276.013" y="163.883" width="2.57262" height="111.48" rx="1.28631" transform="rotate(-21.6824 276.013 163.883)" fill="#EFF3FE"/>
<rect x="303.73" y="235.917" width="4.2877" height="34.3016" rx="2.14385" transform="rotate(-21.6824 303.73 235.917)" fill="#23C0F7"/>
<path d="M323.873 284.812L324.663 284.498L322.059 277.95L321.261 278.268L320.016 280.213L320.343 281.034L321.596 279.138L321.615 279.131L323.873 284.812ZM328.458 282.989L329.247 282.675L326.644 276.128L325.845 276.445L324.601 278.39L324.928 279.211L326.181 277.315L326.199 277.308L328.458 282.989Z" fill="#BACCFD"/>
<rect x="261.671" y="169.586" width="2.57262" height="111.48" rx="1.28631" transform="rotate(-21.6824 261.671 169.586)" fill="#EFF3FE"/>
<rect x="286.22" y="233.652" width="4.2877" height="42.877" rx="2.14385" transform="rotate(-21.6824 286.22 233.652)" fill="#23C0F7"/>
<path d="M308.735 290.832L309.524 290.518L306.921 283.97L306.122 284.288L304.878 286.233L305.204 287.054L306.458 285.158L306.476 285.151L308.735 290.832ZM313.984 288.871C315.508 288.264 315.864 286.594 315.041 284.525C314.224 282.47 312.814 281.501 311.294 282.105C309.774 282.71 309.409 284.395 310.224 286.445C311.047 288.514 312.455 289.478 313.984 288.871ZM313.701 288.158C312.675 288.566 311.693 287.748 311.044 286.114C310.409 284.517 310.567 283.225 311.579 282.822C312.591 282.42 313.581 283.245 314.222 284.856C314.871 286.49 314.722 287.752 313.701 288.158Z" fill="#BACCFD"/>
<rect x="245.748" y="175.922" width="2.57262" height="111.48" rx="1.28631" transform="rotate(-21.6824 245.748 175.922)" fill="#EFF3FE"/>
<rect x="281.386" y="267.878" width="4.2877" height="12.8631" rx="2.14385" transform="rotate(-21.6824 281.386 267.878)" fill="#23C0F7"/>
<path fill-rule="evenodd" clip-rule="evenodd" d="M82.0009 187.285C81.8191 187.217 81.7265 187.015 81.7941 186.833L82.8954 183.871C82.963 183.689 83.1652 183.596 83.347 183.664C83.5288 183.731 83.6213 183.934 83.5538 184.115L82.7478 186.283L93.4711 181.372C93.6474 181.292 93.8558 181.369 93.9366 181.545C94.0173 181.722 93.9398 181.93 93.7635 182.011L83.0403 186.922L85.2081 187.728C85.3898 187.795 85.4824 187.997 85.4148 188.179C85.3473 188.361 85.1451 188.454 84.9633 188.386L82.0009 187.285Z" fill="#121212"/>
<path fill-rule="evenodd" clip-rule="evenodd" d="M287.392 107.382C287.456 107.198 287.358 106.998 287.175 106.935L284.186 105.908C284.002 105.845 283.803 105.942 283.74 106.125C283.676 106.309 283.774 106.509 283.957 106.572L286.144 107.324L275.546 112.499C275.372 112.584 275.299 112.794 275.385 112.968C275.47 113.142 275.68 113.215 275.854 113.13L286.453 107.955L285.701 110.142C285.638 110.325 285.735 110.525 285.919 110.588C286.102 110.651 286.302 110.554 286.365 110.37L287.392 107.382Z" fill="#121212"/>
<path d="M119.04 170.974C119.763 170.849 120.427 170.959 121.031 171.302C121.646 171.642 122.084 172.147 122.345 172.817C122.703 173.738 122.68 174.591 122.274 175.377C121.864 176.151 121.073 176.767 119.9 177.224L115.487 178.942L111.168 167.853L115.503 166.165C116.613 165.733 117.559 165.654 118.341 165.928C119.13 166.188 119.693 166.752 120.032 167.621C120.305 168.323 120.344 168.965 120.149 169.547C119.95 170.119 119.58 170.595 119.04 170.974ZM114.818 171.931L117.033 171.068C117.661 170.824 118.081 170.492 118.291 170.072C118.512 169.648 118.52 169.175 118.317 168.651C118.117 168.138 117.792 167.8 117.343 167.637C116.904 167.471 116.35 167.518 115.679 167.779L113.528 168.617L114.818 171.931ZM118.964 175.888C119.645 175.623 120.109 175.267 120.357 174.821C120.612 174.36 120.631 173.852 120.415 173.297C120.199 172.742 119.841 172.381 119.342 172.213C118.843 172.046 118.253 172.095 117.572 172.36L115.326 173.235L116.702 176.769L118.964 175.888ZM130.198 163.246L133.568 171.901L131.762 172.604L131.028 170.72C131.057 171.444 130.868 172.09 130.462 172.658C130.052 173.216 129.486 173.635 128.763 173.917C127.758 174.308 126.825 174.298 125.965 173.885C125.105 173.472 124.441 172.664 123.972 171.46L122.014 166.433L123.805 165.736L125.689 170.574C125.995 171.359 126.43 171.889 126.995 172.163C127.556 172.427 128.182 172.425 128.873 172.155C129.586 171.878 130.067 171.426 130.316 170.798C130.566 170.17 130.52 169.416 130.177 168.536L128.391 163.95L130.198 163.246ZM135.535 161.041C136.551 160.646 137.464 160.592 138.276 160.879C139.093 161.151 139.739 161.695 140.214 162.512L138.517 163.172C138.261 162.729 137.91 162.432 137.464 162.28C137.026 162.113 136.534 162.136 135.99 162.348C135.539 162.523 135.231 162.77 135.066 163.087C134.906 163.391 134.898 163.725 135.041 164.092C135.147 164.364 135.321 164.549 135.565 164.648C135.808 164.746 136.079 164.791 136.377 164.783C136.686 164.772 137.109 164.727 137.646 164.651C138.353 164.545 138.935 164.493 139.394 164.495C139.864 164.493 140.307 164.61 140.725 164.845C141.148 165.066 141.474 165.47 141.703 166.056C141.984 166.779 141.935 167.473 141.555 168.139C141.186 168.802 140.536 169.314 139.604 169.677C138.525 170.097 137.553 170.186 136.687 169.945C135.831 169.699 135.16 169.152 134.674 168.305L136.417 167.626C136.653 168.077 137.011 168.377 137.492 168.528C137.972 168.678 138.511 168.637 139.108 168.405C139.537 168.238 139.83 167.997 139.985 167.684C140.147 167.355 140.16 167.019 140.025 166.673C139.907 166.369 139.719 166.165 139.461 166.061C139.204 165.956 138.915 165.912 138.596 165.927C138.272 165.933 137.844 165.979 137.311 166.066C136.626 166.164 136.055 166.217 135.6 166.226C135.156 166.23 134.729 166.125 134.32 165.91C133.917 165.681 133.606 165.284 133.385 164.718C133.1 163.985 133.142 163.288 133.511 162.625C133.887 161.949 134.561 161.421 135.535 161.041ZM140.196 156.459C140.078 156.155 140.085 155.863 140.217 155.582C140.348 155.302 140.587 155.094 140.933 154.96C141.278 154.825 141.595 154.817 141.881 154.934C142.179 155.047 142.387 155.256 142.505 155.559C142.623 155.863 142.609 156.152 142.463 156.426C142.327 156.696 142.086 156.898 141.74 157.033C141.395 157.168 141.08 157.181 140.798 157.075C140.515 156.968 140.314 156.762 140.196 156.459ZM143.217 158.177L146.587 166.831L144.796 167.528L141.426 158.874L143.217 158.177ZM150.559 155.155C151.564 154.763 152.497 154.774 153.357 155.186C154.217 155.599 154.882 156.408 155.351 157.612L157.314 162.654L155.524 163.351L153.633 158.498C153.332 157.723 152.9 157.203 152.339 156.939C151.774 156.665 151.146 156.662 150.455 156.932C149.743 157.209 149.262 157.661 149.012 158.289C148.758 158.907 148.802 159.655 149.145 160.535L150.937 165.137L149.146 165.834L145.776 157.18L147.567 156.483L148.307 158.383C148.284 157.644 148.476 156.991 148.882 156.423C149.288 155.854 149.847 155.432 150.559 155.155ZM165.996 153.81C166.11 154.103 166.189 154.368 166.233 154.604L159.573 157.198C159.951 158.075 160.454 158.639 161.082 158.889C161.71 159.139 162.364 159.132 163.045 158.867C163.641 158.634 164.085 158.287 164.375 157.824C164.676 157.357 164.775 156.854 164.674 156.315L166.59 155.568C166.711 156.221 166.68 156.854 166.497 157.468C166.314 158.082 165.983 158.639 165.502 159.139C165.018 159.63 164.414 160.015 163.692 160.297C162.854 160.623 162.041 160.734 161.254 160.631C160.476 160.524 159.774 160.207 159.146 159.679C158.519 159.152 158.028 158.432 157.673 157.521C157.322 156.621 157.2 155.764 157.305 154.951C157.411 154.138 157.713 153.43 158.214 152.825C158.724 152.216 159.398 151.748 160.236 151.422C161.084 151.092 161.892 150.982 162.659 151.094C163.432 151.191 164.106 151.483 164.682 151.97C165.264 152.443 165.702 153.056 165.996 153.81ZM164.171 154.466C163.972 153.893 163.689 153.46 163.322 153.169C162.962 152.863 162.558 152.694 162.112 152.663C161.672 152.618 161.232 152.68 160.793 152.852C160.091 153.125 159.588 153.568 159.284 154.181C158.98 154.793 158.97 155.527 159.255 156.381L164.171 154.466ZM169.394 147.856C170.41 147.46 171.324 147.406 172.135 147.693C172.952 147.965 173.599 148.51 174.073 149.326L172.377 149.987C172.12 149.544 171.769 149.246 171.324 149.094C170.885 148.927 170.393 148.95 169.849 149.162C169.399 149.337 169.091 149.584 168.925 149.902C168.766 150.205 168.757 150.54 168.9 150.906C169.006 151.179 169.181 151.364 169.424 151.462C169.667 151.56 169.938 151.605 170.237 151.598C170.546 151.586 170.969 151.542 171.506 151.465C172.212 151.359 172.795 151.307 173.254 151.309C173.723 151.307 174.167 151.424 174.584 151.659C175.008 151.88 175.334 152.284 175.562 152.87C175.843 153.593 175.794 154.287 175.415 154.954C175.045 155.616 174.395 156.129 173.463 156.492C172.384 156.912 171.412 157.001 170.546 156.759C169.691 156.514 169.02 155.967 168.533 155.119L170.276 154.44C170.512 154.891 170.87 155.192 171.351 155.342C171.832 155.493 172.371 155.452 172.967 155.219C173.397 155.052 173.689 154.812 173.844 154.498C174.006 154.17 174.019 153.833 173.885 153.487C173.767 153.184 173.578 152.98 173.321 152.875C173.063 152.77 172.774 152.726 172.455 152.742C172.131 152.747 171.703 152.793 171.17 152.88C170.485 152.978 169.915 153.032 169.46 153.04C169.015 153.044 168.588 152.939 168.179 152.725C167.776 152.496 167.465 152.098 167.245 151.533C166.959 150.8 167.001 150.102 167.37 149.44C167.746 148.763 168.42 148.235 169.394 147.856ZM178.085 144.471C179.101 144.076 180.015 144.021 180.826 144.308C181.643 144.581 182.29 145.125 182.764 145.941L181.068 146.602C180.811 146.159 180.46 145.862 180.015 145.71C179.576 145.543 179.084 145.565 178.54 145.778C178.09 145.953 177.782 146.199 177.616 146.517C177.457 146.82 177.448 147.155 177.591 147.522C177.697 147.794 177.872 147.979 178.115 148.078C178.358 148.176 178.629 148.221 178.928 148.213C179.237 148.201 179.66 148.157 180.197 148.081C180.903 147.975 181.486 147.923 181.945 147.925C182.414 147.923 182.858 148.04 183.275 148.275C183.699 148.496 184.025 148.9 184.253 149.486C184.534 150.208 184.485 150.903 184.106 151.569C183.736 152.232 183.086 152.744 182.154 153.107C181.075 153.527 180.103 153.616 179.237 153.375C178.382 153.129 177.711 152.582 177.224 151.735L178.967 151.056C179.203 151.507 179.561 151.807 180.042 151.958C180.523 152.108 181.062 152.067 181.658 151.835C182.088 151.668 182.38 151.427 182.535 151.114C182.697 150.785 182.71 150.448 182.576 150.103C182.458 149.799 182.27 149.595 182.012 149.49C181.754 149.386 181.465 149.341 181.146 149.357C180.822 149.363 180.394 149.409 179.861 149.496C179.176 149.594 178.606 149.647 178.151 149.655C177.706 149.66 177.279 149.555 176.87 149.34C176.467 149.111 176.156 148.714 175.936 148.148C175.65 147.415 175.692 146.718 176.061 146.055C176.437 145.378 177.112 144.85 178.085 144.471ZM197.559 143.581C197.771 144.125 197.838 144.684 197.759 145.257C197.677 145.82 197.424 146.347 197 146.837C196.576 147.328 195.977 147.724 195.202 148.026C194.448 148.32 193.721 148.452 193.023 148.422C192.32 148.383 191.696 148.191 191.153 147.848C190.609 147.505 190.189 147.03 189.892 146.422L191.808 145.675C192.048 146.137 192.413 146.471 192.904 146.678C193.405 146.881 193.959 146.864 194.567 146.627C195.111 146.415 195.473 146.106 195.652 145.698C195.841 145.287 195.846 144.851 195.667 144.39C195.512 143.992 195.276 143.71 194.958 143.544C194.636 143.368 194.284 143.27 193.903 143.25C193.521 143.23 193.011 143.236 192.372 143.267C191.595 143.316 190.944 143.317 190.418 143.268C189.904 143.215 189.413 143.039 188.946 142.738C188.479 142.438 188.113 141.947 187.848 141.266C187.616 140.669 187.558 140.089 187.676 139.524C187.794 138.96 188.078 138.451 188.529 137.998C188.976 137.535 189.555 137.165 190.267 136.887C191.398 136.447 192.399 136.371 193.271 136.658C194.153 136.942 194.813 137.505 195.25 138.348L193.318 139.1C193.081 138.71 192.744 138.431 192.305 138.265C191.872 138.083 191.379 138.101 190.824 138.317C190.321 138.512 189.969 138.8 189.767 139.18C189.561 139.55 189.552 139.976 189.74 140.457C189.887 140.834 190.114 141.108 190.421 141.277C190.724 141.437 191.061 141.528 191.433 141.553C191.81 141.562 192.313 141.553 192.942 141.526C193.729 141.472 194.387 141.475 194.917 141.534C195.453 141.579 195.956 141.757 196.427 142.068C196.908 142.375 197.286 142.879 197.559 143.581ZM204.639 142.433L205.245 143.988L204.145 144.417C203.224 144.775 202.437 144.829 201.784 144.577C201.137 144.31 200.612 143.658 200.208 142.621L198.557 138.38L197.316 138.864L196.723 137.34L197.963 136.857L197.126 134.705L198.932 134.002L199.77 136.153L201.859 135.34L202.452 136.863L200.363 137.677L202.027 141.949C202.219 142.442 202.44 142.747 202.691 142.866C202.953 142.981 203.315 142.949 203.775 142.77L204.639 142.433ZM207.373 133.066C208.158 132.76 208.904 132.693 209.61 132.864C210.316 133.035 210.908 133.396 211.387 133.945L210.604 131.934L212.395 131.237L215.765 139.891L213.975 140.589L213.192 138.578C213.21 139.307 213.017 139.973 212.613 140.576C212.209 141.18 211.614 141.635 210.829 141.94C210.075 142.234 209.33 142.319 208.595 142.195C207.87 142.068 207.209 141.734 206.613 141.194C206.017 140.655 205.542 139.929 205.187 139.018C204.836 138.118 204.698 137.267 204.772 136.467C204.846 135.666 205.107 134.973 205.555 134.389C206.013 133.801 206.619 133.36 207.373 133.066ZM208.534 134.423C207.739 134.732 207.2 135.238 206.918 135.938C206.642 136.625 206.678 137.413 207.025 138.303C207.371 139.193 207.88 139.803 208.551 140.132C209.229 140.447 209.965 140.45 210.761 140.14C211.264 139.944 211.669 139.654 211.977 139.268C212.281 138.873 212.465 138.415 212.528 137.896C212.591 137.377 212.511 136.83 212.287 136.254C212.066 135.688 211.757 135.236 211.36 134.896C210.958 134.546 210.514 134.333 210.026 134.258C209.534 134.172 209.037 134.227 208.534 134.423ZM222.052 135.652L222.658 137.207L221.558 137.636C220.637 137.994 219.849 138.048 219.197 137.796C218.55 137.529 218.025 136.877 217.621 135.84L215.97 131.599L214.729 132.083L214.135 130.559L215.376 130.076L214.538 127.924L216.345 127.221L217.183 129.372L219.272 128.559L219.865 130.083L217.776 130.896L219.44 135.168C219.631 135.661 219.853 135.966 220.104 136.085C220.366 136.2 220.728 136.168 221.188 135.989L222.052 135.652ZM230.923 128.526C231.037 128.819 231.116 129.084 231.159 129.32L224.5 131.914C224.878 132.791 225.381 133.355 226.009 133.605C226.636 133.855 227.291 133.848 227.971 133.583C228.568 133.35 229.012 133.003 229.302 132.54C229.602 132.073 229.702 131.57 229.601 131.031L231.517 130.284C231.638 130.937 231.607 131.57 231.424 132.184C231.241 132.798 230.91 133.355 230.429 133.855C229.945 134.346 229.341 134.731 228.619 135.013C227.781 135.339 226.968 135.45 226.18 135.347C225.403 135.24 224.701 134.923 224.073 134.395C223.446 133.868 222.954 133.148 222.6 132.237C222.249 131.337 222.126 130.48 222.232 129.667C222.337 128.854 222.64 128.146 223.14 127.541C223.651 126.932 224.325 126.464 225.163 126.138C226.011 125.808 226.819 125.698 227.586 125.81C228.359 125.907 229.033 126.199 229.609 126.686C230.191 127.159 230.629 127.772 230.923 128.526ZM229.098 129.182C228.899 128.609 228.616 128.176 228.249 127.885C227.889 127.579 227.485 127.41 227.039 127.379C226.599 127.333 226.159 127.396 225.719 127.568C225.018 127.841 224.515 128.284 224.211 128.897C223.907 129.509 223.897 130.243 224.182 131.097L229.098 129.182ZM233.972 124.788C234.045 124.108 234.291 123.5 234.709 122.963C235.123 122.416 235.686 122.004 236.398 121.727L237.156 123.674L236.622 123.882C235.837 124.188 235.279 124.629 234.948 125.204C234.624 125.764 234.633 126.484 234.975 127.364L236.682 131.746L234.891 132.443L231.521 123.789L233.312 123.091L233.972 124.788ZM241.616 119.731C242.401 119.425 243.147 119.358 243.853 119.529C244.558 119.701 245.151 120.061 245.63 120.61L244.847 118.599L246.638 117.902L250.045 126.651C250.359 127.457 250.469 128.234 250.374 128.983C250.294 129.737 250.015 130.413 249.535 131.01C249.056 131.606 248.393 132.07 247.544 132.4C246.33 132.873 245.233 132.968 244.255 132.686C243.287 132.4 242.517 131.801 241.946 130.89L243.721 130.199C244.067 130.655 244.505 130.943 245.034 131.062C245.567 131.192 246.158 131.131 246.807 130.878C247.519 130.601 248.02 130.153 248.309 129.534C248.599 128.914 248.58 128.186 248.254 127.348L247.435 125.243C247.453 125.972 247.26 126.638 246.856 127.241C246.452 127.845 245.857 128.3 245.072 128.606C244.318 128.899 243.573 128.984 242.838 128.861C242.113 128.733 241.452 128.399 240.856 127.86C240.26 127.32 239.784 126.594 239.43 125.683C239.079 124.783 238.941 123.932 239.015 123.132C239.089 122.331 239.35 121.638 239.798 121.054C240.256 120.466 240.862 120.025 241.616 119.731ZM242.777 121.088C241.981 121.398 241.443 121.903 241.161 122.604C240.885 123.29 240.921 124.078 241.267 124.968C241.614 125.858 242.123 126.468 242.794 126.797C243.471 127.112 244.208 127.115 245.004 126.805C245.506 126.609 245.912 126.319 246.22 125.933C246.524 125.538 246.708 125.08 246.771 124.561C246.834 124.042 246.754 123.495 246.529 122.919C246.309 122.353 246 121.901 245.603 121.561C245.201 121.211 244.756 120.998 244.269 120.923C243.777 120.837 243.28 120.892 242.777 121.088ZM250.2 116.515L255.269 121.867L255.195 114.57L257.19 113.793L256.932 128.599L254.938 129.376L255.125 124.329L248.19 117.298L250.2 116.515Z" fill="#353E6C"/>
<path d="M292.679 297.347C294.203 296.74 294.559 295.07 293.736 293.001C292.919 290.946 291.509 289.977 289.989 290.581C288.469 291.186 288.104 292.871 288.919 294.922C289.742 296.991 291.15 297.955 292.679 297.347ZM292.396 296.634C291.37 297.042 290.388 296.224 289.739 294.59C289.104 292.993 289.262 291.701 290.274 291.298C291.286 290.896 292.276 291.721 292.917 293.332C293.566 294.966 293.417 296.228 292.396 296.634ZM298.57 295.004C300.172 294.367 300.594 292.707 299.717 290.502C298.731 288.02 297.099 287.749 295.929 288.215C294.585 288.749 293.985 290.08 294.499 291.374C294.994 292.617 296.285 293.17 297.533 292.674C298.368 292.342 298.917 291.635 298.936 290.876L298.95 290.87C299.618 292.617 299.408 293.846 298.296 294.288C297.615 294.559 296.978 294.45 296.557 293.918L295.727 294.249C296.309 295.157 297.44 295.454 298.57 295.004ZM297.389 291.901C296.531 292.242 295.653 291.871 295.314 291.018C294.988 290.197 295.39 289.28 296.23 288.946C297.074 288.611 297.989 289.009 298.323 289.848C298.654 290.683 298.255 291.556 297.389 291.901Z" fill="#BACCFD"/>
<rect x="229.015" y="182.575" width="2.57262" height="111.48" rx="1.28631" transform="rotate(-21.6824 229.015 182.575)" fill="#EFF3FE"/>
<rect x="250.396" y="238.673" width="4.2877" height="51.4524" rx="2.14385" transform="rotate(-21.6824 250.396 238.673)" fill="#23C0F7"/>
<path d="M275.945 303.999C277.469 303.393 277.824 301.723 277.002 299.654C276.185 297.599 274.775 296.63 273.255 297.234C271.735 297.839 271.369 299.523 272.185 301.574C273.008 303.643 274.415 304.607 275.945 303.999ZM275.661 303.287C274.636 303.695 273.654 302.877 273.004 301.243C272.369 299.646 272.528 298.354 273.54 297.951C274.552 297.549 275.542 298.374 276.182 299.985C276.832 301.618 276.682 302.881 275.661 303.287ZM282.004 301.59C283.392 301.038 284.071 299.865 283.634 298.767C283.312 297.954 282.482 297.507 281.554 297.644L281.547 297.626C282.181 297.106 282.403 296.382 282.132 295.702C281.735 294.703 280.553 294.333 279.314 294.825C278.084 295.314 277.467 296.405 277.861 297.395C278.135 298.084 278.804 298.459 279.614 298.395L279.621 298.413C278.855 298.943 278.559 299.839 278.884 300.655C279.319 301.749 280.62 302.141 282.004 301.59ZM281.72 300.878C280.822 301.235 279.974 300.979 279.691 300.266C279.406 299.549 279.846 298.781 280.745 298.423C281.647 298.064 282.489 298.318 282.776 299.04C283.059 299.752 282.623 300.519 281.72 300.878ZM280.459 297.706C279.679 298.017 278.956 297.784 278.703 297.149C278.449 296.509 278.813 295.839 279.594 295.529C280.374 295.218 281.097 295.451 281.353 296.095C281.606 296.73 281.235 297.398 280.459 297.706Z" fill="#BACCFD"/>
<rect x="213.06" y="188.913" width="2.57262" height="111.48" rx="1.28631" transform="rotate(-21.6824 213.06 188.913)" fill="#EFF3FE"/>
<rect x="226.521" y="225.088" width="4.2877" height="72.8908" rx="2.14385" transform="rotate(-21.6824 226.521 225.088)" fill="#23C0F7"/>
<path d="M259.991 310.337C261.516 309.731 261.871 308.06 261.048 305.991C260.231 303.936 258.821 302.967 257.301 303.572C255.781 304.176 255.416 305.861 256.232 307.912C257.054 309.981 258.462 310.945 259.991 310.337ZM259.708 309.625C258.683 310.032 257.7 309.214 257.051 307.581C256.416 305.984 256.575 304.691 257.586 304.289C258.598 303.886 259.589 304.712 260.229 306.322C260.878 307.956 260.729 309.219 259.708 309.625ZM263.952 308.636L264.809 308.295L265.42 301.347L265.119 300.59L260.786 302.312L261.074 303.038L264.6 301.637L264.607 301.655L263.952 308.636Z" fill="#BACCFD"/>
<rect x="196.326" y="195.566" width="2.57262" height="111.48" rx="1.28631" transform="rotate(-21.6824 196.326 195.566)" fill="#EFF3FE"/>
<rect x="219.291" y="255.647" width="4.2877" height="47.1647" rx="2.14385" transform="rotate(-21.6824 219.291 255.647)" fill="#23C0F7"/>
<path d="M243.259 316.99C244.784 316.384 245.139 314.714 244.316 312.645C243.499 310.589 242.089 309.621 240.569 310.225C239.049 310.829 238.684 312.514 239.499 314.565C240.322 316.634 241.73 317.598 243.259 316.99ZM242.976 316.278C241.95 316.686 240.968 315.867 240.319 314.234C239.684 312.637 239.842 311.344 240.854 310.942C241.866 310.54 242.856 311.365 243.497 312.976C244.146 314.609 243.997 315.872 242.976 316.278ZM249.438 314.539C250.781 314.005 251.381 312.673 250.867 311.38C250.373 310.137 249.081 309.584 247.833 310.08C246.944 310.433 246.46 311.172 246.427 311.869L246.413 311.874C245.748 310.121 245.983 308.903 247.077 308.468C247.748 308.201 248.374 308.346 248.799 308.86L249.629 308.53C249.026 307.609 247.911 307.301 246.799 307.743C245.197 308.38 244.772 310.046 245.649 312.251C246.618 314.688 248.231 315.019 249.438 314.539ZM249.14 313.816C248.301 314.15 247.382 313.743 247.049 312.904C246.717 312.069 247.111 311.197 247.978 310.853C248.844 310.508 249.707 310.88 250.048 311.737C250.376 312.563 249.975 313.484 249.14 313.816Z" fill="#BACCFD"/>
<rect x="179.592" y="202.219" width="2.57262" height="111.48" rx="1.28631" transform="rotate(-21.6824 179.592 202.219)" fill="#EFF3FE"/>
<rect x="197.804" y="250.348" width="4.2877" height="60.0277" rx="2.14385" transform="rotate(-21.6824 197.804 250.348)" fill="#23C0F7"/>
<path d="M226.523 323.644C228.047 323.037 228.403 321.367 227.58 319.298C226.763 317.243 225.353 316.274 223.833 316.878C222.313 317.483 221.948 319.168 222.763 321.218C223.586 323.287 224.994 324.251 226.523 323.644ZM226.24 322.931C225.214 323.339 224.232 322.521 223.583 320.887C222.948 319.29 223.106 317.998 224.118 317.595C225.13 317.193 226.12 318.018 226.761 319.629C227.41 321.263 227.261 322.525 226.24 322.931ZM232.582 321.234C233.948 320.691 234.548 319.386 234.025 318.07C233.525 316.813 232.255 316.262 230.998 316.762C230.363 317.014 229.912 317.467 229.779 318.03L229.761 318.037L229.108 315.748L232.184 314.525L231.896 313.799L228.148 315.289L229.297 319.157L230.018 318.87C230.113 318.223 230.511 317.77 231.133 317.523C232.004 317.177 232.873 317.551 233.217 318.418C233.567 319.298 233.195 320.16 232.306 320.514C231.521 320.826 230.735 320.581 230.385 319.912L229.582 320.231C230.094 321.32 231.33 321.732 232.582 321.234Z" fill="#BACCFD"/>
<rect x="162.857" y="208.873" width="2.57262" height="111.48" rx="1.28631" transform="rotate(-21.6824 162.857 208.873)" fill="#EFF3FE"/>
<rect x="184.238" y="264.97" width="4.2877" height="51.4524" rx="2.14385" transform="rotate(-21.6824 184.238 264.97)" fill="#23C0F7"/>
<path d="M209.789 330.297C211.313 329.691 211.668 328.021 210.846 325.952C210.029 323.896 208.619 322.928 207.099 323.532C205.579 324.137 205.213 325.821 206.029 327.872C206.852 329.941 208.259 330.905 209.789 330.297ZM209.505 329.585C208.48 329.993 207.498 329.175 206.848 327.541C206.213 325.944 206.372 324.651 207.384 324.249C208.396 323.847 209.386 324.672 210.026 326.283C210.676 327.916 210.526 329.179 209.505 329.585ZM216.667 327.437L217.456 327.123L216.915 325.761L217.84 325.393L217.555 324.677L216.63 325.045L214.853 320.575L213.646 321.055C212.981 323.889 212.688 325.387 212.542 326.644L212.836 327.383L216.125 326.075L216.667 327.437ZM213.351 326.327C213.508 325.214 213.785 323.837 214.32 321.575L214.334 321.57L215.84 325.358L213.358 326.345L213.351 326.327Z" fill="#BACCFD"/>
<rect x="146.123" y="215.526" width="2.57262" height="111.48" rx="1.28631" transform="rotate(-21.6824 146.123 215.526)" fill="#EFF3FE"/>
<rect x="167.504" y="271.623" width="4.2877" height="51.4524" rx="2.14385" transform="rotate(-21.6824 167.504 271.623)" fill="#23C0F7"/>
<path d="M193.054 336.951C194.579 336.344 194.934 334.674 194.111 332.605C193.294 330.55 191.884 329.581 190.364 330.185C188.844 330.79 188.479 332.475 189.295 334.526C190.117 336.595 191.525 337.559 193.054 336.951ZM192.771 336.238C191.746 336.646 190.763 335.828 190.114 334.194C189.479 332.597 189.638 331.305 190.649 330.902C191.661 330.5 192.651 331.325 193.292 332.936C193.941 334.57 193.792 335.832 192.771 336.238ZM196.947 331.762L197.768 331.435C198.689 331.069 199.446 331.293 199.762 332.103C200.03 332.79 199.649 333.509 198.787 333.852C197.915 334.198 197.128 334.002 196.802 333.327L196.017 333.639C196.507 334.7 197.711 335.099 199.068 334.56C200.352 334.049 201.029 332.871 200.582 331.746C200.212 330.815 199.327 330.479 198.341 330.776L198.334 330.758C199.087 330.259 199.432 329.475 199.109 328.663C198.738 327.729 197.68 327.277 196.369 327.798C195.144 328.285 194.565 329.34 194.916 330.488L195.701 330.176C195.47 329.448 195.879 328.813 196.651 328.506C197.49 328.172 198.073 328.45 198.331 329.099C198.591 329.752 198.238 330.45 197.457 330.76L196.672 331.072L196.947 331.762Z" fill="#BACCFD"/>
<rect x="129.408" y="222.179" width="2.57262" height="111.48" rx="1.28631" transform="rotate(-21.6824 129.408 222.179)" fill="#EFF3FE"/>
<rect x="160.294" y="302.182" width="4.2877" height="25.7262" rx="2.14385" transform="rotate(-21.6824 160.294 302.182)" fill="#23C0F7"/>
<path d="M176.337 343.603C177.862 342.997 178.217 341.327 177.394 339.258C176.577 337.203 175.167 336.234 173.647 336.838C172.127 337.443 171.762 339.127 172.577 341.178C173.4 343.247 174.808 344.211 176.337 343.603ZM176.054 342.891C175.028 343.299 174.046 342.481 173.397 340.847C172.762 339.25 172.921 337.958 173.932 337.555C174.944 337.153 175.934 337.978 176.575 339.589C177.224 341.222 177.075 342.485 176.054 342.891ZM178.12 337.377L178.909 337.063C178.617 336.328 179.005 335.533 179.813 335.212C180.561 334.914 181.246 335.236 181.502 335.88C181.719 336.425 181.655 336.86 181.137 338.133L179.788 341.454L180.012 342.016L184.331 340.299L184.043 339.573L180.844 340.845L180.837 340.827L181.758 338.611C182.47 336.899 182.586 336.227 182.299 335.505C181.904 334.512 180.741 334.018 179.53 334.5C178.268 335.001 177.664 336.229 178.12 337.377Z" fill="#BACCFD"/>
<rect x="113.451" y="228.516" width="2.57262" height="111.48" rx="1.28631" transform="rotate(-21.6824 113.451 228.516)" fill="#EFF3FE"/>
<rect x="131.664" y="276.645" width="4.2877" height="60.0277" rx="2.14385" transform="rotate(-21.6824 131.664 276.645)" fill="#23C0F7"/>
<path d="M161.179 349.624C162.704 349.018 163.059 347.347 162.236 345.278C161.419 343.223 160.009 342.254 158.489 342.859C156.969 343.463 156.604 345.148 157.42 347.199C158.242 349.268 159.65 350.232 161.179 349.624ZM160.896 348.912C159.87 349.319 158.888 348.501 158.239 346.868C157.604 345.271 157.763 343.978 158.774 343.576C159.786 343.173 160.776 343.999 161.417 345.61C162.066 347.243 161.917 348.506 160.896 348.912ZM166.523 347.373L167.313 347.059L164.71 340.512L163.911 340.829L162.667 342.774L162.993 343.596L164.247 341.699L164.265 341.692L166.523 347.373Z" fill="#BACCFD"/>
<defs>
<filter id="filter0_bdi_0_1" x="-4.89515" y="-9.76416" width="460.741" height="485.267" filterUnits="userSpaceOnUse" color-interpolation-filters="sRGB">
<feFlood flood-opacity="0" result="BackgroundImageFix"/>
<feGaussianBlur in="BackgroundImageFix" stdDeviation="10.7192"/>
<feComposite in2="SourceAlpha" operator="in" result="effect1_backgroundBlur_0_1"/>
<feColorMatrix in="SourceAlpha" type="matrix" values="0 0 0 0 0 0 0 0 0 0 0 0 0 0 0 0 0 0 127 0" result="hardAlpha"/>
<feOffset dx="19.7234" dy="24.8686"/>
<feGaussianBlur stdDeviation="18.0083"/>
<feComposite in2="hardAlpha" operator="out"/>
<feColorMatrix type="matrix" values="0 0 0 0 0.633333 0 0 0 0 0.633333 0 0 0 0 0.633333 0 0 0 0.25 0"/>
<feBlend mode="multiply" in2="effect1_backgroundBlur_0_1" result="effect2_dropShadow_0_1"/>
<feBlend mode="normal" in="SourceGraphic" in2="effect2_dropShadow_0_1" result="shape"/>
<feColorMatrix in="SourceAlpha" type="matrix" values="0 0 0 0 0 0 0 0 0 0 0 0 0 0 0 0 0 0 127 0" result="hardAlpha"/>
<feOffset dx="-2.57262" dy="2.57262"/>
<feComposite in2="hardAlpha" operator="arithmetic" k2="-1" k3="1"/>
<feColorMatrix type="matrix" values="0 0 0 0 1 0 0 0 0 1 0 0 0 0 1 0 0 0 1 0"/>
<feBlend mode="normal" in2="shape" result="effect3_innerShadow_0_1"/>
</filter>
<filter id="filter1_d_0_1" x="54.8569" y="66.8062" width="323.898" height="323.898" filterUnits="userSpaceOnUse" color-interpolation-filters="sRGB">
<feFlood flood-opacity="0" result="BackgroundImageFix"/>
<feColorMatrix in="SourceAlpha" type="matrix" values="0 0 0 0 0 0 0 0 0 0 0 0 0 0 0 0 0 0 127 0" result="hardAlpha"/>
<feOffset dy="2.57262"/>
<feGaussianBlur stdDeviation="1.28631"/>
<feComposite in2="hardAlpha" operator="out"/>
<feColorMatrix type="matrix" values="0 0 0 0 0.7875 0 0 0 0 0.7875 0 0 0 0 0.7875 0 0 0 0.25 0"/>
<feBlend mode="normal" in2="BackgroundImageFix" result="effect1_dropShadow_0_1"/>
<feBlend mode="normal" in="SourceGraphic" in2="effect1_dropShadow_0_1" result="shape"/>
</filter>
<linearGradient id="paint0_linear_0_1" x1="281.592" y1="234.504" x2="19.2409" y2="207.73" gradientUnits="userSpaceOnUse">
<stop stop-color="#F4F4F4"/>
<stop offset="0.421875" stop-color="#F4F4F4"/>
<stop offset="1" stop-color="white"/>
</linearGradient>
</defs>
</svg>
